<?xml version="1.0" encoding="utf-8"?>
<!-- Generator: Adobe Illustrator 21.0.0, SVG Export Plug-In . SVG Version: 6.00 Build 0)  -->
<svg version="1.1" id="Layer_1" xmlns="http://www.w3.org/2000/svg" xmlns:xlink="http://www.w3.org/1999/xlink" x="0px" y="0px"
	 viewBox="0 0 1140 270" style="enable-background:new 0 0 1140 270;" xml:space="preserve">
<style type="text/css">
	.st0{fill:#E0F0FF;}
	.st1{fill:#2E9AFE;}
	.st2{fill:#82C2FE;}
	.st3{fill:none;}
	.st4{fill:#F6FAFF;}
	.st5{fill:#FFFFFF;}
	.st6{fill:#9ED0FE;}
</style>
<g>
	<path class="st0" d="M777.6,269.5c-0.6,0-1-0.4-1-1c0-9.2-0.5-18.3-1.6-27.4c-0.1-0.5,0.3-1,0.9-1.1c0.6-0.1,1,0.3,1.1,0.9
		c1.1,9.1,1.6,18.4,1.6,27.6C778.5,269,778.1,269.5,777.6,269.5z"/>
</g>
<g>
	<path class="st0" d="M397.4,78.6c-0.3,0-0.6-0.1-0.8-0.4c-0.3-0.4-0.2-1.1,0.2-1.4c20.5-15.3,43.2-27.2,67.4-35.2
		c0.5-0.2,1.1,0.1,1.3,0.6c0.2,0.5-0.1,1.1-0.6,1.3c-24,8-46.5,19.7-66.9,34.9C397.8,78.6,397.6,78.6,397.4,78.6z"/>
</g>
<g>
	<path class="st0" d="M314,193.6c-0.1,0-0.2,0-0.3-0.1c-0.5-0.2-0.8-0.7-0.6-1.3c2.8-8.2,6-16.2,9.6-24.1c0.2-0.5,0.8-0.7,1.3-0.5
		s0.7,0.8,0.5,1.3c-3.6,7.8-6.8,15.7-9.5,23.9C314.8,193.3,314.5,193.6,314,193.6z"/>
</g>
<g>
	<path class="st0" d="M443.3,167.2c-0.3,0-0.5-0.1-0.7-0.3c-0.4-0.4-0.4-1,0-1.4c26.4-24.9,60.8-38.5,97-38.5
		c27.5,0,54.1,7.9,77,22.8c0.5,0.3,0.6,0.9,0.3,1.4s-0.9,0.6-1.4,0.3c-22.6-14.7-48.8-22.5-75.9-22.5c-35.7,0-69.6,13.5-95.7,38
		C443.8,167.1,443.5,167.2,443.3,167.2z"/>
</g>
<g>
	<path class="st0" d="M399.1,269.5c-0.6,0-1-0.4-1-1c0-13.1,1.8-26.2,5.4-38.7c0.2-0.5,0.7-0.8,1.2-0.7c0.5,0.2,0.8,0.7,0.7,1.2
		c-3.5,12.3-5.3,25.2-5.3,38.2C400.1,269,399.7,269.5,399.1,269.5z"/>
</g>
<g>
	<path class="st0" d="M727.2,269.5c-0.6,0-1-0.4-1-1c0-56.3-25.1-109-68.7-144.7c-0.4-0.3-0.5-1-0.1-1.4c0.3-0.4,1-0.5,1.4-0.1
		c44.2,36,69.5,89.3,69.5,146.2C728.2,269,727.8,269.5,727.2,269.5z"/>
</g>
<g>
	<path class="st0" d="M571.4,84.6c-0.1,0-0.1,0-0.2,0c-10.3-1.8-21-2.7-31.6-2.7c-0.6,0-1-0.4-1-1s0.4-1,1-1
		c10.7,0,21.5,0.9,31.9,2.7c0.5,0.1,0.9,0.6,0.8,1.2C572.3,84.2,571.9,84.6,571.4,84.6z"/>
</g>
<g>
	<path class="st0" d="M445.7,107c-0.3,0-0.7-0.2-0.9-0.5c-0.3-0.5-0.1-1.1,0.4-1.4c6.1-3.6,12.4-6.8,18.9-9.6c0.5-0.2,1.1,0,1.3,0.5
		c0.2,0.5,0,1.1-0.5,1.3c-6.4,2.8-12.7,6-18.7,9.5C446.1,106.9,445.9,107,445.7,107z"/>
</g>
<g>
	<path class="st0" d="M352.1,269.5c-0.6,0-1-0.4-1-1c0-34.2,9.3-67.7,26.9-97c0.3-0.5,0.9-0.6,1.4-0.3s0.6,0.9,0.3,1.4
		c-17.3,28.9-26.6,62.1-26.6,96C353.1,269,352.6,269.5,352.1,269.5z"/>
</g>
<g>
	<path class="st0" d="M530.9,38.9c-1-0.7-2.8-2.7-7.5-7.9c-1.6-1.8-3.3-3.7-4.7-5.1c-1.5-1.6-2.4-2.4-2.4-2.4s-7.3-6.6-7-6.8
		c-0.2-0.1-0.4-0.2-0.5-0.2c-2.2,0-9.8,6-10.9,6s-1.2,0-1.2,0v15.8c0,0,0.2,0,1.2,0c1.1,0,3.3,2.8,3.3,2.8l7.7,7.7
		c0,0,1.5,1.4,3.7,1.4c2.2,0,2.9-1.4,2.9-1.4s0.9,1.4,3.1,1.4c2.7,0,3.5-2.5,3.5-2.5s0.6,0.5,2.5,0.5c3,0,3-2.7,3-2.7
		s1.1,0.8,2.2,0.8c1.7,0,2.7-1.9,2.7-3C532.4,41.2,531.5,39.7,530.9,38.9z"/>
</g>
<g>
	<g>
		<path class="st1" d="M518.5,51.1c-1.4,0-2.4-0.5-3-1c-0.6,0.5-1.6,1-2.9,1c-2.6,0-4.3-1.7-4.4-1.7l-7.7-7.7l-0.1-0.1
			c-0.9-1.2-2.1-2.3-2.6-2.4h-1.2c-0.6,0-1-0.4-1-1V22.4c0-0.6,0.4-1,1-1h1.2c0.5-0.2,2.1-1.2,3.4-2.1c3.7-2.4,6.2-3.9,7.6-3.9
			c0.3,0,0.6,0.1,1,0.3c0.2,0.1,0.4,0.3,0.4,0.5c0.6,0.8,3.8,3.8,6.7,6.4c0,0,1,0.9,2.5,2.5c1.3,1.4,3,3.3,4.6,5.1l0.1,0.1l0,0
			c4.2,4.7,6.4,7.1,7.4,7.8c0.1,0.1,0.2,0.1,0.2,0.2c0.6,0.9,1.7,2.6,1.7,5c0,1.7-1.4,4-3.7,4c-0.5,0-1.1-0.1-1.5-0.3
			c-0.5,1.2-1.7,2.3-3.7,2.3c-0.9,0-1.5-0.1-2-0.2C521.9,49.9,520.6,51.1,518.5,51.1z M515.4,47.7c0.3,0,0.7,0.2,0.9,0.5
			c0,0,0.7,1,2.2,1c1.9,0,2.5-1.6,2.5-1.8c0.1-0.3,0.4-0.6,0.7-0.7c0.3-0.1,0.7,0,0.9,0.2c0,0,0.5,0.3,1.8,0.3c1.8,0,2-1.4,2-1.8
			c0-0.4,0.2-0.7,0.5-0.9s0.7-0.1,1,0.1c0.2,0.2,1,0.6,1.6,0.6c1.1,0,1.7-1.4,1.7-2c0-1.7-0.7-3-1.2-3.7c-1-0.8-2.7-2.6-7.5-8
			l-0.1-0.1c-1.6-1.8-3.2-3.6-4.6-5c-1.4-1.5-2.3-2.4-2.4-2.4c-4.7-4.3-6.4-6-7-6.8c-1.2,0.2-4.4,2.3-6.4,3.6
			c-2.8,1.8-3.8,2.4-4.4,2.4h-0.2V37h0.2c1.4,0,3.1,2,4,3.2l7.6,7.6l0,0c0,0,1.3,1.2,3,1.2c1.5,0,1.9-0.8,2-0.9
			C514.7,47.9,515.1,47.7,515.4,47.7L515.4,47.7z M510.1,17.4L510.1,17.4L510.1,17.4z M510.1,17.4L510.1,17.4L510.1,17.4z
			 M510.1,17.4L510.1,17.4L510.1,17.4z M510.1,17.4L510.1,17.4L510.1,17.4z M510.1,17.4L510.1,17.4L510.1,17.4z M510.1,17.4
			L510.1,17.4L510.1,17.4z M510.1,17.4L510.1,17.4L510.1,17.4z M510.1,17.4L510.1,17.4L510.1,17.4z M510.1,17.4L510.1,17.4
			L510.1,17.4z"/>
	</g>
</g>
<g>
	<path class="st0" d="M533,22.4c-1.1,0-15.8-9.9-17.8-9.9c-1.1,0-13.8,11-13.8,12.1s1.9,3.7,3,3.7s9.8-6,10.9-6
		c1.1,0,14.2,15.8,15.3,15.8s4.5,0,4.5,0V22.5C535,22.5,534.1,22.4,533,22.4z"/>
</g>
<g>
	<g>
		<path class="st1" d="M535,39.3h-4.5c-0.8,0-1.6-0.7-8.4-8.3c-2.6-2.9-6-6.7-7.1-7.6c-0.9,0.4-3.1,1.7-4.8,2.8
			c-4.1,2.5-5.3,3.1-6,3.1c-1.8,0-4-3.2-4-4.7c0-0.5,0-1.3,6.9-7.3c6.8-5.9,7.7-5.9,8-5.9c1.3,0,4.7,2,11.5,6.2
			c2.5,1.6,5.7,3.5,6.4,3.7c1.1,0,1.9,0.1,2,0.1c0.5,0,0.9,0.5,0.9,1v15.8C536,38.8,535.6,39.3,535,39.3z M530.8,37.3L530.8,37.3
			L530.8,37.3z M530.7,37.3h3.3V23.4c-0.3,0-0.6,0-1,0c-0.6,0-1.7-0.6-7.4-4c-3.4-2.1-9.1-5.6-10.4-5.9c-1.9,0.9-11.7,9.6-12.9,11.3
			c0.2,0.7,1.3,2.3,1.9,2.5c0.7-0.2,3.2-1.7,5-2.8c4.1-2.5,5.3-3.1,6-3.1c0.8,0,1.6,0.7,8.4,8.3C526.3,32.6,529.8,36.6,530.7,37.3z
			 M504.2,27.4L504.2,27.4L504.2,27.4z M502.3,25L502.3,25L502.3,25z M515.3,23.4L515.3,23.4z M514.9,23.4L514.9,23.4L514.9,23.4z"
			/>
	</g>
</g>
<g>
	<path class="st2" d="M542.4,14.9h-5.3c-1.3,0-2.3,1-2.3,2.3v27.1c0,1.3,1,2.3,2.3,2.3h5.3c1.3,0,2.3-1,2.3-2.3V17.2
		C544.7,15.9,543.6,14.9,542.4,14.9z"/>
</g>
<g>
	<path class="st1" d="M542.4,47.6h-5.3c-1.8,0-3.3-1.5-3.3-3.3V17.2c0-1.8,1.5-3.3,3.3-3.3h5.3c1.8,0,3.3,1.5,3.3,3.3v27.1
		C545.7,46.2,544.2,47.6,542.4,47.6z M537,15.9c-0.7,0-1.3,0.6-1.3,1.3v27.1c0,0.7,0.6,1.3,1.3,1.3h5.3c0.7,0,1.3-0.6,1.3-1.3V17.2
		c0-0.7-0.6-1.3-1.3-1.3C542.3,15.9,537,15.9,537,15.9z"/>
</g>
<g>
	<path class="st2" d="M494.3,14.9H489c-1.3,0-2.3,1-2.3,2.3v27.1c0,1.3,1,2.3,2.3,2.3h5.3c1.3,0,2.3-1,2.3-2.3V17.2
		C496.6,15.9,495.6,14.9,494.3,14.9z"/>
</g>
<g>
	<path class="st1" d="M494.3,47.6H489c-1.8,0-3.3-1.5-3.3-3.3V17.2c0-1.8,1.5-3.3,3.3-3.3h5.3c1.8,0,3.3,1.5,3.3,3.3v27.1
		C497.6,46.2,496.1,47.6,494.3,47.6z M489,15.9c-0.7,0-1.3,0.6-1.3,1.3v27.1c0,0.7,0.6,1.3,1.3,1.3h5.3c0.7,0,1.3-0.6,1.3-1.3V17.2
		c0-0.7-0.6-1.3-1.3-1.3C494.3,15.9,489,15.9,489,15.9z"/>
</g>
<g>
	<g>
		<path class="st0" d="M774.9,186.5h-22.7v39.7h31.2v-31.1C780.1,191.7,778.2,189.8,774.9,186.5z"/>
		<path class="st1" d="M783.4,227.2h-31.2c-0.6,0-1-0.4-1-1v-39.7c0-0.6,0.4-1,1-1h22.7c0.3,0,0.5,0.1,0.7,0.3l8.6,8.6
			c0.2,0.2,0.3,0.4,0.3,0.7v31.1C784.4,226.7,784,227.2,783.4,227.2z M753.2,225.2h29.2v-29.7l-8-8h-21.3L753.2,225.2L753.2,225.2z"
			/>
	</g>
	<g>
		<line class="st3" x1="758" y1="194.7" x2="768.9" y2="194.7"/>
		<path class="st1" d="M768.9,195.7H758c-0.6,0-1-0.4-1-1s0.4-1,1-1h10.9c0.6,0,1,0.4,1,1S769.4,195.7,768.9,195.7z"/>
	</g>
	<g>
		<line class="st3" x1="767" y1="202.5" x2="777.7" y2="202.5"/>
		<path class="st1" d="M777.7,203.5H767c-0.6,0-1-0.4-1-1s0.4-1,1-1h10.6c0.6,0,1,0.4,1,1S778.2,203.5,777.7,203.5z"/>
	</g>
	<g>
		<line class="st3" x1="767" y1="210.4" x2="777.7" y2="210.4"/>
		<path class="st1" d="M777.7,211.4H767c-0.6,0-1-0.4-1-1s0.4-1,1-1h10.6c0.6,0,1,0.4,1,1S778.2,211.4,777.7,211.4z"/>
	</g>
	<g>
		<line class="st3" x1="767" y1="218.3" x2="777.7" y2="218.3"/>
		<path class="st1" d="M777.7,219.3H767c-0.6,0-1-0.4-1-1s0.4-1,1-1h10.6c0.6,0,1,0.4,1,1S778.2,219.3,777.7,219.3z"/>
	</g>
	<g>
		<polyline class="st0" points="757.5,202.2 759.2,203.9 762.1,201.1 		"/>
		<path class="st1" d="M759.2,204.9c-0.3,0-0.5-0.1-0.7-0.3l-1.7-1.7c-0.4-0.4-0.4-1,0-1.4s1-0.4,1.4,0l1,1l2.2-2.2
			c0.4-0.4,1-0.4,1.4,0s0.4,1,0,1.4l-2.9,2.9C759.7,204.8,759.4,204.9,759.2,204.9z"/>
	</g>
	<g>
		<polyline class="st0" points="757.5,210.1 759.2,211.8 762.1,208.9 		"/>
		<path class="st1" d="M759.2,212.8c-0.3,0-0.5-0.1-0.7-0.3l-1.7-1.7c-0.4-0.4-0.4-1,0-1.4s1-0.4,1.4,0l1,1l2.2-2.2
			c0.4-0.4,1-0.4,1.4,0s0.4,1,0,1.4l-2.9,2.9C759.7,212.7,759.4,212.8,759.2,212.8z"/>
	</g>
	<g>
		<polyline class="st0" points="757.5,218 759.2,219.7 762.1,216.8 		"/>
		<path class="st1" d="M759.2,220.7c-0.3,0-0.5-0.1-0.7-0.3l-1.7-1.7c-0.4-0.4-0.4-1,0-1.4s1-0.4,1.4,0l1,1l2.2-2.2
			c0.4-0.4,1-0.4,1.4,0s0.4,1,0,1.4l-2.9,2.9C759.7,220.6,759.4,220.7,759.2,220.7z"/>
	</g>
	<g>
		<polyline class="st4" points="774.5,187.7 774.5,195.2 782.1,195.2 		"/>
	</g>
	<g>
		<path class="st1" d="M782.1,196.2h-7.7c-0.6,0-1-0.4-1-1v-7.6c0-0.6,0.4-1,1-1s1,0.4,1,1v6.6h6.7c0.6,0,1,0.4,1,1
			S782.7,196.2,782.1,196.2z"/>
	</g>
</g>
<g>
	<g>
		<path class="st1" d="M529.6,114.9h-47c-0.6,0-1-0.4-1-1V108c0-2.1,0.8-3.6,2.4-4.8c2.1-1.4,4.7-2.3,7.2-3.2c5-1.7,8.1-3,8.1-5.9
			c0-1.4-0.6-2.5-1.4-4c-1.2-2.2-2.6-4.9-2.6-9.7v-2c0-8,5.9-10.7,10.8-10.7c5,0,10.8,2.8,10.8,10.7v2c0,4.9-1.4,7.6-2.6,9.7
			c-0.8,1.4-1.4,2.6-1.4,4c0,2.9,3,4.1,8.1,5.9c2.5,0.9,5.1,1.8,7.2,3.1l0,0c1.6,1.1,2.4,2.6,2.4,4.8v5.9
			C530.6,114.5,530.2,114.9,529.6,114.9z M483.7,112.9h45V108c0-1.5-0.4-2.4-1.5-3.1c-1.9-1.2-4.4-2.1-6.8-2.9
			c-4.6-1.6-9.4-3.2-9.4-7.8c0-1.9,0.8-3.3,1.6-4.9c1.1-2.1,2.4-4.5,2.4-8.9v-2c0-8.2-6.8-8.8-8.9-8.8s-8.9,0.6-8.9,8.8v2
			c0,4.4,1.3,6.8,2.4,8.9c0.8,1.6,1.6,3,1.6,4.9c0,4.5-4.8,6.2-9.4,7.8c-2.4,0.8-4.9,1.7-6.8,2.9c-1.1,0.7-1.5,1.6-1.5,3.1
			L483.7,112.9L483.7,112.9z"/>
	</g>
</g>
<g>
	<path class="st0" d="M401.3,126.6c-10.7-7.2-30.3-7.6-30.3-19c0-7.6,7.6-11.3,7.6-26.6v-3.8c0-15.2-11.4-19-19-19s-19,3.8-19,19
		v3.9c0,15.2,7.7,19,7.7,26.6c0,11.3-19.6,11.8-30.3,19c-2.4,1.6-3.8,3.8-3.8,7.6v11.4h91.1v-11.4
		C405.1,130.4,403.7,128.2,401.3,126.6z"/>
</g>
<g>
	<path class="st1" d="M405.1,146.7H314c-0.6,0-1-0.4-1-1v-11.4c0-3.8,1.4-6.5,4.3-8.5c3.9-2.6,8.9-4.3,13.7-6
		c8.4-2.9,16.2-5.6,16.2-12.2c0-2.9-1.2-5.2-2.7-8.1c-2.2-4.2-4.9-9.4-4.9-18.5v-3.8c0-14.7,10.3-20,20-20c9.6,0,20,5.3,20,20v3.9
		c0,9.2-2.7,14.3-4.9,18.5c-1.5,2.9-2.7,5.2-2.7,8.1c0,6.7,7.9,9.4,16.2,12.2c4.8,1.7,9.8,3.4,13.7,6c2.9,2,4.2,4.7,4.2,8.5v11.4
		C406.1,146.2,405.6,146.7,405.1,146.7z M315,144.7h89.1v-10.4c0-3.2-1-5.2-3.4-6.8c-3.7-2.5-8.6-4.1-13.2-5.8
		c-9.1-3.1-17.5-6-17.5-14c0-3.4,1.4-6,3-9.1c2.2-4.2,4.7-8.9,4.7-17.5v-3.8c0-17.1-15-18-18-18s-18,0.9-18,18v3.8
		c0,8.7,2.5,13.3,4.7,17.5c1.6,3,3,5.7,3,9.1c0,8.1-8.6,10.9-17.5,14c-4.7,1.6-9.6,3.3-13.2,5.8c-2.4,1.6-3.4,3.6-3.4,6.8v10.4H315z
		"/>
</g>
<g>
	<g id="XMLID_4_">
		<path class="st2" d="M268.8,216.3H247c-0.3,3.3-2.9,5.9-6.1,6.1v22.2c3.3,0.3,5.9,2.9,6.1,6.1h21.8c-5-4.1-8.3-10.2-8.3-17.2
			C260.5,226.6,263.8,220.4,268.8,216.3z"/>
		<path class="st1" d="M268.8,251.7H247c-0.5,0-0.9-0.4-1-0.9c-0.3-2.8-2.5-5-5.2-5.2c-0.5,0-0.9-0.5-0.9-1v-22.2
			c0-0.5,0.4-0.9,0.9-1c2.8-0.3,5-2.5,5.2-5.2c0-0.5,0.5-0.9,1-0.9h21.8c0.4,0,0.8,0.3,0.9,0.7s0,0.8-0.3,1.1
			c-5,4.1-7.9,10-7.9,16.4s2.9,12.4,7.9,16.4c0.3,0.3,0.5,0.7,0.3,1.1C269.6,251.5,269.2,251.7,268.8,251.7z M247.9,249.7h18.3
			c-4.3-4.3-6.7-10-6.7-16.2s2.4-11.9,6.7-16.2h-18.3c-0.6,3-3,5.4-6,6v20.5C244.9,244.4,247.3,246.7,247.9,249.7z"/>
	</g>
	<g id="XMLID_2_">
		<path class="st2" d="M296.6,250.7h21.7c0.3-3.3,2.9-5.9,6.1-6.1v-22.2c-3.3-0.3-5.9-2.9-6.1-6.1h-21.8c5,4.1,8.3,10.2,8.3,17.2
			C304.8,240.5,301.6,246.7,296.6,250.7z"/>
		<path class="st1" d="M318.3,251.7h-21.8c-0.4,0-0.8-0.3-0.9-0.7s0-0.8,0.3-1.1c5-4.1,7.9-10,7.9-16.4s-2.9-12.4-7.8-16.4
			c-0.3-0.3-0.5-0.7-0.3-1.1c0.1-0.4,0.5-0.7,0.9-0.7h21.8c0.5,0,0.9,0.4,1,0.9c0.3,2.8,2.5,5,5.2,5.2c0.5,0,0.9,0.5,0.9,1v22.2
			c0,0.5-0.4,0.9-0.9,1c-2.8,0.3-5,2.5-5.2,5.2C319.3,251.3,318.9,251.7,318.3,251.7z M299.1,249.7h18.3c0.6-3,3-5.4,6-6v-20.5
			c-3-0.6-5.4-3-6-6h-18.3c4.3,4.3,6.7,10,6.7,16.2S303.4,245.4,299.1,249.7z"/>
	</g>
	<g>
		<g>
			<polygon class="st0" points="282.7,208.9 233.6,208.9 233.6,258.1 282.7,258.1 331.9,258.1 331.9,208.9 			"/>
		</g>
		<g>
			<path class="st1" d="M331.9,259.1h-98.3c-0.6,0-1-0.4-1-1V209c0-0.6,0.4-1,1-1h98.3c0.6,0,1,0.4,1,1v49.1
				C332.9,258.7,332.5,259.1,331.9,259.1z M234.6,257.1h96.3v-47.2h-96.3L234.6,257.1L234.6,257.1z"/>
		</g>
	</g>
	<g>
		<path class="st5" d="M268.8,250.7H247c-0.3-3.3-2.9-5.9-6.1-6.1v-22.2c3.3-0.3,5.9-2.9,6.1-6.1h21.8c-5,4.1-8.3,10.2-8.3,17.2
			S263.8,246.7,268.8,250.7z"/>
		<path class="st1" d="M268.8,251.7H247c-0.5,0-0.9-0.4-1-0.9c-0.3-2.8-2.5-5-5.2-5.2c-0.5,0-0.9-0.5-0.9-1v-22.2
			c0-0.5,0.4-0.9,0.9-1c2.8-0.3,5-2.5,5.2-5.2c0-0.5,0.5-0.9,1-0.9h21.8c0.4,0,0.8,0.3,0.9,0.7s0,0.8-0.3,1.1
			c-5,4.1-7.9,10-7.9,16.4s2.9,12.4,7.9,16.4c0.3,0.3,0.5,0.7,0.3,1.1C269.6,251.5,269.2,251.7,268.8,251.7z M247.9,249.7h18.3
			c-4.3-4.3-6.7-10-6.7-16.2s2.4-11.9,6.7-16.2h-18.3c-0.6,3-3,5.4-6,6v20.5C244.9,244.4,247.3,246.7,247.9,249.7z"/>
	</g>
	<g>
		<path class="st5" d="M324.5,244.6c-3.3,0.3-5.9,2.9-6.1,6.1h-21.8c5-4.1,8.3-10.2,8.3-17.2s-3.2-13.1-8.3-17.2h21.7
			c0.3,3.3,2.9,5.9,6.1,6.1L324.5,244.6L324.5,244.6z"/>
		<path class="st1" d="M318.3,251.7h-21.8c-0.4,0-0.8-0.3-0.9-0.7s0-0.8,0.3-1.1c5-4.1,7.9-10,7.9-16.4s-2.9-12.4-7.8-16.4
			c-0.3-0.3-0.5-0.7-0.3-1.1c0.1-0.4,0.5-0.7,0.9-0.7h21.8c0.5,0,0.9,0.4,1,0.9c0.3,2.8,2.5,5,5.2,5.2c0.5,0,0.9,0.5,0.9,1v22.2
			c0,0.5-0.4,0.9-0.9,1c-2.8,0.3-5,2.5-5.2,5.2C319.3,251.3,318.9,251.7,318.3,251.7z M299.1,249.7h18.3c0.6-3,3-5.4,6-6v-20.5
			c-3-0.6-5.4-3-6-6h-18.3c4.3,4.3,6.7,10,6.7,16.2S303.4,245.4,299.1,249.7z M324.5,244.6L324.5,244.6L324.5,244.6z"/>
	</g>
	<g>
		<g>
			<path class="st1" d="M284.1,219c3.6,0.5,5.2,3.3,5.2,7.3v0.5c0,0.9-0.7,1.5-1.5,1.5l0,0c-0.9,0-1.5-0.7-1.5-1.5v-0.7
				c0-2.6-1.1-4.2-3.4-4.2s-3.4,1.6-3.4,4.2c0,6.6,9.8,6.7,9.8,14.9c0,4-1.7,6.8-5.3,7.3v0.9c0,0.7-0.6,1.4-1.4,1.4l0,0
				c-0.7,0-1.4-0.6-1.4-1.4v-0.9c-3.7-0.5-5.3-3.3-5.3-7.3v-0.8c0-0.9,0.7-1.5,1.5-1.5l0,0c0.9,0,1.5,0.7,1.5,1.5v1
				c0,2.7,1.1,4.2,3.5,4.2s3.5-1.5,3.5-4.2c0-6.6-9.8-6.7-9.8-14.9c0-4.1,1.6-6.7,5.2-7.3v-1c0-0.7,0.6-1.4,1.4-1.4l0,0
				c0.7,0,1.4,0.6,1.4,1.4L284.1,219L284.1,219z"/>
		</g>
	</g>
</g>
<g>
	<path class="st0" d="M610.2,193.4h-52.3c-0.6,0-1-0.4-1-1s0.4-1,1-1h52.3c0.6,0,1,0.4,1,1S610.8,193.4,610.2,193.4z"/>
</g>
<g>
	<path class="st0" d="M415,216.2h6.2c0,1.2-1.6,2.1-3.1,2.1C416.7,218.2,415,217.4,415,216.2z"/>
	<path class="st1" d="M418.1,219.2c-2,0-4.1-1.2-4.1-3.1c0-0.6,0.4-1,1-1h6.2c0.6,0,1,0.4,1,1C422.2,218,420.1,219.2,418.1,219.2z
		 M417.5,217.2c0.4,0.1,0.8,0.1,1.2,0H417.5z"/>
</g>
<g>
	<g>
		<path class="st0" d="M418.1,182.7c-6.4,0-11.4,5.2-11.4,11.4c0,2.1,0.6,4,1.5,5.8c2.8,5.1,3.6,4.1,4,6.8c0.4,2.3,0.9,2.9,2.7,2.9
			c0.7,0,2,0,3.3,0s2.5,0,3.3,0c1.8,0,2.3-0.5,2.7-2.9c0.5-2.8,1.2-1.7,4-6.8c0.9-1.7,1.5-3.7,1.5-5.8
			C429.6,187.9,424.5,182.7,418.1,182.7z"/>
		<path class="st1" d="M421.4,210.6h-6.5c-2.6,0-3.3-1.3-3.7-3.7c-0.2-1.2-0.4-1.4-1-2.2c-0.6-0.7-1.5-1.8-2.9-4.3
			c-1.1-2-1.7-4.1-1.7-6.2c0-6.9,5.6-12.4,12.4-12.4c3.3,0,6.5,1.3,8.9,3.7s3.7,5.5,3.7,8.9c0,2.2-0.6,4.3-1.7,6.2
			c-1.4,2.5-2.3,3.6-2.9,4.3c-0.6,0.8-0.8,1-1,2.2C424.7,209.3,423.9,210.6,421.4,210.6z M418.1,183.7c-5.8,0-10.4,4.7-10.4,10.4
			c0,1.8,0.5,3.6,1.4,5.3c1.3,2.3,2.1,3.3,2.7,4c0.8,0.9,1.2,1.5,1.5,3.2c0.3,2,0.6,2,1.7,2h6.5c1.1,0,1.4,0,1.7-2
			c0.3-1.7,0.7-2.2,1.5-3.2c0.6-0.7,1.4-1.7,2.7-4c0.9-1.7,1.4-3.5,1.4-5.3c0-2.8-1.1-5.5-3.1-7.4
			C423.6,184.8,420.9,183.7,418.1,183.7z"/>
	</g>
</g>
<g>
	<line class="st3" x1="418.1" y1="175" x2="418.1" y2="171.1"/>
	<path class="st1" d="M418.1,176c-0.6,0-1-0.4-1-1v-3.9c0-0.6,0.4-1,1-1s1,0.4,1,1v3.9C419.1,175.6,418.7,176,418.1,176z"/>
</g>
<g>
	<line class="st3" x1="409.1" y1="177.5" x2="407.1" y2="174.1"/>
	<path class="st1" d="M409.1,178.5c-0.3,0-0.7-0.2-0.9-0.5l-2-3.4c-0.3-0.5-0.1-1.1,0.4-1.4c0.5-0.3,1.1-0.1,1.4,0.4l2,3.4
		c0.3,0.5,0.1,1.1-0.4,1.4C409.4,178.4,409.3,178.5,409.1,178.5z"/>
</g>
<g>
	<line class="st3" x1="402.4" y1="184.1" x2="399" y2="182.2"/>
	<path class="st1" d="M402.4,185.1c-0.2,0-0.3,0-0.5-0.1l-3.4-2c-0.5-0.3-0.6-0.9-0.4-1.4c0.3-0.5,0.9-0.6,1.4-0.4l3.4,2
		c0.5,0.3,0.6,0.9,0.4,1.4C403.1,184.9,402.7,185.1,402.4,185.1z"/>
</g>
<g>
	<line class="st3" x1="399.9" y1="193.2" x2="396" y2="193.2"/>
	<path class="st1" d="M399.9,194.2H396c-0.6,0-1-0.4-1-1s0.4-1,1-1h3.9c0.6,0,1,0.4,1,1S400.5,194.2,399.9,194.2z"/>
</g>
<g>
	<line class="st3" x1="402.4" y1="202.2" x2="399" y2="204.2"/>
	<path class="st1" d="M399,205.2c-0.3,0-0.7-0.2-0.9-0.5c-0.3-0.5-0.1-1.1,0.4-1.4l3.4-2c0.5-0.3,1.1-0.1,1.4,0.4s0.1,1.1-0.4,1.4
		l-3.4,2C399.3,205.2,399.1,205.2,399,205.2z"/>
</g>
<g>
	<line class="st3" x1="433.8" y1="202.3" x2="437.2" y2="204.2"/>
	<path class="st1" d="M437.2,205.2c-0.2,0-0.3,0-0.5-0.1l-3.4-2c-0.5-0.3-0.6-0.9-0.4-1.4s0.9-0.6,1.4-0.4l3.4,2
		c0.5,0.3,0.6,0.9,0.4,1.4C437.9,205,437.6,205.2,437.2,205.2z"/>
</g>
<g>
	<line class="st3" x1="436.3" y1="193.2" x2="440.2" y2="193.2"/>
	<path class="st1" d="M440.2,194.2h-3.9c-0.6,0-1-0.4-1-1s0.4-1,1-1h3.9c0.6,0,1,0.4,1,1S440.8,194.2,440.2,194.2z"/>
</g>
<g>
	<line class="st3" x1="433.8" y1="184.1" x2="437.2" y2="182.2"/>
	<path class="st1" d="M433.8,185.1c-0.3,0-0.7-0.2-0.9-0.5c-0.3-0.5-0.1-1.1,0.4-1.4l3.4-2c0.5-0.3,1.1-0.1,1.4,0.4s0.1,1.1-0.4,1.4
		l-3.4,2C434.2,185,434,185.1,433.8,185.1z"/>
</g>
<g>
	<line class="st3" x1="427.3" y1="177.5" x2="429.2" y2="174.1"/>
	<path class="st1" d="M427.3,178.5c-0.2,0-0.3,0-0.5-0.1c-0.5-0.3-0.6-0.9-0.4-1.4l2-3.4c0.3-0.5,0.9-0.6,1.4-0.4
		c0.5,0.2,0.6,0.9,0.4,1.4l-2,3.4C427.9,178.3,427.6,178.5,427.3,178.5z"/>
</g>
<g>
	<g>
		<path class="st0" d="M753.6,165.6c-0.4,0-0.7-0.2-0.9-0.6c-0.2-0.5,0-1.1,0.5-1.3c30.3-13.7,50-44.1,50-77.4
			c0-46.8-38.1-84.9-84.9-84.9c-34.1,0-64.8,20.3-78.1,51.7c-0.2,0.5-0.8,0.7-1.3,0.5s-0.7-0.8-0.5-1.3c13.6-32.1,45.1-52.9,80-52.9
			c47.9,0,86.8,38.9,86.8,86.8c0,34.1-20.1,65.2-51.1,79.2C753.9,165.6,753.8,165.6,753.6,165.6z M747.4,153.9
			c-0.4,0-0.8-0.2-0.9-0.6c-0.2-0.5,0-1.1,0.5-1.3c26.1-11.4,43-37.2,43-65.7c0-39.5-32.1-71.6-71.6-71.6c-29,0-55,17.3-66.2,44.1
			c-0.2,0.5-0.8,0.8-1.3,0.5c-0.5-0.2-0.8-0.8-0.5-1.3c11.4-27.5,38.1-45.3,67.9-45.3c40.6,0,73.6,33,73.6,73.6
			c0,29.2-17.3,55.7-44.2,67.5C747.7,153.9,747.6,153.9,747.4,153.9z"/>
	</g>
	<g>
		<path class="st0" d="M791,87.3h-59.2c-0.6,0-1-0.4-1-1s0.4-1,1-1H790c-0.5-38.7-31.9-70.1-70.6-70.6v58.2c0,0.6-0.4,1-1,1
			s-1-0.4-1-1V13.7c0-0.6,0.4-1,1-1c40.6,0,73.6,33,73.6,73.6C792,86.9,791.6,87.3,791,87.3z"/>
	</g>
	<g>
		<path class="st0" d="M732.6,129.8c-0.4,0-0.8-0.3-0.9-0.7c-0.2-0.5,0.1-1.1,0.6-1.3c17.9-6,29.8-22.7,29.8-41.5
			c0-24.2-19.6-43.8-43.8-43.8c-19.3,0-36.1,12.4-41.8,30.8c-0.2,0.5-0.7,0.8-1.3,0.7c-0.5-0.2-0.8-0.7-0.7-1.3
			c6-19.3,23.6-32.2,43.7-32.2c25.3,0,45.8,20.5,45.8,45.8c0,19.7-12.5,37.1-31.2,43.4C732.8,129.8,732.7,129.8,732.6,129.8z"/>
	</g>
	<g>
		<path class="st0" d="M718.4,100.8c-8,0-14.4-6.5-14.4-14.4S710.5,72,718.4,72s14.4,6.5,14.4,14.4S726.3,100.8,718.4,100.8z
			 M718.4,74c-6.9,0-12.4,5.6-12.4,12.4c0,6.9,5.6,12.4,12.4,12.4s12.4-5.6,12.4-12.4C730.8,79.6,725.2,74,718.4,74z"/>
	</g>
	<g>
		<path class="st0" d="M700.8,75.4c-3.7,0-6.8-3-6.8-6.7s3-6.8,6.8-6.8c3.7,0,6.8,3,6.8,6.8C707.5,72.3,704.4,75.4,700.8,75.4z
			 M700.8,64c-2.6,0-4.8,2.1-4.8,4.8c0,2.6,2.1,4.7,4.8,4.7c2.6,0,4.8-2.1,4.8-4.7C705.5,66.1,703.3,64,700.8,64z"/>
	</g>
	<g>
		<path class="st0" d="M767.6,64.7c-2.9,0-5.3-2.4-5.3-5.3c0-2.9,2.4-5.3,5.3-5.3c2.9,0,5.3,2.4,5.3,5.3
			C772.9,62.3,770.5,64.7,767.6,64.7z M767.6,56.1c-1.8,0-3.3,1.5-3.3,3.3s1.5,3.3,3.3,3.3s3.3-1.5,3.3-3.3
			C770.9,57.6,769.4,56.1,767.6,56.1z"/>
	</g>
	<g>
		<path class="st0" d="M734.7,67.5c-1.7,0-3.2-1.4-3.2-3.2s1.4-3.2,3.2-3.2c1.7,0,3.2,1.4,3.2,3.2C737.9,66.2,736.5,67.5,734.7,67.5
			z M734.7,63.3c-0.6,0-1.2,0.5-1.2,1.2c0,0.7,0.5,1.2,1.2,1.2s1.2-0.5,1.2-1.2S735.4,63.3,734.7,63.3z"/>
	</g>
	<g>
		<path class="st0" d="M705,87.3h-12.3c-0.6,0-1-0.4-1-1s0.4-1,1-1H705c0.6,0,1,0.4,1,1S705.5,87.3,705,87.3z"/>
	</g>
	<g>
		<path class="st0" d="M718.4,110.3c-0.6,0-1-0.4-1-1v-9.2c0-0.6,0.4-1,1-1s1,0.4,1,1v9.3C719.4,109.9,719,110.3,718.4,110.3z"/>
	</g>
</g>
<g>
	<g>
		<path class="st0" d="M755,168.1c-0.4,0-0.7-0.2-0.9-0.6c-36.3-77-111.5-128.9-196.2-135.3c-0.6,0-1-0.5-0.9-1.1s0.5-1,1.1-0.9
			C643.6,36.7,719.4,89,756,166.8c0.2,0.5,0,1.1-0.5,1.3C755.3,168.1,755.2,168.1,755,168.1z"/>
	</g>
</g>
<g>
	<path class="st2" d="M687.3,230.3c-10.6-7.1-30.2-7.6-30.2-18.9c0-7.6,7.6-11.3,7.6-26.5v-3.8c0-15.1-11.4-18.9-19-18.9
		s-19,3.8-19,18.9v3.8c0,15.1,7.6,18.9,7.6,26.5c0,11.3-19.6,11.8-30.2,18.9c-2.4,1.6-3.8,3.8-3.8,7.6v11.4H691v-11.4
		C691.1,234.1,689.7,231.9,687.3,230.3z"/>
</g>
<g>
	<path class="st1" d="M691.1,250.2h-90.8c-0.6,0-1-0.4-1-1v-11.4c0-3.8,1.4-6.5,4.3-8.4c3.9-2.6,8.9-4.3,13.7-6
		c8.3-2.9,16.1-5.6,16.1-12.1c0-2.9-1.2-5.2-2.7-8.1c-2.2-4.2-4.9-9.4-4.9-18.4v-3.7c0-14.7,10.3-19.9,20-19.9s20,5.3,20,19.9v3.8
		c0,9.2-2.7,14.2-4.9,18.4c-1.5,2.9-2.7,5.2-2.7,8.1c0,6.7,7.9,9.4,16.1,12.1c4.8,1.7,9.7,3.4,13.7,6c2.9,2,4.2,4.6,4.2,8.4v11.4
		C692.1,249.8,691.6,250.2,691.1,250.2z M601.3,248.2h88.8v-10.4c0-3.2-1-5.2-3.3-6.8c-3.7-2.5-8.6-4.1-13.2-5.7
		c-9-3.1-17.5-6-17.5-14c0-3.4,1.4-6,3-9c2.2-4.2,4.7-8.9,4.7-17.5v-3.7c0-17.1-15-17.9-18-17.9s-18,0.9-18,17.9v3.8
		c0,8.7,2.5,13.3,4.7,17.5c1.6,3,3,5.6,3,9c0,8.1-8.5,10.9-17.5,14c-4.7,1.6-9.6,3.3-13.2,5.7c-2.4,1.6-3.4,3.6-3.4,6.8L601.3,248.2
		L601.3,248.2z"/>
</g>
<g>
	<circle class="st0" cx="605.9" cy="93.9" r="18.1"/>
	<path class="st1" d="M605.9,113.1c-10.5,0-19.1-8.6-19.1-19.1s8.6-19.1,19.1-19.1S625,83.5,625,94S616.5,113.1,605.9,113.1z
		 M605.9,76.8c-9.5,0-17.1,7.7-17.1,17.1s7.7,17.1,17.1,17.1s17.1-7.7,17.1-17.1S615.4,76.8,605.9,76.8z"/>
</g>
<g>
	<circle class="st5" cx="605.9" cy="93.9" r="8.1"/>
	<path class="st1" d="M605.9,103.1c-5,0-9.1-4.1-9.1-9.1s4.1-9.1,9.1-9.1S615,89,615,94S611,103.1,605.9,103.1z M605.9,86.8
		c-3.9,0-7.1,3.2-7.1,7.1s3.2,7.1,7.1,7.1c3.9,0,7.1-3.2,7.1-7.1S609.9,86.8,605.9,86.8z"/>
</g>
<g>
	<path class="st4" d="M605.9,79.8c7,0,13.1,3.8,16.5,9.5c-2-7.2-8.7-12.4-16.5-12.4s-14.4,5.3-16.5,12.4
		C592.8,83.6,599.1,79.8,605.9,79.8z"/>
</g>
<g>
	<path class="st1" d="M605.9,94.9c-0.3,0-0.5-0.1-0.7-0.3c-0.4-0.4-0.4-1,0-1.4l23.3-23.3c0.4-0.4,1-0.4,1.4,0s0.4,1,0,1.4
		l-23.3,23.3C606.4,94.8,606.2,94.9,605.9,94.9z"/>
</g>
<g>
	<polygon class="st5" points="629.1,76.3 624,75.9 623.6,70.8 633.7,60.7 634.2,65.8 639.3,66.3 	"/>
	<path class="st1" d="M629.1,77.3C629,77.3,629,77.3,629.1,77.3l-5.2-0.5c-0.5,0-0.9-0.4-0.9-0.9l-0.5-5.1c0-0.3,0.1-0.6,0.3-0.8
		L633,59.9c0.3-0.3,0.7-0.4,1-0.2c0.4,0.1,0.6,0.5,0.7,0.9l0.4,4.3l4.3,0.4c0.4,0,0.7,0.3,0.8,0.7c0.1,0.4,0,0.8-0.2,1l-10.2,10.1
		C629.6,77.2,629.3,77.3,629.1,77.3z M624.9,75l3.8,0.3L637,67l-3-0.3c-0.5,0-0.9-0.4-0.9-0.9l-0.3-3l-8.3,8.3L624.9,75z"/>
</g>
<g>
	<g>
		<g>
			<path class="st0" d="M500.3,171.2c8.9,0,16,7.2,16,16s-7.2,16-16,16s-16-7.2-16-16C484.3,178.5,491.4,171.2,500.3,171.2z"/>
		</g>
	</g>
</g>
<g>
	<g>
		<g>
			<path class="st1" d="M500.3,204.3c-9.4,0-17-7.7-17-17c0-9.5,7.7-17,17-17s17,7.7,17,17C517.4,196.7,509.7,204.3,500.3,204.3z
				 M500.3,172.2c-8.3,0-15,6.8-15,15s6.8,15,15,15c8.3,0,15-6.8,15-15C515.4,179,508.6,172.2,500.3,172.2z"/>
		</g>
	</g>
</g>
<g>
	<path class="st1" d="M471.5,231c-1.6,0-2.9-1.3-2.9-2.9v-6.9c0-1.6,1.3-2.9,2.9-2.9h5.4l3.9-4.6c0.1-0.1,1.7-1.6,4-2.3
		c2-0.6,24.8-3.9,27.4-4.2c0.3,0,2.9-0.4,4.4,0.8c0.7,0.6,1,1.3,1,2.3c0,3.5-5.1,5-5.6,5.2l-14,3.5c-0.3,0.1-0.9,0.4-1.2,0.7
		c1.5,1,3.3,1.5,5.1,1.5l13.1,0.1c0.6-0.1,5-1.3,10.4-8.1l0,0c2.3-2.8,4.3-4,6-3.6c2.1,0.5,2.7,3,2.7,3.3c0,0.2,0,0.4-0.1,0.6
		c-0.2,0.6-5.9,13.8-16,16c-9.7,2.1-32.1,1.4-33,1.3l-7.7,0.2L471.5,231L471.5,231z M471.5,220.5c-0.5,0-0.9,0.4-0.9,0.9v6.9
		c0,0.5,0.4,0.9,0.9,0.9h5.8l7.7-0.2c0.3,0,23.1,0.8,32.6-1.3c8.4-1.8,13.6-12.5,14.5-14.5c-0.2-0.5-0.6-1.3-1.2-1.5
		c-0.4-0.1-1.6,0-4,2.9l0,0c-6.5,7.9-11.5,8.8-11.7,8.9c-0.1,0-0.1,0-0.2,0l-13.2-0.1c-2.5,0-4.9-0.8-6.9-2.3
		c-0.3-0.2-0.4-0.5-0.4-0.8c0-2.1,2.5-2.9,2.8-3l14-3.5c1.1-0.3,4.2-1.6,4.2-3.2c0-0.4-0.2-0.6-0.3-0.7c-0.6-0.5-2.1-0.5-2.8-0.4
		c-10.1,1.4-25.7,3.8-27.1,4.2c-1.8,0.5-3.1,1.8-3.1,1.8l-4.2,4.9c-0.2,0.2-0.5,0.3-0.8,0.3L471.5,220.5L471.5,220.5z M526.2,213.8
		L526.2,213.8L526.2,213.8z"/>
</g>
<g>
	<g>
		<circle class="st5" cx="229.9" cy="205.4" r="28.1"/>
		<path class="st1" d="M229.9,234.5c-16,0-29-13-29-29s13-29,29-29s29,13,29,29S245.9,234.5,229.9,234.5z M229.9,178.4
			c-14.9,0-27.1,12.1-27.1,27.1c0,14.9,12.1,27.1,27.1,27.1s27.1-12.1,27.1-27.1S244.8,178.4,229.9,178.4z"/>
	</g>
	<g>
		<path class="st1" d="M227.1,213.7c-0.3,0-0.5-0.1-0.7-0.3l-8.9-8.9c-0.4-0.4-0.4-1,0-1.4s1-0.4,1.4,0l8.2,8.2l13.9-13.9
			c0.4-0.4,1-0.4,1.4,0s0.4,1,0,1.4l-14.6,14.6C227.6,213.6,227.3,213.7,227.1,213.7z"/>
	</g>
</g>
<g>
	<g>
		<path class="st1" d="M501.1,178.8c2.1,0.3,3.1,1.9,3.1,4.3v0.3c0,0.5-0.4,0.9-0.9,0.9l0,0c-0.5,0-0.9-0.4-0.9-0.9v-0.5
			c0-1.5-0.6-2.5-2-2.5s-2,0.9-2,2.5c0,3.9,5.8,3.9,5.8,8.8c0,2.3-1,4-3.1,4.3v0.5c0,0.4-0.4,0.8-0.8,0.8l0,0
			c-0.4,0-0.8-0.4-0.8-0.8V196c-2.2-0.3-3.1-1.9-3.1-4.3v-0.6c0-0.5,0.4-0.9,0.9-0.9l0,0c0.5,0,0.9,0.4,0.9,0.9v0.6
			c0,1.6,0.6,2.5,2,2.5s2-0.9,2-2.5c0-3.9-5.8-3.9-5.8-8.8c0-2.4,1-3.9,3-4.3v-0.5c0-0.4,0.4-0.8,0.8-0.8l0,0c0.4,0,0.8,0.4,0.8,0.8
			L501.1,178.8L501.1,178.8z"/>
	</g>
</g>
<g>
	<path class="st0" d="M283.5,97.5H120c-0.6,0-1-0.4-1-1s0.4-1,1-1h163.6c0.6,0,1,0.4,1,1C284.5,97.1,284.1,97.5,283.5,97.5z"/>
</g>
<g>
	<path class="st0" d="M211.5,165H53.3c-0.6,0-1-0.4-1-1s0.4-1,1-1h158.2c0.6,0,1,0.4,1,1S212,165,211.5,165z"/>
</g>
<g>
	<path class="st0" d="M963.8,165h-12.7c-0.6,0-1-0.4-1-1s0.4-1,1-1h12.7c0.6,0,1,0.4,1,1S964.4,165,963.8,165z"/>
</g>
<g>
	<path class="st0" d="M1052.1,98.9H849.2c-0.6,0-1-0.4-1-1s0.4-1,1-1h202.9c0.6,0,1,0.4,1,1S1052.6,98.9,1052.1,98.9z"/>
</g>
<g>
	<path class="st0" d="M930.5,165H824.3c-0.6,0-1-0.4-1-1s0.4-1,1-1h106.1c0.6,0,1,0.4,1,1S931.1,165,930.5,165z"/>
</g>
<g>
	<path class="st0" d="M1097.9,231.2H815.4c-0.6,0-1-0.4-1-1s0.4-1,1-1h282.5c0.6,0,1,0.4,1,1S1098.4,231.2,1097.9,231.2z"/>
</g>
<g>
	<path class="st0" d="M175.7,231.2H59.3c-0.6,0-1-0.4-1-1s0.4-1,1-1h116.4c0.6,0,1,0.4,1,1S176.2,231.2,175.7,231.2z"/>
</g>
<g>
	<path class="st6" d="M542.4,18.9c0.5,0,0.9,0.1,1.3,0.3v-2c0-0.7-0.6-1.3-1.3-1.3h-5.3c-0.7,0-1.3,0.6-1.3,1.3v2
		c0.4-0.2,0.8-0.3,1.3-0.3H542.4z"/>
</g>
<g>
	<path class="st6" d="M494.3,18.9c0.5,0,0.9,0.1,1.3,0.3v-2c0-0.7-0.6-1.3-1.3-1.3H489c-0.7,0-1.3,0.6-1.3,1.3v2
		c0.4-0.2,0.8-0.3,1.3-0.3H494.3z"/>
</g>
<g>
	<path class="st4" d="M359.5,59.4c-2.6,0-13.9,0.6-17.2,11.6c3.8-6.2,10.6-8.7,17.2-8.7s13.4,2.4,17.2,8.6
		C373.5,60,362.1,59.4,359.5,59.4z"/>
</g>
<g>
	<path class="st4" d="M318.3,127.5c-2,1.3-3,3-3.3,5.3c0.6-0.7,1.3-1.4,2.2-1.9l0,0c3.9-2.6,8.9-4.3,13.7-6
		c8-2.7,15.4-5.3,16.1-11.2c-3.1,3.9-9.2,6-15.5,8.2C326.9,123.4,322,125,318.3,127.5z"/>
</g>
<g>
	<path class="st4" d="M400.7,127.5c-3.7-2.5-8.6-4.1-13.2-5.8c-6.4-2.2-12.4-4.3-15.5-8.2c0.7,6,8.3,8.6,16.1,11.2
		c4.8,1.7,9.8,3.4,13.7,6c0.8,0.6,1.6,1.2,2.2,1.9C403.7,130.4,402.7,128.8,400.7,127.5z"/>
</g>
<g>
	<path class="st4" d="M418.1,183.7c-5.1,0-9.3,3.6-10.2,8.4c2.3-3.3,6.1-5.4,10.2-5.4c4.2,0,8,2.1,10.2,5.4c-0.4-2-1.4-3.8-2.9-5.3
		C423.6,184.8,420.9,183.7,418.1,183.7z"/>
</g>
<g>
	<path class="st6" d="M645.6,166.1c6.6,0,13.4,2.4,17.1,8.6c-3.2-10.9-14.5-11.5-17.1-11.5s-13.9,0.6-17.1,11.5
		C632.3,168.5,639.2,166.1,645.6,166.1z"/>
</g>
<g>
	<path class="st6" d="M686.7,231.1c-3.7-2.5-8.6-4.1-13.2-5.7c-6.4-2.2-12.4-4.3-15.4-8.2c0.7,6,8.2,8.6,16.1,11.2
		c4.8,1.7,9.7,3.4,13.7,6c0.8,0.6,1.6,1.2,2.1,1.9C689.7,234,688.7,232.4,686.7,231.1z"/>
</g>
<g>
	<path class="st6" d="M604.5,231.1c-2,1.3-3,3-3.3,5.3c0.6-0.7,1.3-1.4,2.2-1.9l0,0c3.9-2.6,8.9-4.3,13.6-6
		c7.9-2.7,15.4-5.3,16.1-11.2c-3.1,3.9-9.1,6-15.4,8.2C613.1,227,608.2,228.6,604.5,231.1z"/>
</g>
<g>
	<path class="st4" d="M500.3,175.2c6.2,0,11.5,3.2,14.5,8.2c-1.8-6.4-7.6-11.1-14.5-11.1s-12.8,4.7-14.5,11.1
		C488.8,178.4,494.2,175.2,500.3,175.2z"/>
</g>
</svg>
