<?xml version="1.0" encoding="utf-8"?>
<!-- Generator: Adobe Illustrator 21.0.0, SVG Export Plug-In . SVG Version: 6.00 Build 0)  -->
<svg version="1.1" id="Layer_1" xmlns="http://www.w3.org/2000/svg" xmlns:xlink="http://www.w3.org/1999/xlink" x="0px" y="0px"
	 viewBox="0 0 1140 268" style="enable-background:new 0 0 1140 268;" xml:space="preserve">
<style type="text/css">
	.st0{fill:#E0F0FF;}
	.st1{fill:#2E9AFE;}
	.st2{fill:#FFFFFF;}
	.st3{fill:#82C2FE;}
	.st4{fill:#9ED0FE;}
	.st5{fill:#F6FAFF;}
</style>
<g>
	<g>
		<g>
			<path class="st0" d="M546.6,270c-0.3,0-0.6-0.1-0.8-0.4c-22.7-29.5-34.8-64.8-34.8-102.2C510.9,75.1,586,0,678.3,0
				s167.4,75.2,167.4,167.5c0,37.3-12,72.5-34.7,102c-0.3,0.4-1,0.5-1.4,0.2s-0.5-1-0.2-1.4c22.4-29.1,34.3-64,34.3-100.8
				C843.7,76.3,769.5,2,678.3,2S512.9,76.3,512.9,167.4c0,36.9,11.9,71.8,34.3,100.9c0.3,0.4,0.3,1.1-0.2,1.4
				C547.1,270,546.9,270,546.6,270z"/>
		</g>
	</g>
	<g>
		<g>
			<path class="st0" d="M749.8,270c-0.1,0-0.3,0-0.4-0.1c-0.5-0.2-0.8-0.8-0.5-1.3c12.2-29.2,18.7-64.2,18.7-101.2
				c0-91.2-40-165.4-89.2-165.4s-89.2,74.2-89.2,165.4c0,36.9,6.4,71.8,18.7,101c0.2,0.5,0,1.1-0.5,1.3s-1.1,0-1.3-0.5
				c-12.3-29.4-18.8-64.6-18.8-101.8C587.2,75.1,628.1,0,678.4,0s91.2,75.1,91.2,167.4c0,37.2-6.5,72.5-18.9,101.9
				C750.6,269.8,750.2,270,749.8,270z"/>
		</g>
	</g>
	<g>
		<g>
			<path class="st0" d="M678.3,269.9c-0.6,0-1-0.4-1-1V2c0-0.6,0.4-1,1-1s1,0.4,1,1v266.8C679.3,269.5,678.9,269.9,678.3,269.9z"/>
		</g>
	</g>
	<g>
		<g>
			<path class="st0" d="M844.7,168.4H512c-0.6,0-1-0.4-1-1s0.4-1,1-1h332.7c0.6,0,1,0.4,1,1S845.2,168.4,844.7,168.4z"/>
		</g>
	</g>
	<g>
		<g>
			<path class="st0" d="M818.1,78.2H538c-0.6,0-1-0.4-1-1s0.4-1,1-1h280.1c0.6,0,1,0.4,1,1S818.7,78.2,818.1,78.2z"/>
		</g>
	</g>
	<g>
		<g>
			<path class="st0" d="M818.1,258.6H538c-0.6,0-1-0.4-1-1s0.4-1,1-1h280.1c0.6,0,1,0.4,1,1S818.7,258.6,818.1,258.6z"/>
		</g>
	</g>
</g>
<g>
	<g>
		<path class="st0" d="M658,257.6H476.7V146.3c0-3.9,3.1-6.9,6.9-6.9h167.5c3.9,0,6.9,3.1,6.9,6.9V257.6L658,257.6z"/>
	</g>
	<g>
		<path class="st1" d="M658,258.6H476.7c-0.6,0-1-0.4-1-1V146.3c0-4.4,3.6-7.9,7.9-7.9h167.5c4.4,0,7.9,3.6,7.9,7.9v111.2
			C659,258.1,658.6,258.6,658,258.6z M477.7,256.7h179.4V146.3c0-3.3-2.7-6-6-6H483.5c-3.3,0-6,2.7-6,6L477.7,256.7L477.7,256.7z"/>
	</g>
</g>
<g>
	<rect x="486.5" y="149.7" class="st2" width="161.5" height="96.8"/>
	<path class="st1" d="M648.2,247.5H486.5c-0.6,0-1-0.4-1-1v-96.8c0-0.6,0.4-1,1-1H648c0.6,0,1,0.4,1,1v96.8
		C649.2,247.1,648.7,247.5,648.2,247.5z M487.5,245.5h159.6v-94.9H487.5V245.5z"/>
</g>
<g>
	<g>
		<path class="st2" d="M651,140.4H483.5c-3.2,0-5.8,2.5-6,5.7c1.5-1.7,3.6-2.7,6-2.7H651c2.4,0,4.5,1,6,2.7
			C656.9,142.9,654.2,140.4,651,140.4z"/>
	</g>
</g>
<g>
	<path class="st3" d="M483.4,44.2L483.4,44.2c-1.1-0.5-1.8-1.6-1.6-2.7c0.2-1.4,0.2-2.8,0-4.2c-0.1-1.2,0.6-2.3,1.7-2.7l0,0
		c1.4-0.6,2-2.1,1.5-3.5l-0.6-1.4c-0.6-1.4-2.1-2-3.5-1.5l0,0c-1.1,0.4-2.3,0.1-3.1-0.8c-0.9-1.1-1.9-2.1-2.9-3
		c-0.9-0.7-1.2-2-0.7-3.1l0,0c0.6-1.4-0.1-2.9-1.4-3.5l-1.4-0.6c-1.4-0.6-2.9,0.1-3.5,1.4l0,0c-0.5,1.1-1.6,1.7-2.7,1.6
		c-1.4-0.2-2.8-0.2-4.2,0c-1.2,0.1-2.3-0.6-2.7-1.7l0,0c-0.6-1.4-2.1-2-3.5-1.5l-1.4,0.6c-1.4,0.6-2,2.1-1.5,3.5l0,0
		c0.4,1.1,0.1,2.3-0.8,3.1c-0.2,0.2-0.5,0.4-0.7,0.6l0,0c-0.8,0.7-1.6,1.5-2.3,2.4c-0.1,0.1-0.2,0.2-0.3,0.3
		c-0.8,0.6-1.8,0.8-2.8,0.4l0,0c-0.9-0.4-2-0.2-2.7,0.4c-0.3,0.3-0.6,0.6-0.8,1.1l-0.6,1.4c-0.6,1.4,0.1,2.9,1.4,3.5l0,0
		c1.1,0.5,1.7,1.6,1.6,2.7c-0.2,1.4-0.2,2.8,0,4.2c0.1,1.2-0.6,2.3-1.7,2.7l0,0c-1.4,0.6-2,2.1-1.5,3.5l0.6,1.4
		c0.6,1.4,2.1,2,3.5,1.5l0,0c1.1-0.4,2.3-0.1,3.1,0.8c0.9,1.1,1.9,2.1,2.9,3c0.9,0.7,1.2,2,0.7,3.1l0,0c-0.6,1.4,0.1,2.9,1.4,3.5
		l1.4,0.6c1.4,0.6,2.9-0.1,3.5-1.4l0,0c0.5-1.1,1.6-1.7,2.7-1.6c1.4,0.2,2.8,0.2,4.2,0c1.2-0.1,2.3,0.6,2.7,1.7l0,0
		c0.6,1.4,2.1,2,3.5,1.5l1.4-0.6c1.4-0.6,2-2.1,1.5-3.5l0,0c-0.4-1.1-0.1-2.3,0.8-3.1c0.2-0.2,0.5-0.4,0.7-0.6l0,0
		c0.8-0.7,1.6-1.5,2.3-2.4c0.1-0.1,0.2-0.2,0.3-0.3c0.8-0.6,1.8-0.8,2.8-0.4l0,0c0.9,0.4,2,0.2,2.7-0.4c0.3-0.3,0.6-0.6,0.8-1.1
		l0.6-1.4C485.4,46.3,484.8,44.7,483.4,44.2z M466.3,47.2c-4.3,1.7-9.1-0.3-10.8-4.6c-1.7-4.3,0.3-9.1,4.6-10.8
		c4.3-1.7,9.1,0.3,10.8,4.6C472.5,40.5,470.5,45.4,466.3,47.2z"/>
	<path class="st1" d="M470.2,62.4c-1.5,0-2.8-0.9-3.4-2.3c-0.3-0.7-1-1.1-1.7-1c-1.5,0.2-2.9,0.1-4.4,0c-0.7-0.1-1.4,0.3-1.7,1
		c-0.8,1.9-2.9,2.7-4.8,1.9l-1.4-0.6c-1.9-0.8-2.7-2.9-1.9-4.8c0.3-0.7,0.1-1.5-0.5-1.9c-1.1-0.9-2.2-2-3.1-3.1
		c-0.4-0.6-1.2-0.8-1.9-0.5c-0.9,0.4-1.9,0.4-2.8,0s-1.6-1.1-2-2l-0.6-1.4c-0.8-1.9,0.1-4,2-4.8c0.7-0.3,1.1-1,1-1.7
		c-0.2-1.5-0.1-2.9,0-4.4c0.1-0.7-0.3-1.4-1-1.7c-1.9-0.8-2.7-2.9-1.9-4.8l0.6-1.4c0.2-0.6,0.6-1.1,1.1-1.4c1-0.8,2.5-1.1,3.7-0.5
		c0.6,0.2,1.3,0.1,1.7-0.3c0.1-0.1,0.1-0.1,0.2-0.2c0.7-0.9,1.6-1.7,2.4-2.5c0,0,0,0,0.1,0c0.2-0.2,0.4-0.4,0.7-0.6
		c0.6-0.4,0.8-1.2,0.5-1.9c-0.4-0.9-0.4-1.9,0-2.8s1.1-1.6,2-2l1.4-0.6c1.9-0.8,4,0.1,4.8,2c0.3,0.7,1,1.1,1.7,1
		c1.5-0.2,2.9-0.1,4.4,0c0.7,0.1,1.4-0.3,1.7-1c0.8-1.9,2.9-2.7,4.8-1.9l1.4,0.6c0.9,0.4,1.6,1.1,2,2s0.4,1.9,0,2.8
		c-0.3,0.7-0.1,1.5,0.5,1.9c1.1,0.9,2.2,2,3.1,3.1c0.4,0.6,1.2,0.8,1.9,0.5c0.9-0.4,1.9-0.4,2.8,0s1.6,1.1,2,2l0.6,1.4
		c0.8,1.9-0.1,4-2,4.8c-0.7,0.3-1.1,1-1,1.7c0.2,1.5,0.1,2.9,0,4.4c-0.1,0.7,0.3,1.4,1,1.7l-0.4,0.9l0.4-0.9
		c1.9,0.8,2.7,2.9,1.9,4.8l-0.6,1.4c-0.2,0.6-0.6,1.1-1.1,1.4c-1,0.8-2.5,1.1-3.7,0.5c-0.6-0.2-1.3-0.1-1.7,0.3
		c-0.1,0-0.1,0.1-0.2,0.2c-0.7,0.9-1.6,1.8-2.4,2.5c0,0,0,0-0.1,0c-0.2,0.2-0.4,0.4-0.7,0.6c-0.6,0.4-0.8,1.2-0.5,1.9
		c0.4,0.9,0.4,1.9,0,2.8s-1.1,1.6-2,2l-1.4,0.6C471,62.3,470.6,62.4,470.2,62.4z M465.3,57c1.5,0,2.8,0.9,3.4,2.3
		c0.2,0.4,0.5,0.7,0.9,0.9s0.9,0.2,1.3,0l1.4-0.6c0.4-0.2,0.7-0.5,0.9-0.9c0.2-0.4,0.2-0.9,0-1.3c-0.6-1.5-0.2-3.2,1.1-4.2
		c0.2-0.2,0.4-0.4,0.6-0.5c0,0,0,0,0.1,0c0.8-0.7,1.5-1.4,2.1-2.2c0.1-0.2,0.3-0.3,0.4-0.4c1-0.9,2.5-1.1,3.8-0.6
		c0.6,0.2,1.2,0.1,1.7-0.2c0.2-0.2,0.4-0.4,0.5-0.7l0.6-1.4c0.2-0.4,0.2-0.9,0-1.3c-0.2-0.4-0.5-0.7-0.9-0.9l0,0
		c-1.5-0.6-2.4-2.2-2.2-3.8c0.2-1.3,0.2-2.6,0-4c-0.2-1.6,0.8-3.1,2.3-3.7c0.4-0.2,0.7-0.5,0.9-0.9c0.2-0.4,0.2-0.9,0-1.3l-0.6-1.4
		c-0.2-0.4-0.5-0.7-0.9-0.9c-0.4-0.2-0.9-0.2-1.3,0c-1.5,0.6-3.2,0.2-4.2-1.1c-0.8-1-1.8-2-2.8-2.8c-1.2-1-1.7-2.8-1-4.3
		c0.4-0.8,0-1.8-0.9-2.2l-1.4-0.6c-0.4-0.2-0.9-0.2-1.3,0s-0.7,0.5-0.9,0.9c-0.6,1.5-2.2,2.4-3.8,2.2c-1.3-0.2-2.6-0.2-4,0
		c-1.6,0.2-3.1-0.8-3.7-2.3c-0.3-0.9-1.3-1.3-2.2-0.9l-1.4,0.6c-0.4,0.2-0.7,0.5-0.9,0.9c-0.2,0.4-0.2,0.9,0,1.3
		c0.6,1.5,0.2,3.2-1.1,4.2c-0.2,0.2-0.4,0.4-0.7,0.5c0,0,0,0-0.1,0c-0.8,0.7-1.5,1.4-2.1,2.2c-0.1,0.2-0.3,0.3-0.4,0.4
		c-1,0.9-2.5,1.1-3.8,0.6c-0.6-0.2-1.2-0.1-1.7,0.2c-0.2,0.2-0.4,0.4-0.5,0.7l-0.6,1.4c-0.4,0.8,0,1.8,0.9,2.2
		c1.5,0.6,2.4,2.2,2.2,3.8c-0.2,1.3-0.2,2.6,0,4c0.2,1.6-0.8,3.1-2.3,3.7c-0.4,0.2-0.7,0.5-0.9,0.9c-0.2,0.4-0.2,0.9,0,1.3l0.6,1.4
		c0.2,0.4,0.5,0.7,0.9,0.9s0.9,0.2,1.3,0c1.5-0.6,3.2-0.2,4.2,1.1c0.8,1,1.8,2,2.8,2.8c1.2,1,1.7,2.8,1,4.3c-0.2,0.4-0.2,0.9,0,1.3
		c0.2,0.4,0.5,0.7,0.9,0.9l1.4,0.6c0.8,0.4,1.8,0,2.2-0.9c0.6-1.5,2.2-2.4,3.8-2.2c1.3,0.2,2.6,0.2,4,0C465,57,465.2,57,465.3,57z
		 M463.2,48.8c-1.2,0-2.5-0.2-3.6-0.7c-2.3-1-4.1-2.8-5-5.1s-0.9-4.9,0.1-7.1s2.8-4.1,5.1-5c2.3-0.9,4.9-0.9,7.1,0.1
		c2.3,1,4.1,2.8,5,5.1s0.9,4.9-0.1,7.1c-1,2.3-2.8,4.1-5.1,5C465.5,48.5,464.4,48.8,463.2,48.8z M463.2,32.1c-0.9,0-1.9,0.2-2.8,0.5
		c-1.8,0.7-3.2,2.1-4,4c-0.8,1.8-0.8,3.8,0,5.6c1.5,3.8,5.8,5.6,9.5,4.1c1.8-0.7,3.2-2.1,4-4c0.8-1.8,0.8-3.8,0-5.6
		c-0.7-1.8-2.1-3.2-4-4C465.1,32.3,464.1,32.1,463.2,32.1z"/>
</g>
<g>
	<path class="st0" d="M223.2,159.3H94.9c-0.6,0-1-0.4-1-1s0.4-1,1-1h128.3c0.6,0,1,0.4,1,1C224.2,158.9,223.7,159.3,223.2,159.3z"/>
</g>
<g>
	<path class="st0" d="M923,78.2h-56.2c-0.6,0-1-0.4-1-1s0.4-1,1-1H923c0.6,0,1,0.4,1,1S923.6,78.2,923,78.2z"/>
</g>
<g>
	<path class="st0" d="M192.9,78.2h-56.2c-0.6,0-1-0.4-1-1s0.4-1,1-1h56.2c0.6,0,1,0.4,1,1S193.4,78.2,192.9,78.2z"/>
</g>
<g>
	<path class="st0" d="M979.6,169.7H866.9c-0.6,0-1-0.4-1-1s0.4-1,1-1h112.7c0.6,0,1,0.4,1,1C980.6,169.3,980.2,169.7,979.6,169.7z"
		/>
</g>
<g>
	<path class="st0" d="M933,215.5h-66.1c-0.6,0-1-0.4-1-1s0.4-1,1-1H933c0.6,0,1,0.4,1,1C933.9,215.1,933.5,215.5,933,215.5z"/>
</g>
<g>
	<path class="st0" d="M882.8,123.5h-16c-0.6,0-1-0.4-1-1s0.4-1,1-1h16c0.6,0,1,0.4,1,1S883.4,123.5,882.8,123.5z"/>
</g>
<g>
	<path class="st0" d="M1012.6,123.5h-107c-0.6,0-1-0.4-1-1s0.4-1,1-1h107c0.6,0,1,0.4,1,1S1013.2,123.5,1012.6,123.5z"/>
</g>
<g>
	<path class="st0" d="M233.8,210.2h-69.1c-0.6,0-1-0.4-1-1s0.4-1,1-1h69.1c0.6,0,1,0.4,1,1C234.8,209.8,234.4,210.2,233.8,210.2z"/>
</g>
<g>
	<path class="st0" d="M417.2,55.7H323c-0.6,0-1-0.4-1-1s0.4-1,1-1h94.2c0.6,0,1,0.4,1,1S417.8,55.7,417.2,55.7z"/>
</g>
<g>
	<path class="st0" d="M533.1,40.9h-29.4c-0.6,0-1-0.4-1-1s0.4-1,1-1h29.4c0.6,0,1,0.4,1,1S533.7,40.9,533.1,40.9z"/>
</g>
<g>
	<path class="st0" d="M464,235.7H266.7c-5.1,0-9.2-4.2-9.2-9.2V109.4c0-0.6,0.4-1,1-1s1,0.4,1,1v117.2c0,4,3.3,7.2,7.2,7.2h197.4
		c0.6,0,1,0.4,1,1C465.1,235.4,464.6,235.7,464,235.7z"/>
</g>
<g>
	<path class="st3" d="M395,163.7c-9.2-6.2-26.1-6.5-26.1-16.3c0-6.5,6.5-9.8,6.5-22.8v-3.3c0-13.1-9.8-16.3-16.4-16.3
		s-16.4,3.3-16.4,16.3v3.3c0,13.1,6.5,16.3,6.5,22.8c0,9.8-16.9,10.2-26.1,16.3c-2.1,1.4-3.3,3.3-3.3,6.5v9.8H398v-9.8
		C398.3,167,397,165.1,395,163.7z"/>
</g>
<g>
	<path class="st1" d="M398.3,181H320c-0.6,0-1-0.4-1-1v-9.8c0-3.3,1.2-5.7,3.7-7.3c3.4-2.3,7.6-3.7,11.8-5.2
		c7.4-2.6,13.8-4.8,13.8-10.3c0-2.5-1-4.5-2.3-6.9c-1.9-3.6-4.3-8-4.3-16v-3.3c0-12.8,9.3-17.3,17.4-17.3c8,0,17.4,4.6,17.4,17.3
		v3.3c0,7.9-2.4,12.4-4.2,16c-1.3,2.5-2.3,4.5-2.3,6.9c0,5.7,6.4,7.8,13.8,10.3c4.2,1.4,8.4,2.9,11.8,5.2c2.5,1.7,3.7,4.1,3.7,7.3
		v9.8C399.3,180.6,398.8,181,398.3,181z M320.9,179.1h76.3v-8.8c0-2.7-0.8-4.4-2.8-5.8c-3.2-2.1-7.3-3.6-11.4-5
		c-7.4-2.6-15.2-5.2-15.2-12.2c0-3,1.2-5.2,2.6-7.8c1.9-3.6,4-7.6,4-15v-3.3c0-14.6-12.8-15.3-15.4-15.3s-15.4,0.7-15.4,15.3v3.3
		c0,7.4,2.1,11.4,4,15c1.4,2.6,2.6,4.9,2.6,7.8c0,7-7.7,9.6-15.2,12.2c-4.1,1.4-8.2,2.8-11.4,5c-2,1.4-2.9,3.1-2.9,5.7v8.9
		L320.9,179.1L320.9,179.1z"/>
</g>
<g>
	<path class="st3" d="M664.9,268.9H466.5c-4.1,0-7.3-3.3-7.3-7.3v-4h213v4C672.3,265.6,669,268.9,664.9,268.9z"/>
	<path class="st1" d="M664.9,269.9H466.5c-4.6,0-8.3-3.7-8.3-8.3v-4c0-0.6,0.4-1,1-1h213c0.6,0,1,0.4,1,1v4
		C673.3,266.2,669.5,269.9,664.9,269.9z M460.1,258.6v3c0,3.5,2.9,6.4,6.4,6.4H665c3.5,0,6.4-2.9,6.4-6.4v-3H460.1z"/>
</g>
<g>
	<g>
		<path class="st0" d="M584.7,263.6h-42.6c-3.4,0-6.1-2.7-6.1-6.1l0,0h54.7l0,0C590.6,260.9,587.9,263.6,584.7,263.6z"/>
	</g>
	<g>
		<path class="st1" d="M584.7,264.6h-42.6c-3.9,0-7-3.2-7-7c0-0.6,0.4-1,1-1h54.7c0.6,0,1,0.4,1,1
			C591.6,261.5,588.5,264.6,584.7,264.6z M537,258.6c0.5,2.3,2.5,4.1,5,4.1h42.6c2.5,0,4.5-1.8,5-4.1H537z"/>
	</g>
</g>
<g>
	<path class="st0" d="M293.3,45.2L264.2,53l7.8-29.2c-2.5-0.7-5.2-1-7.8-1C247.5,22.9,234,36.4,234,53s13.5,30.2,30.2,30.2
		s30.2-13.5,30.2-30.2C294.3,50.3,293.9,47.7,293.3,45.2z"/>
</g>
<g>
	<g>
		<path class="st1" d="M264.2,84.2C247,84.2,233,70.2,233,53s14-31.2,31.2-31.2c2.7,0,5.5,0.4,8,1.1c0.3,0.1,0.5,0.2,0.6,0.5
			c0.1,0.2,0.2,0.5,0.1,0.8l-7.3,27.5l27.5-7.3c0.3-0.1,0.5,0,0.8,0.1c0.2,0.1,0.4,0.4,0.5,0.6c0.7,2.7,1.1,5.4,1.1,8
			C295.3,70.2,281.3,84.2,264.2,84.2z M264.2,23.8C248.1,23.8,235,36.9,235,53s13.1,29.2,29.2,29.2s29.2-13.1,29.2-29.2
			c0-2.2-0.3-4.5-0.8-6.5L264.4,54c-0.3,0.1-0.7,0-1-0.3s-0.4-0.6-0.3-1l7.5-28.2C268.6,24.1,266.3,23.8,264.2,23.8z"/>
	</g>
</g>
<g>
	<path class="st3" d="M283.9,8.3l-9.1,34.1l34.1-9.1C305.6,21.1,296.1,11.6,283.9,8.3z"/>
</g>
<g>
	<path class="st1" d="M274.8,43.3c-0.3,0-0.5-0.1-0.7-0.3c-0.3-0.3-0.4-0.6-0.3-1l9.1-34.1c0.1-0.5,0.7-0.9,1.2-0.7
		c12.5,3.4,22.3,13.2,25.7,25.7c0.1,0.5-0.2,1.1-0.7,1.2L275,43.2C275,43.3,274.9,43.3,274.8,43.3z M284.6,9.5L276.2,41l31.5-8.4
		C304.3,21.5,295.6,12.8,284.6,9.5z"/>
</g>
<g>
	<g>
		<path class="st3" d="M567.2,193.9h-68.8c-0.6,0-1-0.4-1-1s0.4-1,1-1h68.7c0.6,0,1,0.4,1,1C568.1,193.5,567.7,193.9,567.2,193.9z"
			/>
	</g>
	<g>
		<path class="st3" d="M559.3,206.7h-60.8c-0.6,0-1-0.4-1-1s0.4-1,1-1h60.8c0.6,0,1,0.4,1,1S559.9,206.7,559.3,206.7z"/>
	</g>
	<g>
		<path class="st3" d="M551.1,220.7h-52.6c-0.6,0-1-0.4-1-1s0.4-1,1-1h52.6c0.6,0,1,0.4,1,1S551.6,220.7,551.1,220.7z"/>
	</g>
	<g>
		<path class="st3" d="M567.9,234.6h-69.5c-0.6,0-1-0.4-1-1s0.4-1,1-1h69.5c0.6,0,1,0.4,1,1C568.9,234.2,568.5,234.6,567.9,234.6z"
			/>
	</g>
</g>
<g>
	<path class="st2" d="M634.5,234.7h-38.8c-1.1,0-2-0.9-2-2v-71.6c0-1.1,0.9-2,2-2h38.8c1.1,0,2,0.9,2,2v71.6
		C636.5,233.8,635.6,234.7,634.5,234.7z"/>
	<path class="st1" d="M634.5,235.7h-38.8c-1.7,0-3-1.3-3-3v-71.6c0-1.7,1.3-3,3-3h38.8c1.7,0,3,1.3,3,3v71.6
		C637.4,234.3,636.2,235.7,634.5,235.7z M595.7,160.1c-0.6,0-1,0.4-1,1v71.6c0,0.6,0.4,1,1,1h38.8c0.6,0,1-0.4,1-1v-71.6
		c0-0.6-0.4-1-1-1H595.7z"/>
</g>
<g>
	<g>
		<path class="st0" d="M581.3,180.4h-83.2c-1.1,0-2-0.9-2-2v-14.1c0-1.1,0.9-2,2-2h83.2c1.1,0,2,0.9,2,2v14.1
			C583.3,179.6,582.4,180.4,581.3,180.4z"/>
	</g>
	<g>
		<path class="st1" d="M581.3,181.4h-83.2c-1.7,0-3-1.3-3-3v-14.1c0-1.7,1.3-3,3-3h83.2c1.7,0,3,1.3,3,3v14.1
			C584.3,180,583,181.4,581.3,181.4z M498.1,163.4c-0.6,0-1,0.4-1,1v14.1c0,0.6,0.4,1,1,1h83.2c0.6,0,1-0.4,1-1v-14.1
			c0-0.6-0.4-1-1-1H498.1z"/>
	</g>
</g>
<g>

		<ellipse transform="matrix(0.7071 -0.7071 0.7071 0.7071 78.339 506.7532)" class="st3" cx="650.9" cy="158.8" rx="61.3" ry="61.3"/>
	<path class="st1" d="M650.9,221c-16,0-31.9-6.1-44.1-18.3l0,0c-24.3-24.3-24.3-63.8,0-88.1s63.8-24.3,88.1,0s24.3,63.8,0,88.1
		C682.8,215,666.9,221,650.9,221z M608.3,201.5c23.5,23.5,61.7,23.5,85.2,0s23.5-61.7,0-85.2s-61.7-23.5-85.2,0
		C584.8,139.7,584.8,178,608.3,201.5L608.3,201.5z"/>
</g>
<g>
	<path class="st1" d="M737.1,246c-0.3,0-0.5-0.1-0.7-0.3l-42.9-42.9c-0.4-0.4-0.4-1,0-1.4s1-0.4,1.4,0l42.9,42.9
		c0.4,0.4,0.4,1,0,1.4C737.7,245.9,737.4,246,737.1,246z"/>
</g>
<g>

		<ellipse transform="matrix(0.7071 -0.7071 0.7071 0.7071 78.339 506.7532)" class="st2" cx="650.9" cy="158.8" rx="46.4" ry="46.4"/>
	<path class="st1" d="M650.9,206.2c-12.1,0-24.3-4.7-33.5-13.9c-18.5-18.5-18.5-48.6,0-67.1s48.6-18.5,67.1,0s18.5,48.6,0,67.1
		C675.3,201.6,663,206.2,650.9,206.2z M650.9,113.4c-11.6,0-23.3,4.5-32.2,13.3c-17.8,17.8-17.8,46.5,0,64.3s46.5,17.8,64.3,0
		s17.8-46.5,0-64.3C674.2,117.8,662.6,113.4,650.9,113.4z"/>
</g>
<g>
	<g>
		<g>
			<path class="st0" d="M630.1,168.8l17-29.5c1.7-3,6-3,7.6,0l17,29.5c1.7,3-0.4,6.6-3.9,6.6h-34
				C630.5,175.5,628.4,171.8,630.1,168.8z"/>
		</g>
		<g>
			<path class="st1" d="M667.9,176.5h-34c-2,0-3.7-1-4.7-2.7s-1-3.7,0-5.5l0,0l17-29.5c1-1.7,2.8-2.7,4.7-2.7c2,0,3.7,1,4.7,2.7
				l17,29.5c1,1.7,1,3.7,0,5.5C671.5,175.6,669.9,176.5,667.9,176.5z M631,169.3c-0.6,1.1-0.6,2.4,0,3.5s1.7,1.7,3,1.7h34
				c1.2,0,2.4-0.6,3-1.7s0.6-2.4,0-3.5l-17-29.5c-0.6-1.1-1.7-1.7-3-1.7c-1.2,0-2.4,0.6-3,1.7L631,169.3z"/>
		</g>
	</g>
	<g>
		<g>
			<path class="st1" d="M650.9,161.9c-0.6,0-1-0.4-1-1v-15.6c0-0.6,0.4-1,1-1s1,0.4,1,1v15.6C651.9,161.5,651.4,161.9,650.9,161.9z"
				/>
		</g>
		<g>
			<circle class="st1" cx="650.9" cy="167.9" r="1.6"/>
		</g>
	</g>
</g>
<g>
	<g>
		<path class="st4" d="M359.1,105.9c-2.2,0-12.1,0.6-14.7,10.2c3.3-5.2,9.1-7.2,14.7-7.2s11.4,2,14.7,7.2
			C371.2,106.5,361.3,105.9,359.1,105.9z"/>
	</g>
</g>
<g>
	<g>
		<path class="st4" d="M323.8,164.5c-1.8,1.2-2.6,2.7-2.8,4.8c0.5-0.5,1-1,1.7-1.5l0,0c3.4-2.3,7.6-3.7,11.8-5.2
			c7.2-2.5,13.5-4.7,13.8-9.9c-2.7,3.2-7.8,5-13.2,6.7C331.1,161,327,162.4,323.8,164.5z"/>
	</g>
</g>
<g>
	<g>
		<path class="st4" d="M394.4,164.5c-3.2-2.1-7.3-3.6-11.4-5c-5.4-1.9-10.4-3.6-13.2-6.8c0.4,5.3,6.6,7.4,13.8,9.9
			c4.2,1.4,8.4,2.9,11.8,5.2c0.6,0.4,1.2,0.9,1.7,1.4C397,167.1,396.2,165.7,394.4,164.5z"/>
	</g>
</g>
<g>
	<g>
		<path class="st4" d="M482,32.1c0.8,0,1.5,0.2,2.1,0.7c0.2-0.4,0.2-0.8,0-1.2l-0.6-1.4c-0.3-0.9-1.3-1.3-2.2-0.9
			c-1.5,0.6-3.2,0.2-4.2-1.1c-0.5-0.7-1.1-1.3-1.8-1.9c0,0.2-0.1,0.4-0.2,0.6c-0.3,0.7-0.1,1.5,0.5,1.9c1.1,0.9,2.2,2,3.1,3.1
			c0.4,0.6,1.2,0.8,1.9,0.5C481.1,32.2,481.6,32.1,482,32.1z"/>
	</g>
	<g>
		<path class="st4" d="M447.5,31.9c0.1-0.1,0.1-0.1,0.2-0.2c0.7-0.9,1.6-1.8,2.4-2.5l0,0c0.2-0.2,0.4-0.4,0.7-0.6
			c0.6-0.4,0.8-1.2,0.5-1.9c-0.1-0.2-0.2-0.5-0.2-0.7c-0.7,0.6-1.3,1.3-1.9,2c-0.1,0.2-0.3,0.3-0.4,0.4c-1,0.9-2.5,1.1-3.8,0.6
			c-0.2-0.1-0.4-0.1-0.7-0.1c-0.4,0-0.7,0.1-1.1,0.4c-0.2,0.2-0.4,0.4-0.5,0.7l-0.6,1.4c-0.2,0.4-0.2,0.9,0,1.3
			c1-0.7,2.4-0.9,3.6-0.4C446.3,32.4,447,32.3,447.5,31.9z"/>
	</g>
	<g>
		<path class="st4" d="M471.9,21.5l1.2,0.5c0-0.3,0.1-0.6,0.3-0.9c0.4-0.8,0-1.8-0.9-2.2l-1.4-0.6c-0.8-0.4-1.8,0-2.2,0.9
			c-0.6,1.5-2.2,2.4-3.8,2.2c-1.3-0.2-2.6-0.2-4,0c-1.6,0.2-3.1-0.8-3.7-2.3c-0.2-0.4-0.5-0.7-0.9-0.9c-0.4-0.2-0.9-0.2-1.3,0
			l-1.4,0.6c-0.9,0.3-1.3,1.3-0.9,2.2c0.1,0.3,0.2,0.6,0.2,0.9l1.3-0.5c0.9-0.4,1.9-0.4,2.8,0s1.6,1.1,2,2c0.3,0.7,1,1.1,1.7,1
			s1.4-0.1,2.1-0.1c0.8,0,1.6,0,2.3,0.1c0.7,0.1,1.4-0.3,1.7-1C467.9,21.6,470.1,20.8,471.9,21.5z"/>
	</g>
</g>
<g>
	<path class="st0" d="M426.3,149c-8.1,2.8-17.3,1.8-24.6-2.7c-7.3,4.5-16.5,5.5-24.6,2.7c-2.2,5.4-3.3,11-3.3,16.8
		c0,18.2,11.2,34.5,28,41.1c16.8-6.5,27.9-22.9,27.9-41.1C429.6,159.9,428.5,154.2,426.3,149z"/>
</g>
<g>
	<path class="st1" d="M401.7,207.8c-0.1,0-0.2,0-0.4-0.1c-17.1-6.7-28.6-23.6-28.6-42c0-6,1.1-11.7,3.4-17.2
		c0.2-0.5,0.8-0.7,1.2-0.6c7.8,2.7,16.7,1.7,23.8-2.6c0.3-0.2,0.7-0.2,1,0c7,4.3,16,5.3,23.8,2.6c0.5-0.2,1,0.1,1.2,0.6
		c2.3,5.5,3.4,11.2,3.4,17.2c0,18.5-11.5,35.3-28.6,42C401.9,207.8,401.8,207.8,401.7,207.8z M377.6,150.2c-1.9,5-2.9,10.2-2.9,15.6
		c0,17.5,10.8,33.5,27,40c16.2-6.4,26.9-22.5,26.9-40c0-5.4-1-10.6-2.9-15.6c-7.9,2.4-16.9,1.4-24-2.8
		C394.4,151.6,385.5,152.6,377.6,150.2z"/>
</g>
<g>
	<g>
		<g>
			<polyline class="st0" points="387.9,174.8 396.8,183.6 415.4,165.1 			"/>
		</g>
		<g>
			<path class="st1" d="M396.8,184.6c-0.3,0-0.5-0.1-0.7-0.3l-8.8-8.8c-0.4-0.4-0.4-1,0-1.4s1-0.4,1.4,0l8.1,8.1l17.9-17.9
				c0.4-0.4,1-0.4,1.4,0s0.4,1,0,1.4l-18.6,18.6C397.3,184.5,397,184.6,396.8,184.6z"/>
		</g>
	</g>
</g>
<g>
	<path class="st4" d="M608.3,116.1c-5.9,5.9-10.3,12.7-13.3,20.2c3-6.2,6.9-11.7,11.9-16.7c12.1-12.1,28.1-18.3,44.1-18.3
		s31.9,6.1,44.1,18.3c5,5,8.9,10.5,11.9,16.7c-3-7.5-7.5-14.4-13.3-20.2C670.1,92.6,631.8,92.6,608.3,116.1z"/>
</g>
<g>
	<g>
		<g>
			<path class="st5" d="M265.5,56.6l27.5-7.3l0,0c-0.1-0.9-0.3-1.9-0.5-2.8l-26.2,7L265.5,56.6z"/>
		</g>
	</g>
</g>
<g>
	<g>
		<g>
			<path class="st5" d="M264.2,26.7c1.9,0,3.9,0.2,5.9,0.6l0.8-2.8c-2.2-0.5-4.4-0.8-6.5-0.8c-12.8,0-23.7,8.3-27.7,19.8
				C241.7,33.6,252.2,26.7,264.2,26.7z"/>
		</g>
	</g>
</g>
<g>
	<g>
		<path class="st4" d="M284.6,9.5l-0.7,2.8l0,0c0.1,0,0.2,0,0.3,0c9.8,2.7,18.3,9.4,22.9,18.5C303.4,20.6,295,12.7,284.6,9.5z"/>
	</g>
</g>
<g>
	<g>
		<g>
			<path class="st5" d="M401.7,147.4c-7.2,4.2-16.1,5.2-24,2.8c-0.4,0.9-0.7,1.9-1,2.9c0.2-0.1,0.5-0.1,0.7,0
				c7.8,2.7,16.7,1.7,23.8-2.6c0.2-0.1,0.3-0.1,0.5-0.1s0.4,0,0.5,0.1c7,4.3,16,5.3,23.8,2.6c0.3-0.1,0.5-0.1,0.7,0
				c-0.3-1-0.6-1.9-1-2.9C417.8,152.6,408.8,151.6,401.7,147.4z"/>
		</g>
	</g>
</g>
</svg>
