<?xml version="1.0" encoding="utf-8"?>
<!-- Generator: Adobe Illustrator 21.0.0, SVG Export Plug-In . SVG Version: 6.00 Build 0)  -->
<svg version="1.1" id="Layer_1" xmlns="http://www.w3.org/2000/svg" xmlns:xlink="http://www.w3.org/1999/xlink" x="0px" y="0px"
	 viewBox="0 0 120 120" style="enable-background:new 0 0 120 120;" xml:space="preserve">
<style type="text/css">
	.st0{fill:#E0F0FF;}
	.st1{fill:#2E9AFE;}
	.st2{fill:#82C2FE;}
	.st3{opacity:0.7;}
	.st4{fill:#FFFFFF;}
</style>
<g>
	<g>
		<line class="st0" x1="46.2" y1="94.6" x2="86.6" y2="94.6"/>
		<path class="st1" d="M86.6,95.6H46.2c-0.6,0-1-0.4-1-1s0.4-1,1-1h40.4c0.6,0,1,0.4,1,1S87.2,95.6,86.6,95.6z"/>
	</g>
	<g>
		<g>
			<rect x="53.2" y="82.9" class="st2" width="26.5" height="11.8"/>
		</g>
		<g>
			<path class="st1" d="M80.7,95.6H52.1V81.9h28.5V95.6z M54.1,93.6h24.5v-9.8H54.1V93.6z"/>
		</g>
	</g>
	<g>
		<path class="st0" d="M105,82.9H27.8c-2.8,0-5-2.2-5-5V17.1c0-2.8,2.2-5,5-5H105c2.8,0,5,2.2,5,5v60.7
			C110,80.6,107.8,82.9,105,82.9z"/>
		<path class="st1" d="M105,83.9H27.8c-3.3,0-6-2.7-6-6V17.1c0-3.3,2.7-6,6-6H105c3.3,0,6,2.7,6,6v60.7
			C111,81.2,108.3,83.9,105,83.9z M27.8,13.1c-2.2,0-4,1.8-4,4v60.7c0,2.2,1.8,4,4,4H105c2.2,0,4-1.8,4-4V17.1c0-2.2-1.8-4-4-4H27.8
			z"/>
	</g>
	<g>
		<g>
			<path class="st2" d="M105,82.9H27.8c-2.8,0-5-2.2-5-5v-6.3H110v6.3C110,80.6,107.8,82.9,105,82.9z"/>
		</g>
		<g>
			<path class="st1" d="M105,83.9H27.8c-3.3,0-6-2.7-6-6v-7.3H111v7.3C111,81.2,108.3,83.9,105,83.9z M23.8,72.5v5.3
				c0,2.2,1.8,4,4,4H105c2.2,0,4-1.8,4-4v-5.3H23.8z"/>
		</g>
	</g>
	<g class="st3">
		<g>
			<path class="st4" d="M105.3,13.1H27.5c-1.4,0-3.6,1.7-3.6,3.1v4.6c0.7-0.5,1.6-0.9,2.6-0.9h79.9c1,0,1.9,0.3,2.6,0.9v-4.6
				C109,14.8,106.7,13.1,105.3,13.1z"/>
		</g>
	</g>
	<g>
		<g>
			<path class="st0" d="M47,42.4H10v64.5h50.9V56.3C55.5,50.9,52.4,47.9,47,42.4z"/>
			<path class="st1" d="M60.9,107.9H10c-0.6,0-1-0.4-1-1V42.4c0-0.6,0.4-1,1-1h37c0.3,0,0.5,0.1,0.7,0.3l13.9,13.9
				c0.2,0.2,0.3,0.4,0.3,0.7v50.6C61.9,107.5,61.5,107.9,60.9,107.9z M11,105.9h48.9V56.7L46.6,43.4H11V105.9z"/>
		</g>
		<g>
			<line class="st0" x1="19.5" y1="55.6" x2="37.2" y2="55.6"/>
			<path class="st1" d="M37.2,56.6H19.5c-0.6,0-1-0.4-1-1s0.4-1,1-1h17.8c0.6,0,1,0.4,1,1S37.8,56.6,37.2,56.6z"/>
		</g>
		<g>
			<line class="st0" x1="34.2" y1="68.4" x2="51.5" y2="68.4"/>
			<path class="st1" d="M51.5,69.4H34.2c-0.6,0-1-0.4-1-1s0.4-1,1-1h17.2c0.6,0,1,0.4,1,1S52,69.4,51.5,69.4z"/>
		</g>
		<g>
			<line class="st0" x1="34.2" y1="81.2" x2="51.5" y2="81.2"/>
			<path class="st1" d="M51.5,82.2H34.2c-0.6,0-1-0.4-1-1s0.4-1,1-1h17.2c0.6,0,1,0.4,1,1S52,82.2,51.5,82.2z"/>
		</g>
		<g>
			<line class="st0" x1="34.2" y1="94" x2="51.5" y2="94"/>
			<path class="st1" d="M51.5,95H34.2c-0.6,0-1-0.4-1-1s0.4-1,1-1h17.2c0.6,0,1,0.4,1,1S52,95,51.5,95z"/>
		</g>
		<g>
			<polyline class="st0" points="18.7,67.9 21.5,70.8 26.2,66.1 			"/>
			<path class="st1" d="M21.5,71.8c-0.3,0-0.5-0.1-0.7-0.3L18,68.6c-0.4-0.4-0.4-1,0-1.4s1-0.4,1.4,0l2.1,2.1l3.9-3.9
				c0.4-0.4,1-0.4,1.4,0s0.4,1,0,1.4l-4.7,4.7C22,71.7,21.8,71.8,21.5,71.8z"/>
		</g>
		<g>
			<polyline class="st0" points="18.7,80.7 21.5,83.6 26.2,78.9 			"/>
			<path class="st1" d="M21.5,84.6c-0.3,0-0.5-0.1-0.7-0.3L18,81.4c-0.4-0.4-0.4-1,0-1.4s1-0.4,1.4,0l2.1,2.1l3.9-3.9
				c0.4-0.4,1-0.4,1.4,0s0.4,1,0,1.4l-4.7,4.7C22,84.5,21.8,84.6,21.5,84.6z"/>
		</g>
		<g>
			<polyline class="st0" points="18.7,93.5 21.5,96.4 26.2,91.7 			"/>
			<path class="st1" d="M21.5,97.4c-0.3,0-0.5-0.1-0.7-0.3L18,94.2c-0.4-0.4-0.4-1,0-1.4s1-0.4,1.4,0l2.1,2.1l3.9-3.9
				c0.4-0.4,1-0.4,1.4,0s0.4,1,0,1.4l-4.7,4.7C22,97.3,21.8,97.4,21.5,97.4z"/>
		</g>
		<g class="st3">
			<g>
				<polyline class="st4" points="46.4,43.5 46.4,56.5 59.6,56.5 				"/>
			</g>
		</g>
		<g>
			<path class="st1" d="M60,57.5H46.4c-0.6,0-1-0.4-1-1V43.2c0-0.6,0.4-1,1-1s1,0.4,1,1v12.4H60c0.6,0,1,0.4,1,1S60.5,57.5,60,57.5z
				"/>
		</g>
	</g>
</g>
</svg>
