<?xml version="1.0" encoding="utf-8"?>
<!-- Generator: Adobe Illustrator 21.0.0, SVG Export Plug-In . SVG Version: 6.00 Build 0)  -->
<svg version="1.1" id="Layer_1" xmlns="http://www.w3.org/2000/svg" xmlns:xlink="http://www.w3.org/1999/xlink" x="0px" y="0px"
	 viewBox="0 0 120 120" style="enable-background:new 0 0 120 120;" xml:space="preserve">
<style type="text/css">
	.st0{fill:#E0F0FF;}
	.st1{fill:#2E9AFE;}
	.st2{fill:#82C2FE;}
	.st3{opacity:0.5;}
	.st4{fill:#FFFFFF;}
</style>
<g>
	<g>
		<g>
			<polygon class="st0" points="26.2,78.7 26.2,59.6 26.2,40.6 26.2,23.2 94.3,23.2 94.3,40.6 94.3,59.6 94.3,78.7 94.3,96 26.2,96 
							"/>
		</g>
		<g>
			<path class="st1" d="M94.3,97H26.2c-0.6,0-1-0.4-1-1V23.2c0-0.6,0.4-1,1-1h68.2c0.6,0,1,0.4,1,1V96C95.3,96.6,94.9,97,94.3,97z
				 M27.2,95h66.2V24.2H27.2V95z"/>
		</g>
	</g>
	<g>
		<path class="st2" d="M51.9,70.2V49l16.6,10.6L51.9,70.2z"/>
		<path class="st1" d="M51.9,71.2c-0.2,0-0.3,0-0.5-0.1c-0.3-0.2-0.5-0.5-0.5-0.9V49c0-0.4,0.2-0.7,0.5-0.9c0.3-0.2,0.7-0.2,1,0
			l16.6,10.6c0.3,0.2,0.5,0.5,0.5,0.8s-0.2,0.7-0.5,0.8L52.5,71.1C52.3,71.2,52.1,71.2,51.9,71.2z M52.9,50.9v17.5l13.8-8.8
			L52.9,50.9z"/>
	</g>
	<g>
		<path class="st1" d="M26.2,42.4H10.3c-0.6,0-1-0.4-1-1V27.7c0-3,2.4-5.4,5.4-5.4h11.5c0.6,0,1,0.4,1,1v18.2
			C27.2,42,26.7,42.4,26.2,42.4z M11.3,40.4h13.9V24.2H14.7c-1.9,0-3.4,1.5-3.4,3.4V40.4z"/>
	</g>
	<g>
		<path class="st1" d="M26.2,60.6H10.3c-0.6,0-1-0.4-1-1V41.4c0-0.6,0.4-1,1-1h15.9c0.6,0,1,0.4,1,1v18.2
			C27.2,60.2,26.7,60.6,26.2,60.6z M11.3,58.6h13.9V42.4H11.3V58.6z"/>
	</g>
	<g>
		<path class="st1" d="M26.2,78.8H10.3c-0.6,0-1-0.4-1-1V59.6c0-0.6,0.4-1,1-1h15.9c0.6,0,1,0.4,1,1v18.2
			C27.2,78.4,26.7,78.8,26.2,78.8z M11.3,76.8h13.9V60.6H11.3V76.8z"/>
	</g>
	<g>
		<path class="st1" d="M26.2,97H14.7c-3,0-5.4-2.4-5.4-5.4V77.8c0-0.6,0.4-1,1-1h15.9c0.6,0,1,0.4,1,1V96C27.2,96.6,26.7,97,26.2,97
			z M11.3,78.8v12.8c0,1.9,1.5,3.4,3.4,3.4h10.5V78.8H11.3z"/>
	</g>
	<g>
		<path class="st1" d="M110.3,42.4H94.3c-0.6,0-1-0.4-1-1V23.2c0-0.6,0.4-1,1-1h11.5c3,0,5.4,2.4,5.4,5.4v13.8
			C111.3,42,110.8,42.4,110.3,42.4z M95.3,40.4h13.9V27.7c0-1.9-1.5-3.4-3.4-3.4H95.3V40.4z"/>
	</g>
	<g>
		<path class="st1" d="M110.3,60.6H94.3c-0.6,0-1-0.4-1-1V41.4c0-0.6,0.4-1,1-1h15.9c0.6,0,1,0.4,1,1v18.2
			C111.3,60.2,110.8,60.6,110.3,60.6z M95.3,58.6h13.9V42.4H95.3V58.6z"/>
	</g>
	<g>
		<path class="st1" d="M110.3,78.8H94.3c-0.6,0-1-0.4-1-1V59.6c0-0.6,0.4-1,1-1h15.9c0.6,0,1,0.4,1,1v18.2
			C111.3,78.4,110.8,78.8,110.3,78.8z M95.3,76.8h13.9V60.6H95.3V76.8z"/>
	</g>
	<g>
		<path class="st1" d="M105.8,97H94.3c-0.6,0-1-0.4-1-1V77.8c0-0.6,0.4-1,1-1h15.9c0.6,0,1,0.4,1,1v13.8
			C111.3,94.6,108.8,97,105.8,97z M95.3,95h10.5c1.9,0,3.4-1.5,3.4-3.4V78.8H95.3V95z"/>
	</g>
	<g class="st3">
		<g>
			<rect x="27.3" y="24.1" class="st4" width="66" height="5.6"/>
		</g>
	</g>
</g>
</svg>
