<?xml version="1.0" encoding="utf-8"?>
<!-- Generator: Adobe Illustrator 21.0.0, SVG Export Plug-In . SVG Version: 6.00 Build 0)  -->
<svg version="1.1" id="Layer_1" xmlns="http://www.w3.org/2000/svg" xmlns:xlink="http://www.w3.org/1999/xlink" x="0px" y="0px"
	 viewBox="0 0 120 120" style="enable-background:new 0 0 120 120;" xml:space="preserve">
<style type="text/css">
	.st0{fill:#82C2FE;}
	.st1{fill:#2E9AFE;}
	.st2{fill:#E0F0FF;}
	.st3{opacity:0.7;}
	.st4{fill:#FFFFFF;}
	.st5{opacity:0.3;}
</style>
<g>
	<g>
		<g>
			<g>
				<path class="st0" d="M107.4,59.5L107.4,59.5c-1.9-0.8-3-2.7-2.8-4.7c0.3-2.4,0.3-4.8,0.1-7.2c-0.2-2,1-3.9,2.9-4.7l0,0
					c2.4-1,3.5-3.6,2.5-6l-1-2.4c-1-2.4-3.6-3.5-6-2.5l0,0c-1.9,0.8-4,0.2-5.3-1.4c-1.5-1.9-3.2-3.6-5.1-5.1
					c-1.6-1.3-2.1-3.5-1.3-5.3l0,0c1-2.3-0.1-5-2.4-6l-2.4-1c-2.3-1-5,0.1-6,2.4l0,0c-0.8,1.9-2.7,3-4.7,2.8
					c-2.4-0.3-4.8-0.3-7.2-0.1c-2,0.2-3.9-1-4.7-2.9l0,0c-1-2.4-3.6-3.5-6-2.5l-2.4,1c-2.4,1-3.5,3.6-2.5,6l0,0
					c0.8,1.9,0.2,4-1.4,5.3c-0.4,0.3-0.8,0.6-1.2,1l0,0c-1.5,1.3-2.8,2.6-4,4.1c-0.2,0.2-0.3,0.4-0.5,0.5c-1.3,1.1-3.1,1.4-4.8,0.7
					l0,0c-1.6-0.7-3.4-0.4-4.7,0.7c-0.6,0.5-1.1,1.1-1.4,1.8l-1,2.4c-1,2.3,0.1,5,2.4,6l0,0c1.9,0.8,3,2.7,2.8,4.7
					c-0.3,2.4-0.3,4.8-0.1,7.2c0.2,2-1,3.9-2.9,4.7l0,0c-2.4,1-3.5,3.6-2.5,6l1,2.4c1,2.4,3.6,3.5,6,2.5l0,0c1.9-0.8,4-0.2,5.3,1.4
					c1.5,1.9,3.2,3.6,5.1,5.1c1.6,1.3,2.1,3.5,1.3,5.3l0,0c-1,2.3,0.1,5,2.4,6l2.4,1c2.3,1,5-0.1,6-2.4l0,0c0.8-1.9,2.7-3,4.7-2.8
					c2.4,0.3,4.8,0.3,7.2,0.1c2-0.2,3.9,1,4.7,2.9l0,0c1,2.4,3.6,3.5,6,2.5l2.4-1c2.4-1,3.5-3.6,2.5-6l0,0c-0.8-1.9-0.2-4,1.4-5.3
					c0.4-0.3,0.8-0.6,1.2-1l0,0c1.5-1.3,2.8-2.6,4-4.1c0.2-0.2,0.3-0.4,0.5-0.5c1.3-1.1,3.1-1.4,4.8-0.7l0,0
					c1.6,0.7,3.4,0.4,4.7-0.7c0.6-0.5,1.1-1.1,1.4-1.8l1-2.4C110.8,63.2,109.8,60.5,107.4,59.5z M80.1,70.8
					c-10.8,4.4-23-0.8-27.4-11.6s0.8-23,11.6-27.4c10.8-4.4,23,0.8,27.4,11.6C96.1,54.2,90.9,66.5,80.1,70.8z"/>
			</g>
		</g>
		<g>
			<g>
				<path class="st1" d="M84.3,90.3c-0.7,0-1.5-0.1-2.2-0.4c-1.4-0.6-2.4-1.7-3-3.1c-0.6-1.5-2.1-2.4-3.6-2.2
					c-2.5,0.3-5,0.2-7.4-0.1c-1.5-0.2-3.1,0.7-3.7,2.2c-1.2,2.8-4.5,4.2-7.3,3l-2.4-1c-1.4-0.6-2.4-1.7-3-3.1
					c-0.6-1.4-0.5-2.9,0-4.3c0.6-1.5,0.2-3.2-1-4.1c-1.9-1.6-3.7-3.3-5.2-5.3c-1-1.2-2.7-1.6-4.1-1c-2.9,1.2-6.1-0.2-7.3-3.1l-1-2.4
					c-0.6-1.4-0.6-2.9,0-4.3c0.6-1.4,1.7-2.4,3.1-3c1.5-0.6,2.4-2.1,2.2-3.6c-0.3-2.5-0.2-5,0.1-7.4c0.2-1.5-0.7-3.1-2.2-3.7
					c-2.8-1.2-4.2-4.5-3-7.3l1-2.4c0.4-0.9,0.9-1.6,1.7-2.2c1.6-1.3,3.8-1.6,5.7-0.8c1.2,0.5,2.7,0.3,3.7-0.6
					c0.1-0.1,0.3-0.3,0.4-0.4c1.2-1.5,2.6-3,4.1-4.2l0.6-0.5l0,0c0.2-0.2,0.4-0.4,0.7-0.5c1.2-1,1.6-2.7,1-4.1
					c-1.2-2.9,0.2-6.1,3.1-7.3l2.4-1c2.9-1.2,6.1,0.2,7.3,3.1c0.6,1.5,2.1,2.4,3.6,2.2c2.5-0.3,5-0.2,7.4,0.1
					c1.5,0.2,3.1-0.7,3.7-2.2c1.2-2.8,4.5-4.2,7.3-3l2.4,1c2.8,1.2,4.2,4.5,3,7.3c-0.6,1.5-0.2,3.2,1,4.1c1.9,1.6,3.7,3.3,5.2,5.3
					c1,1.2,2.7,1.6,4.1,1c2.9-1.2,6.1,0.2,7.3,3.1l1,2.4c1.2,2.9-0.2,6.1-3.1,7.3c-1.5,0.6-2.4,2.1-2.2,3.6c0.3,2.5,0.2,5-0.1,7.4
					c-0.2,1.5,0.7,3.1,2.2,3.7l-0.4,0.9l0.4-0.9c1.4,0.6,2.4,1.7,3,3.1c0.6,1.4,0.6,2.9,0,4.3l-1,2.4c-0.4,0.9-0.9,1.6-1.7,2.2
					c-1.6,1.3-3.8,1.6-5.7,0.8c-1.3-0.5-2.7-0.3-3.7,0.6c-0.1,0.1-0.3,0.3-0.4,0.4c-1.2,1.5-2.6,3-4.1,4.2L93.6,77l0,0
					c-0.2,0.2-0.4,0.4-0.7,0.5c-1.2,1-1.6,2.7-1,4.1c1.2,2.9-0.2,6.1-3.1,7.3l-2.4,1C85.8,90.2,85,90.3,84.3,90.3z M75.9,82.6
					c2.2,0,4.3,1.4,5.1,3.5c0.7,1.8,2.8,2.7,4.7,2l2.4-1c1.8-0.7,2.7-2.8,2-4.7c-0.9-2.3-0.2-4.9,1.7-6.4c0.4-0.3,0.8-0.6,1.1-0.9
					l0.4-0.4c1.2-1.1,2.4-2.3,3.4-3.6c0.2-0.2,0.4-0.5,0.6-0.7c1.6-1.4,3.9-1.7,5.8-0.9c1.2,0.5,2.6,0.3,3.7-0.5
					c0.5-0.4,0.9-0.9,1.1-1.4l1-2.4c0.4-0.9,0.4-1.9,0-2.8c-0.4-0.9-1-1.6-1.9-2h0c-2.3-1-3.7-3.3-3.4-5.8c0.3-2.3,0.3-4.7,0.1-7
					c-0.3-2.4,1.2-4.8,3.5-5.7c0.9-0.4,1.6-1,2-1.9s0.4-1.9,0-2.8l-1-2.4c-0.7-1.8-2.8-2.7-4.7-2c-2.3,0.9-4.9,0.2-6.4-1.7
					c-1.4-1.8-3.1-3.5-4.9-5c-1.9-1.5-2.5-4.2-1.6-6.5c0.8-1.8-0.1-3.9-1.9-4.7l-2.4-1c-1.8-0.8-3.9,0.1-4.7,1.9
					c-1,2.3-3.3,3.7-5.8,3.4c-2.3-0.3-4.7-0.3-7-0.1c-2.4,0.3-4.8-1.2-5.7-3.5c-0.7-1.8-2.8-2.7-4.7-2l-2.4,1
					c-1.8,0.7-2.7,2.8-2,4.7c0.9,2.3,0.2,4.9-1.7,6.4c-0.4,0.3-0.8,0.6-1.1,0.9l-0.4,0.4c-1.2,1.1-2.4,2.3-3.4,3.6
					c-0.2,0.2-0.4,0.5-0.6,0.7c-1.6,1.4-3.9,1.7-5.8,0.9c-1.2-0.5-2.6-0.3-3.7,0.5c-0.5,0.4-0.9,0.9-1.1,1.4l-1,2.4
					c-0.8,1.8,0.1,3.9,1.9,4.7c2.3,1,3.7,3.3,3.4,5.8c-0.3,2.3-0.3,4.7-0.1,7c0.3,2.4-1.2,4.8-3.5,5.7c-0.9,0.4-1.6,1-2,1.9
					s-0.4,1.9,0,2.8l1,2.4c0.7,1.8,2.8,2.7,4.7,2c2.3-0.9,4.9-0.2,6.4,1.7c1.4,1.8,3.1,3.5,4.9,5c1.9,1.5,2.5,4.2,1.6,6.5
					c-0.4,0.9-0.4,1.9,0,2.8c0.4,0.9,1,1.6,1.9,2l2.4,1c1.8,0.8,3.9-0.1,4.7-1.9c1-2.3,3.3-3.7,5.8-3.4c2.3,0.3,4.7,0.3,7,0.1
					C75.5,82.6,75.7,82.6,75.9,82.6z M72.2,73.4c-8.7,0-17-5.2-20.5-13.8c-4.6-11.3,0.9-24.1,12.1-28.7c11.3-4.6,24.1,0.9,28.7,12.1
					c2.2,5.5,2.2,11.4-0.1,16.9c-2.3,5.4-6.6,9.6-12,11.8l0,0C77.8,72.9,75,73.4,72.2,73.4z M72.2,31.3c-2.5,0-5,0.5-7.5,1.5
					c-10.2,4.1-15.2,15.9-11,26.1c4.2,10.2,15.9,15.2,26.1,11l0,0c5-2,8.8-5.8,10.9-10.8c2.1-4.9,2.1-10.4,0.1-15.3
					C87.6,36,80.1,31.3,72.2,31.3z"/>
			</g>
		</g>
	</g>
	<g>
		<line class="st2" x1="28" y1="107" x2="58.4" y2="107"/>
		<path class="st1" d="M58.4,108H28c-0.6,0-1-0.4-1-1s0.4-1,1-1h30.3c0.6,0,1,0.4,1,1S58.9,108,58.4,108z"/>
	</g>
	<g>
		<rect x="33.2" y="98.1" class="st2" width="19.9" height="8.9"/>
		<path class="st1" d="M53.2,108H33.2c-0.6,0-1-0.4-1-1v-8.9c0-0.6,0.4-1,1-1h19.9c0.6,0,1,0.4,1,1v8.9
			C54.2,107.5,53.7,108,53.2,108z M34.2,106h17.9v-6.9H34.2V106z"/>
	</g>
	<g>
		<path class="st2" d="M71,98.1H15.4c-2.8,0-5-2.2-5-5V49.9c0-2.8,2.2-5,5-5H71c2.8,0,5,2.2,5,5v43.2C76,95.9,73.7,98.1,71,98.1z"/>
		<path class="st1" d="M71,99.1H15.4c-3.3,0-6-2.7-6-6V49.9c0-3.3,2.7-6,6-6H71c3.3,0,6,2.7,6,6v43.2C77,96.4,74.3,99.1,71,99.1z
			 M15.4,45.9c-2.2,0-4,1.8-4,4v43.2c0,2.2,1.8,4,4,4H71c2.2,0,4-1.8,4-4V49.9c0-2.2-1.8-4-4-4H15.4z"/>
	</g>
	<g>
		<line class="st2" x1="10.4" y1="89.7" x2="76" y2="89.7"/>
		<path class="st1" d="M76,90.7H10.4c-0.6,0-1-0.4-1-1s0.4-1,1-1H76c0.6,0,1,0.4,1,1S76.5,90.7,76,90.7z"/>
	</g>
	<g>
		<g>
			<polygon class="st1" points="48.5,81.1 35.9,68.3 21.3,80.9 20,79.4 36,65.6 48.5,78.2 65.5,59.4 66.9,60.8 			"/>
		</g>
		<g>
			<circle class="st0" cx="65.8" cy="60.4" r="3.9"/>
			<path class="st1" d="M65.8,65.3c-2.7,0-4.9-2.2-4.9-4.9s2.2-4.9,4.9-4.9s4.9,2.2,4.9,4.9S68.5,65.3,65.8,65.3z M65.8,57.5
				c-1.6,0-2.9,1.3-2.9,2.9s1.3,2.9,2.9,2.9s2.9-1.3,2.9-2.9S67.4,57.5,65.8,57.5z"/>
		</g>
		<g>
			<circle class="st0" cx="48.6" cy="79.5" r="3.9"/>
			<path class="st1" d="M48.6,84.4c-2.7,0-4.9-2.2-4.9-4.9s2.2-4.9,4.9-4.9s4.9,2.2,4.9,4.9S51.3,84.4,48.6,84.4z M48.6,76.6
				c-1.6,0-2.9,1.3-2.9,2.9c0,1.6,1.3,2.9,2.9,2.9c1.6,0,2.9-1.3,2.9-2.9C51.5,77.9,50.2,76.6,48.6,76.6z"/>
		</g>
		<g>
			<circle class="st0" cx="36.1" cy="67.7" r="3.9"/>
			<path class="st1" d="M36.1,72.6c-2.7,0-4.9-2.2-4.9-4.9s2.2-4.9,4.9-4.9s4.9,2.2,4.9,4.9S38.8,72.6,36.1,72.6z M36.1,64.8
				c-1.6,0-2.9,1.3-2.9,2.9s1.3,2.9,2.9,2.9s2.9-1.3,2.9-2.9S37.7,64.8,36.1,64.8z"/>
		</g>
		<g>
			<circle class="st0" cx="20.1" cy="80.7" r="3.9"/>
			<path class="st1" d="M20.1,85.6c-2.7,0-4.9-2.2-4.9-4.9s2.2-4.9,4.9-4.9S25,78,25,80.7S22.8,85.6,20.1,85.6z M20.1,77.8
				c-1.6,0-2.9,1.3-2.9,2.9s1.3,2.9,2.9,2.9s2.9-1.3,2.9-2.9S21.7,77.8,20.1,77.8z"/>
		</g>
	</g>
	<g class="st3">
		<g>
			<path class="st4" d="M71.9,45.8H14.5c-1.6,0-2.8,1.3-2.8,2.8v3c0.5-0.4,1.2-0.7,1.9-0.7h59.1c0.7,0,1.4,0.3,1.9,0.7v-3
				C74.7,47.1,73.4,45.8,71.9,45.8z"/>
		</g>
	</g>
	<g class="st5">
		<g>
			<path class="st2" d="M109.1,38.4c0-0.4-0.1-0.8-0.2-1.2l-1-2.4c-0.5-1.3-1.7-2.1-3.1-2.1c-0.4,0-0.8,0.1-1.2,0.2
				c-0.7,0.3-1.5,0.4-2.2,0.4c-1.8,0-3.5-0.8-4.6-2.2c-1.2-1.6-2.6-3-4.1-4.3c0,0,0,0,0,0l0,0c-0.6,1.3-0.2,2.9,0.9,3.8
				c1.9,1.6,3.7,3.4,5.3,5.3c0.6,0.8,1.5,1.2,2.5,1.2c0.4,0,0.9-0.1,1.3-0.2c0.7-0.3,1.5-0.4,2.2-0.4
				C106.5,36.6,108,37.3,109.1,38.4z"/>
		</g>
	</g>
	<g class="st5">
		<g>
			<path class="st2" d="M45.6,35.7c1.3-1.5,2.6-3,4.1-4.3l0.7-0.6l0,0c0.2-0.1,0.3-0.3,0.5-0.4c1.1-0.9,1.5-2.4,1-3.8
				c0,0,0-0.1,0-0.1c-0.2,0.1-0.3,0.3-0.5,0.4L51,27.3c-1.2,1.1-2.4,2.3-3.4,3.6c-0.2,0.2-0.4,0.5-0.7,0.7c-1.7,1.4-4.1,1.8-6.1,0.9
				l0,0c-0.4-0.2-0.8-0.3-1.3-0.3c-0.8,0-1.5,0.3-2.1,0.7c-0.4,0.4-0.8,0.8-1,1.3l-1,2.4c-0.2,0.4-0.3,0.9-0.3,1.4
				c0.2-0.2,0.4-0.4,0.7-0.6c1.6-1.3,4-1.7,6-0.8l0,0c1.1,0.5,2.5,0.3,3.4-0.5C45.4,36,45.5,35.8,45.6,35.7z"/>
		</g>
	</g>
	<g class="st5">
		<g>
			<path class="st2" d="M87.2,18.2l2.4,1c0.2,0.1,0.5,0.2,0.7,0.4c0,0,0-0.1,0-0.1l0,0c0.7-1.7-0.1-3.6-1.8-4.3l-2.4-1
				c-0.4-0.2-0.8-0.3-1.3-0.3c-1.3,0-2.5,0.8-3,2l0,0c-1,2.4-3.5,3.9-6,3.6c-2.3-0.3-4.6-0.3-6.9-0.1c-2.6,0.3-5-1.3-6-3.6
				c-0.5-1.3-1.7-2.1-3.1-2.1c-0.4,0-0.8,0.1-1.2,0.2l-2.4,1c-1.7,0.7-2.5,2.6-1.8,4.3c0,0,0,0.1,0.1,0.1c0.3-0.2,0.5-0.3,0.8-0.4
				l2.4-1c0.7-0.3,1.5-0.4,2.2-0.4c2.4,0,4.6,1.4,5.5,3.7c0.5,1.3,1.9,2.2,3.3,2.1c1.2-0.1,2.3-0.2,3.5-0.2c1.3,0,2.7,0.1,4,0.2
				c1.4,0.2,2.8-0.6,3.4-2l0,0c0.9-2.2,3.1-3.6,5.4-3.6C85.7,17.7,86.4,17.9,87.2,18.2z"/>
		</g>
	</g>
</g>
</svg>
