<?xml version="1.0" encoding="utf-8"?>
<!-- Generator: Adobe Illustrator 21.0.0, SVG Export Plug-In . SVG Version: 6.00 Build 0)  -->
<svg version="1.1" id="Layer_1" xmlns="http://www.w3.org/2000/svg" xmlns:xlink="http://www.w3.org/1999/xlink" x="0px" y="0px"
	 viewBox="0 0 120 120" style="enable-background:new 0 0 120 120;" xml:space="preserve">
<style type="text/css">
	.st0{fill:#82C2FE;}
	.st1{fill:#2E9AFE;}
	.st2{fill:#E0F0FF;}
	.st3{opacity:0.3;}
</style>
<g>
	<g>
		<g>
			<path class="st0" d="M60.9,109.8l-1.4-0.5C33,99.7,15.2,74.2,15.2,45.9c0-10.4,2.3-20.4,6.9-29.7l0.6-1.2
				c0.7-1.4,2.3-1.9,3.6-1.3l1.2,0.6c10.1,4.7,22,3.5,30.9-2.8l2.4-1.7l2.4,1.7c9,6.4,20.9,7.5,30.9,2.8l1.2-0.6
				c1.4-0.6,3-0.1,3.6,1.3l0.6,1.2c4.6,9.3,6.9,19.3,6.9,29.7c0,28.3-17.8,53.7-44.3,63.3L60.9,109.8z"/>
		</g>
		<g>
			<path class="st1" d="M60.9,110.8c-0.1,0-0.2,0-0.3-0.1l-1.4-0.5c-26.9-9.8-45-35.6-45-64.3c0-10.5,2.3-20.7,7-30.1l0.6-1.2
				c0.9-1.8,3.1-2.6,5-1.8l1.2,0.6c9.7,4.5,21.2,3.5,29.9-2.7L60.3,9c0.3-0.2,0.8-0.2,1.2,0l2.4,1.7c8.8,6.2,20.2,7.2,29.9,2.7
				l1.2-0.6c1.8-0.9,4.1-0.1,5,1.8l0.6,1.2c4.6,9.5,7,19.6,7,30.1c0,28.7-18.1,54.5-45,64.3l-1.4,0.5
				C61.2,110.8,61,110.8,60.9,110.8z M25.2,14.5c-0.7,0-1.3,0.4-1.6,1L23,16.7c-4.5,9.2-6.8,19-6.8,29.2c0,27.9,17.5,52.9,43.6,62.4
				l1.1,0.4l1.1-0.4c26.1-9.5,43.6-34.5,43.6-62.4c0-10.2-2.3-20-6.8-29.2l-0.6-1.2c-0.4-0.9-1.5-1.2-2.3-0.8l-1.2,0.6
				c-10.4,4.8-22.6,3.7-31.9-2.9L60.9,11l-1.8,1.3c-9.3,6.6-21.6,7.7-31.9,2.9l-1.2-0.6C25.7,14.5,25.4,14.5,25.2,14.5z"/>
		</g>
	</g>
	<g>
		<path class="st2" d="M33.1,28.6c-2.5,6-3.7,12.4-3.7,19c0,20.5,12.6,39,31.5,46.4c18.9-7.4,31.5-25.9,31.5-46.4
			c0-6.6-1.3-12.9-3.7-19c-9.2,3.1-19.5,2-27.8-3C52.6,30.6,42.3,31.8,33.1,28.6z"/>
		<path class="st1" d="M60.9,95c-0.1,0-0.2,0-0.4-0.1c-19.2-7.5-32.2-26.6-32.2-47.3c0-6.7,1.3-13.2,3.8-19.3
			c0.2-0.5,0.8-0.7,1.2-0.6c8.9,3,18.9,1.9,26.9-2.9c0.3-0.2,0.7-0.2,1,0c8,4.9,18.1,5.9,27,2.9c0.5-0.2,1,0.1,1.2,0.6
			c2.5,6.1,3.8,12.6,3.8,19.3c0,20.7-12.9,39.8-32.2,47.3C61.2,94.9,61,95,60.9,95z M33.7,29.9c-2.2,5.6-3.3,11.6-3.3,17.7
			c0,19.8,12.3,37.9,30.5,45.3c18.3-7.3,30.5-25.5,30.5-45.3c0-6.1-1.1-12.1-3.3-17.7c-9,2.8-19.1,1.6-27.2-3.1
			C52.7,31.5,42.7,32.7,33.7,29.9z"/>
	</g>
	<g>
		<path class="st1" d="M56.2,69.2L56.2,69.2c-0.3,0-0.5-0.1-0.7-0.3l-7.4-7.4c-0.4-0.4-0.4-1,0-1.4s1-0.4,1.4,0l6.7,6.7l16.2-16.2
			c0.4-0.4,1-0.4,1.4,0s0.4,1,0,1.4L56.9,68.9C56.7,69.1,56.4,69.2,56.2,69.2z"/>
	</g>
	<g class="st3">
		<g>
			<path class="st2" d="M98.3,16.3L97.6,15c-0.3-0.5-0.9-0.8-1.4-0.5L95,15.1c-4.2,2-9,3-13.7,3c-6.8,0-13.4-2.1-18.9-6l-1.4-1
				l-1.4,1c-5.5,3.9-12.1,6-18.9,6c-4.8,0-9.4-1-13.7-3l-1.2-0.6c-0.5-0.2-1.2,0-1.4,0.5l-0.6,1.2c-0.6,1.3-1.2,2.5-1.7,3.8
				c0.8-0.9,2-1.5,3.3-1.5c0.6,0,1.3,0.1,1.9,0.4l1.2,0.6c3.9,1.8,8,2.7,12.3,2.7c6.1,0,12-1.9,17-5.4l2.4-1.7
				c0.6-0.4,1.4-0.4,1.9,0l2.4,1.7c5,3.5,10.8,5.4,17,5.4c4.3,0,8.4-0.9,12.3-2.7l1.2-0.6c0.6-0.3,1.2-0.4,1.9-0.4
				c1.3,0,2.5,0.5,3.3,1.5C99.4,18.8,98.9,17.5,98.3,16.3z"/>
		</g>
	</g>
</g>
</svg>
