<?xml version="1.0" encoding="utf-8"?>
<!-- Generator: Adobe Illustrator 21.0.0, SVG Export Plug-In . SVG Version: 6.00 Build 0)  -->
<svg version="1.1" id="Layer_1" xmlns="http://www.w3.org/2000/svg" xmlns:xlink="http://www.w3.org/1999/xlink" x="0px" y="0px"
	 viewBox="0 0 120 120" style="enable-background:new 0 0 120 120;" xml:space="preserve">
<style type="text/css">
	.st0{fill:#2E9AFE;}
	.st1{fill:#82C2FE;}
	.st2{opacity:0.3;}
	.st3{fill:#E0F0FF;}
	.st4{opacity:0.7;}
	.st5{fill:#FFFFFF;}
</style>
<g>
	<g>
		<path class="st0" d="M97.9,55.9c-0.6,0-1-0.4-1-1V40.6c0-8.3-6.8-15.1-15.1-15.1s-15.1,6.8-15.1,15.1v14.3c0,0.6-0.4,1-1,1
			s-1-0.4-1-1V40.6c0-9.4,7.7-17.1,17.1-17.1s17.1,7.7,17.1,17.1v14.3C98.9,55.5,98.4,55.9,97.9,55.9z"/>
	</g>
	<g>
		<path class="st1" d="M106.6,95H57c-2.1,0-3.9-1.7-3.9-3.9V58.8c0-2.1,1.7-3.9,3.9-3.9h49.6c2.1,0,3.9,1.7,3.9,3.9v32.4
			C110.4,93.3,108.7,95,106.6,95z"/>
		<path class="st0" d="M106.6,96H57c-2.7,0-4.9-2.2-4.9-4.9V58.8c0-2.7,2.2-4.9,4.9-4.9h49.6c2.7,0,4.9,2.2,4.9,4.9v32.4
			C111.4,93.9,109.2,96,106.6,96z M57,55.9c-1.6,0-2.9,1.3-2.9,2.9v32.4c0,1.6,1.3,2.9,2.9,2.9h49.6c1.6,0,2.9-1.3,2.9-2.9V58.8
			c0-1.6-1.3-2.9-2.9-2.9H57z"/>
	</g>
	<g class="st2">
		<g>
			<path class="st3" d="M56.4,56c-1.2,0-2.2,1-2.2,2.2v2.4c0.4-0.1,0.9-0.2,1.4-0.2h52.3c0.5,0,0.9,0.1,1.4,0.2v-2.4
				c0-1.2-1-2.2-2.2-2.2H56.4z"/>
		</g>
	</g>
	<g>
		<path class="st3" d="M75.9,78.6H15.4c-2.8,0-5-2.2-5-5V51.2c0-2.8,2.2-5,5-5h60.5c2.8,0,5,2.2,5,5v22.4
			C80.9,76.4,78.7,78.6,75.9,78.6z"/>
		<path class="st0" d="M75.9,79.6H15.4c-3.3,0-6-2.7-6-6V51.2c0-3.3,2.7-6,6-6h60.5c3.3,0,6,2.7,6,6v22.4
			C81.9,76.9,79.2,79.6,75.9,79.6z M15.4,47.2c-2.2,0-4,1.8-4,4v22.4c0,2.2,1.8,4,4,4h60.5c2.2,0,4-1.8,4-4V51.2c0-2.2-1.8-4-4-4
			H15.4z"/>
	</g>
	<g>
		<g>
			<path class="st0" d="M30.9,55.8c0.7,0.4,0.9,1.3,0.4,1.9l-3.1,4v0.1l4.9-0.6c0.7-0.1,1.4,0.5,1.4,1.2v0c0,0.7-0.6,1.3-1.4,1.2
				l-4.9-0.6v0.1l3.1,3.8c0.5,0.6,0.3,1.5-0.4,1.9l-0.1,0.1c-0.6,0.4-1.5,0.1-1.8-0.6l-1.9-4.5H27l-2.1,4.6
				c-0.3,0.7-1.2,0.9-1.8,0.5l0,0c-0.6-0.4-0.8-1.2-0.3-1.8l3.1-4V63l-4.7,0.6c-0.7,0.1-1.4-0.5-1.4-1.2v0c0-0.7,0.7-1.3,1.4-1.2
				l4.7,0.6v-0.1l-3-3.9c-0.5-0.6-0.3-1.5,0.4-1.9l0.1,0c0.7-0.4,1.5-0.1,1.8,0.6l2,4.5h0.1l2-4.5C29.4,55.7,30.2,55.4,30.9,55.8
				L30.9,55.8z"/>
		</g>
		<g>
			<path class="st0" d="M48.1,55.8c0.7,0.4,0.9,1.3,0.4,1.9l-3.1,4v0.1l4.9-0.6c0.7-0.1,1.4,0.5,1.4,1.2v0c0,0.7-0.6,1.3-1.4,1.2
				l-4.9-0.6v0.1l3.1,3.8c0.5,0.6,0.3,1.5-0.4,1.9L48,68.9c-0.6,0.4-1.5,0.1-1.8-0.6l-1.9-4.5h-0.1l-2.1,4.6
				c-0.3,0.7-1.2,0.9-1.8,0.5l0,0c-0.6-0.4-0.8-1.2-0.3-1.8l3.1-4V63l-4.7,0.6c-0.7,0.1-1.4-0.5-1.4-1.2v0c0-0.7,0.7-1.3,1.4-1.2
				l4.7,0.6v-0.1l-3-3.9c-0.5-0.6-0.3-1.5,0.4-1.9l0.1,0c0.7-0.4,1.5-0.1,1.8,0.6l2,4.5h0.1l2-4.5C46.6,55.7,47.5,55.4,48.1,55.8
				L48.1,55.8z"/>
		</g>
		<g>
			<path class="st0" d="M65.4,55.8c0.7,0.4,0.9,1.3,0.4,1.9l-3.1,4v0.1l4.9-0.6c0.7-0.1,1.4,0.5,1.4,1.2v0c0,0.7-0.6,1.3-1.4,1.2
				l-4.9-0.6v0.1l3.1,3.8c0.5,0.6,0.3,1.5-0.4,1.9l-0.1,0.1c-0.6,0.4-1.5,0.1-1.8-0.6l-1.9-4.5h-0.1l-2.1,4.6
				c-0.3,0.7-1.2,0.9-1.8,0.5l0,0c-0.6-0.4-0.8-1.2-0.3-1.8l3.1-4V63l-4.7,0.6c-0.7,0.1-1.4-0.5-1.4-1.2v0c0-0.7,0.7-1.3,1.4-1.2
				l4.7,0.6v-0.1l-3-3.9c-0.5-0.6-0.3-1.5,0.4-1.9l0.1,0c0.7-0.4,1.5-0.1,1.8,0.6l2,4.5h0.1l2-4.5C63.9,55.7,64.7,55.4,65.4,55.8
				L65.4,55.8z"/>
		</g>
	</g>
	<g class="st4">
		<g>
			<path class="st5" d="M15.2,47.1c-1.8,0-3.8,1.9-3.8,3.1V52c0.7-0.3,1.4-0.5,2.2-0.5h64c0.8,0,1.5,0.2,2.2,0.5v-1.7
				c0-1.2-1.9-3.1-3.7-3.1H15.2z"/>
		</g>
	</g>
</g>
</svg>
