<?xml version="1.0" encoding="utf-8"?>
<!-- Generator: Adobe Illustrator 21.0.0, SVG Export Plug-In . SVG Version: 6.00 Build 0)  -->
<svg version="1.1" id="Layer_1" xmlns="http://www.w3.org/2000/svg" xmlns:xlink="http://www.w3.org/1999/xlink" x="0px" y="0px"
	 viewBox="0 0 120 120" style="enable-background:new 0 0 120 120;" xml:space="preserve">
<style type="text/css">
	.st0{fill:#E0F0FF;}
	.st1{fill:#2E9AFE;}
	.st2{fill:#82C2FE;}
	.st3{opacity:0.7;}
	.st4{fill:#FFFFFF;}
</style>
<g>
	<g>
		<path class="st0" d="M56.5,49.1h-36c-5.3,0-9.6,4.3-9.6,9.6V99c0,5.3,4.3,9.6,9.6,9.6h80.8c5.3,0,9.6-4.3,9.6-9.6V58.7
			c0-5.3-4.3-9.6-9.6-9.6H61.1H56.5z"/>
		<path class="st1" d="M101.3,109.6H20.5c-5.8,0-10.6-4.8-10.6-10.6V58.7c0-5.8,4.8-10.6,10.6-10.6h80.8c5.8,0,10.6,4.8,10.6,10.6
			V99C111.9,104.9,107.2,109.6,101.3,109.6z M20.5,50.1c-4.7,0-8.6,3.9-8.6,8.6V99c0,4.7,3.9,8.6,8.6,8.6h80.8
			c4.7,0,8.6-3.9,8.6-8.6V58.7c0-4.7-3.9-8.6-8.6-8.6H20.5z"/>
	</g>
	<g>
		<g>
			<path class="st2" d="M25,68.8c-1.1,0-2-0.9-2-2v-4.7c0-1.1,0.9-2,2-2h4.7c1.1,0,2,0.9,2,2v4.7c0,1.1-0.9,2-2,2H25z"/>
		</g>
		<g>
			<path class="st1" d="M29.6,61.1c0.6,0,1,0.5,1,1v4.7c0,0.6-0.5,1-1,1H25c-0.6,0-1-0.5-1-1v-4.7c0-0.6,0.5-1,1-1H29.6 M29.6,59.1
				H25c-1.7,0-3,1.3-3,3v4.7c0,1.7,1.3,3,3,3h4.7c1.7,0,3-1.3,3-3v-4.7C32.7,60.5,31.3,59.1,29.6,59.1L29.6,59.1z"/>
		</g>
	</g>
	<g>
		<g>
			<path class="st2" d="M41.8,68.8c-1.1,0-2-0.9-2-2v-4.7c0-1.1,0.9-2,2-2h4.7c1.1,0,2,0.9,2,2v4.7c0,1.1-0.9,2-2,2H41.8z"/>
		</g>
		<g>
			<path class="st1" d="M46.4,61.1c0.6,0,1,0.5,1,1v4.7c0,0.6-0.5,1-1,1h-4.7c-0.6,0-1-0.5-1-1v-4.7c0-0.6,0.5-1,1-1H46.4
				 M46.4,59.1h-4.7c-1.7,0-3,1.3-3,3v4.7c0,1.7,1.3,3,3,3h4.7c1.7,0,3-1.3,3-3v-4.7C49.5,60.5,48.1,59.1,46.4,59.1L46.4,59.1z"/>
		</g>
	</g>
	<g>
		<g>
			<path class="st2" d="M58.6,68.8c-1.1,0-2-0.9-2-2v-4.7c0-1.1,0.9-2,2-2h4.7c1.1,0,2,0.9,2,2v4.7c0,1.1-0.9,2-2,2H58.6z"/>
		</g>
		<g>
			<path class="st1" d="M63.2,61.1c0.6,0,1,0.5,1,1v4.7c0,0.6-0.5,1-1,1h-4.7c-0.6,0-1-0.5-1-1v-4.7c0-0.6,0.5-1,1-1H63.2
				 M63.2,59.1h-4.7c-1.7,0-3,1.3-3,3v4.7c0,1.7,1.3,3,3,3h4.7c1.7,0,3-1.3,3-3v-4.7C66.3,60.5,64.9,59.1,63.2,59.1L63.2,59.1z"/>
		</g>
	</g>
	<g>
		<g>
			<path class="st2" d="M75.4,68.8c-1.1,0-2-0.9-2-2v-4.7c0-1.1,0.9-2,2-2H80c1.1,0,2,0.9,2,2v4.7c0,1.1-0.9,2-2,2H75.4z"/>
		</g>
		<g>
			<path class="st1" d="M80,61.1c0.6,0,1,0.5,1,1v4.7c0,0.6-0.5,1-1,1h-4.7c-0.6,0-1-0.5-1-1v-4.7c0-0.6,0.5-1,1-1H80 M80,59.1h-4.7
				c-1.7,0-3,1.3-3,3v4.7c0,1.7,1.3,3,3,3H80c1.7,0,3-1.3,3-3v-4.7C83.1,60.5,81.7,59.1,80,59.1L80,59.1z"/>
		</g>
	</g>
	<g>
		<g>
			<path class="st2" d="M25,83.2c-1.1,0-2-0.9-2-2v-4.7c0-1.1,0.9-2,2-2h4.7c1.1,0,2,0.9,2,2v4.7c0,1.1-0.9,2-2,2H25z"/>
		</g>
		<g>
			<path class="st1" d="M29.6,75.5c0.6,0,1,0.5,1,1v4.7c0,0.6-0.5,1-1,1H25c-0.6,0-1-0.5-1-1v-4.7c0-0.6,0.5-1,1-1H29.6 M29.6,73.5
				H25c-1.7,0-3,1.3-3,3v4.7c0,1.7,1.3,3,3,3h4.7c1.7,0,3-1.3,3-3v-4.7C32.7,74.9,31.3,73.5,29.6,73.5L29.6,73.5z"/>
		</g>
	</g>
	<g>
		<g>
			<path class="st2" d="M41.8,83.2c-1.1,0-2-0.9-2-2v-4.7c0-1.1,0.9-2,2-2h4.7c1.1,0,2,0.9,2,2v4.7c0,1.1-0.9,2-2,2H41.8z"/>
		</g>
		<g>
			<path class="st1" d="M46.4,75.5c0.6,0,1,0.5,1,1v4.7c0,0.6-0.5,1-1,1h-4.7c-0.6,0-1-0.5-1-1v-4.7c0-0.6,0.5-1,1-1H46.4
				 M46.4,73.5h-4.7c-1.7,0-3,1.3-3,3v4.7c0,1.7,1.3,3,3,3h4.7c1.7,0,3-1.3,3-3v-4.7C49.5,74.9,48.1,73.5,46.4,73.5L46.4,73.5z"/>
		</g>
	</g>
	<g>
		<g>
			<path class="st2" d="M58.6,83.2c-1.1,0-2-0.9-2-2v-4.7c0-1.1,0.9-2,2-2h4.7c1.1,0,2,0.9,2,2v4.7c0,1.1-0.9,2-2,2H58.6z"/>
		</g>
		<g>
			<path class="st1" d="M63.2,75.5c0.6,0,1,0.5,1,1v4.7c0,0.6-0.5,1-1,1h-4.7c-0.6,0-1-0.5-1-1v-4.7c0-0.6,0.5-1,1-1H63.2
				 M63.2,73.5h-4.7c-1.7,0-3,1.3-3,3v4.7c0,1.7,1.3,3,3,3h4.7c1.7,0,3-1.3,3-3v-4.7C66.3,74.9,64.9,73.5,63.2,73.5L63.2,73.5z"/>
		</g>
	</g>
	<g>
		<g>
			<path class="st2" d="M75.4,83.2c-1.1,0-2-0.9-2-2v-4.7c0-1.1,0.9-2,2-2H80c1.1,0,2,0.9,2,2v4.7c0,1.1-0.9,2-2,2H75.4z"/>
		</g>
		<g>
			<path class="st1" d="M80,75.5c0.6,0,1,0.5,1,1v4.7c0,0.6-0.5,1-1,1h-4.7c-0.6,0-1-0.5-1-1v-4.7c0-0.6,0.5-1,1-1H80 M80,73.5h-4.7
				c-1.7,0-3,1.3-3,3v4.7c0,1.7,1.3,3,3,3H80c1.7,0,3-1.3,3-3v-4.7C83.1,74.9,81.7,73.5,80,73.5L80,73.5z"/>
		</g>
	</g>
	<g>
		<g>
			<path class="st2" d="M25,97.6c-1.1,0-2-0.9-2-2v-4.7c0-1.1,0.9-2,2-2h4.7c0.5,0,1,0.2,1.4,0.6c0.4,0.4,0.6,0.9,0.6,1.4v4.7
				c0,1.1-0.9,2-2,2H25z"/>
		</g>
		<g>
			<path class="st1" d="M29.6,89.9c0.6,0,1,0.5,1,1v4.7c0,0.6-0.5,1-1,1H25c-0.6,0-1-0.5-1-1v-4.7c0-0.6,0.5-1,1-1H29.6 M29.6,87.9
				L29.6,87.9H25c-1.7,0-3,1.3-3,3v4.7c0,1.7,1.3,3,3,3h4.7c1.7,0,3-1.3,3-3v-4.7C32.7,89.3,31.3,87.9,29.6,87.9L29.6,87.9z"/>
		</g>
	</g>
	<g>
		<g>
			<path class="st2" d="M41.8,97.6c-1.1,0-2-0.9-2-2v-4.7c0-1.1,0.9-2,2-2H80c0.5,0,1,0.2,1.4,0.6c0.4,0.4,0.6,0.9,0.6,1.4v4.7
				c0,1.1-0.9,2-2,2H41.8z"/>
		</g>
		<g>
			<path class="st1" d="M80,89.9c0.6,0,1,0.5,1,1v4.7c0,0.6-0.5,1-1,1h-1.8h-2.9H46.4H44h-2.2c-0.6,0-1-0.5-1-1v-4.7
				c0-0.6,0.5-1,1-1H44h2.4h28.9h2.9H80 M80,87.9L80,87.9h-1.8h-2.9H46.4H44h-2.2c-1.7,0-3,1.3-3,3v4.7c0,1.7,1.4,3,3,3H44h2.4h28.9
				h2.9H80c1.7,0,3-1.3,3-3v-4.7C83.1,89.3,81.7,87.9,80,87.9L80,87.9z"/>
		</g>
	</g>
	<g>
		<path class="st0" d="M75.5,20.8V23c0,2.1,1.7,3.8,3.8,3.8h17.3v-2.6h6.2V13.6h-6.2V11H79.4c-2.1,0-3.8,1.7-3.8,3.8V17V20.8z"/>
		<path class="st1" d="M96.7,27.8H79.4c-2.7,0-4.8-2.2-4.8-4.8v-8.2c0-2.7,2.2-4.8,4.8-4.8h17.3c0.6,0,1,0.4,1,1v1.6h5.2
			c0.6,0,1,0.4,1,1v10.6c0,0.6-0.4,1-1,1h-5.2v1.6C97.7,27.4,97.2,27.8,96.7,27.8z M79.4,12c-1.6,0-2.8,1.3-2.8,2.8V23
			c0,1.6,1.3,2.8,2.8,2.8h16.3v-1.6c0-0.6,0.4-1,1-1h5.2v-8.6h-5.2c-0.6,0-1-0.4-1-1V12H79.4z"/>
	</g>
	<g>
		<path class="st1" d="M56.5,50.1c-0.3,0-0.6-0.1-0.8-0.4c-3.2-4.1-8-6.5-13.1-6.5c0,0-0.1,0-0.1,0l-18,0c-7.2,0-13-5.8-13-13
			c0-7.2,5.8-13,13-13h50.8c0.6,0,1,0.4,1,1s-0.4,1-1,1H24.5c-6.1,0-11,4.9-11,11c0,6.1,4.9,11,11,11l18.1,0c0,0,0.1,0,0.1,0
			c5.7,0,11.1,2.7,14.6,7.2c0.3,0.4,0.3,1.1-0.2,1.4C56.9,50,56.7,50.1,56.5,50.1z"/>
	</g>
	<g class="st3">
		<g>
			<path class="st4" d="M101.3,50.7H20.5c-4.4,0-8,3.6-8,8v0.1c2-2.1,4.9-3.4,8-3.4h80.8c3,0,5.8,1.2,7.9,3.3c0,0,0.1,0.1,0.1,0.1
				v-0.1c0-2.1-0.8-4.1-2.3-5.7C105.5,51.5,103.4,50.7,101.3,50.7z"/>
		</g>
	</g>
</g>
</svg>
