<?xml version="1.0" encoding="utf-8"?>
<!-- Generator: Adobe Illustrator 21.0.0, SVG Export Plug-In . SVG Version: 6.00 Build 0)  -->
<svg version="1.1" id="Layer_1" xmlns="http://www.w3.org/2000/svg" xmlns:xlink="http://www.w3.org/1999/xlink" x="0px" y="0px"
	 viewBox="0 0 120 120" style="enable-background:new 0 0 120 120;" xml:space="preserve">
<style type="text/css">
	.st0{fill:#E0F0FF;}
	.st1{fill:#2E9AFE;}
	.st2{fill:#82C2FE;}
	.st3{fill:#C1E1FF;}
	.st4{opacity:0.5;}
	.st5{fill:#FFFFFF;}
</style>
<g>
	<g>
		<g>
			<path class="st0" d="M93.4,39.5C91.7,23.9,79.3,11.5,63.8,9.8c-1,0-1.9-0.2-2.9-0.2c-1,0-1.9,0-2.9,0.2
				C42.4,11.5,30,24.1,28.2,39.5c-1.2,11,2.9,21,10.2,27.9c4.1,4,7.6,9.1,8.6,14.7h27.6c1-5.5,4.5-10.7,8.6-14.7
				C90.5,60.5,94.6,50.5,93.4,39.5"/>
		</g>
		<g>
			<path class="st1" d="M74.6,83H47c-0.5,0-0.9-0.3-1-0.8c-0.9-4.8-3.9-9.8-8.3-14.1c-7.8-7.5-11.7-17.9-10.5-28.8
				C29,23.4,41.9,10.6,57.8,8.8c1.1-0.2,2-0.2,3-0.2c0.6,0,1.1,0,1.6,0.1c0.4,0,0.9,0.1,1.4,0.1c0,0,0.1,0,0.1,0
				c15.9,1.8,28.8,14.6,30.5,30.5c0,0,0,0,0,0c1.2,10.8-2.6,21.3-10.5,28.8c-4.5,4.3-7.4,9.3-8.3,14.1C75.5,82.7,75.1,83,74.6,83z
				 M47.9,81h26c1.1-5,4.2-10,8.7-14.4c7.4-7,11-16.9,9.9-27.1c-1.7-15-13.7-27.1-28.7-28.8c-0.5,0-1,0-1.5-0.1
				c-0.4,0-0.9-0.1-1.4-0.1c-1,0-1.8,0-2.8,0.2c-15,1.7-27.1,13.8-28.8,28.8c-1.1,10.2,2.5,20.1,9.9,27.1C43.6,71,46.7,76.1,47.9,81
				z"/>
		</g>
	</g>
	<g>
		<path class="st2" d="M47,82v20.7h27.6V88.9V82H47z"/>
		<path class="st1" d="M74.6,103.7H47c-0.6,0-1-0.4-1-1V82c0-0.6,0.4-1,1-1h27.6c0.6,0,1,0.4,1,1v20.7
			C75.6,103.3,75.2,103.7,74.6,103.7z M48,101.7h25.6V83H48V101.7z"/>
	</g>
	<g>
		<g>
			<path class="st3" d="M63.4,109.6h-5.2c-1.6,0-3.1-0.7-4.1-2.1l-3.6-4.8h20.7l-3.6,4.8C66.5,108.9,65,109.6,63.4,109.6"/>
		</g>
		<g>
			<path class="st1" d="M63.4,110.6h-5.2c-2,0-3.8-0.9-4.9-2.5l-3.6-4.8c-0.2-0.3-0.3-0.7-0.1-1s0.5-0.6,0.9-0.6h20.7
				c0.4,0,0.7,0.2,0.9,0.6s0.1,0.7-0.1,1l-3.6,4.8C67.2,109.7,65.4,110.6,63.4,110.6z M52.5,103.7l2.4,3.2c0.8,1.1,2,1.7,3.3,1.7
				h5.2c1.3,0,2.5-0.6,3.3-1.7l2.4-3.2H52.5z"/>
		</g>
	</g>
	<g>
		<g>
			<g>
				<path class="st0" d="M50.6,41.6c-2.8,0-5.1,2.3-5.1,5.1c0,2.8,2.3,5.1,5.1,5.1h5.1v-5.1C55.7,43.9,53.4,41.6,50.6,41.6
					L50.6,41.6z M65.9,51.9h5.1c2.8,0,5.1-2.3,5.1-5.1c0-2.8-2.3-5.1-5.1-5.1s-5.1,2.3-5.1,5.1V51.9z M55.7,82H66V51.9H55.7V82z"/>
			</g>
		</g>
		<g>
			<g>
				<path class="st1" d="M66,83H55.7c-0.6,0-1-0.4-1-1V52.9h-4.1c-3.4,0-6.1-2.8-6.1-6.1c0-3.4,2.8-6.1,6.1-6.1
					c1.6,0,3.2,0.6,4.3,1.8c1.2,1.2,1.8,2.7,1.8,4.3v4.1h8.2v-4.1c0-3.4,2.8-6.1,6.1-6.1c3.4,0,6.1,2.8,6.1,6.1
					c0,3.4-2.8,6.1-6.1,6.1H67V82C67,82.6,66.5,83,66,83z M56.7,81H65V52.9h-8.3V81z M66.9,50.9h4.1c2.3,0,4.1-1.9,4.1-4.1
					c0-2.3-1.9-4.1-4.1-4.1c-2.3,0-4.1,1.9-4.1,4.1V50.9z M50.6,42.6c-2.3,0-4.1,1.9-4.1,4.1c0,2.3,1.9,4.1,4.1,4.1h4.1v-4.1
					c0-1.1-0.4-2.1-1.2-2.9C52.7,43.1,51.7,42.6,50.6,42.6z"/>
			</g>
		</g>
	</g>
	<g>
		<path class="st1" d="M67.5,89.5H47c-0.6,0-1-0.4-1-1s0.4-1,1-1h20.5c0.6,0,1,0.4,1,1S68,89.5,67.5,89.5z"/>
	</g>
	<g>
		<path class="st1" d="M74.6,96.6H54.7c-0.6,0-1-0.4-1-1s0.4-1,1-1h19.9c0.6,0,1,0.4,1,1S75.2,96.6,74.6,96.6z"/>
	</g>
	<g class="st4">
		<g>
			<path class="st5" d="M92.3,40.4c0-0.6-0.1-1.2-0.2-1.9C90.5,24,78.5,12.3,63.7,10.6c-0.6,0-1.1-0.1-1.6-0.1
				c-0.5,0-0.9-0.1-1.3-0.1c-1,0-1.8,0-2.7,0.1c0,0-0.1,0-0.1,0c-14.9,1.6-26.8,13.4-28.5,28c-0.1,0.6-0.1,1.3-0.2,1.9
				c4.3-11.8,15.3-20.7,28.5-22.2c1.1-0.2,1.9-0.2,3-0.2c1.1,0,1.9,0.2,3,0.2C77,19.8,87.9,28.6,92.3,40.4z"/>
		</g>
	</g>
</g>
</svg>
