<?xml version="1.0" encoding="utf-8"?>
<!-- Generator: Adobe Illustrator 21.0.0, SVG Export Plug-In . SVG Version: 6.00 Build 0)  -->
<svg version="1.1" id="Layer_1" xmlns="http://www.w3.org/2000/svg" xmlns:xlink="http://www.w3.org/1999/xlink" x="0px" y="0px"
	 viewBox="0 0 120 120" style="enable-background:new 0 0 120 120;" xml:space="preserve">
<style type="text/css">
	.st0{fill:#2E9AFE;}
	.st1{fill:#C1E1FF;}
	.st2{fill:#82C2FE;}
	.st3{fill:#E0F0FF;}
	.st4{opacity:0.3;}
</style>
<g>
	<g>
		<path class="st0" d="M102.5,54.8c-0.6,0-1-0.4-1-1c0-22.6-18.4-41.1-41.1-41.1S19.4,31.2,19.4,53.8c0,0.6-0.4,1-1,1s-1-0.4-1-1
			c0-23.7,19.3-43.1,43.1-43.1s43.1,19.3,43.1,43.1C103.5,54.4,103,54.8,102.5,54.8z"/>
	</g>
	<g>
		<g>
			<path class="st1" d="M32.7,84.6h-8.2V43.3h8.2c2.1,0,3.8,1.7,3.8,3.8v33.7C36.5,82.9,34.8,84.6,32.7,84.6z"/>
		</g>
		<g>
			<path class="st0" d="M32.7,85.6h-8.2c-0.6,0-1-0.4-1-1V43.3c0-0.6,0.4-1,1-1h8.2c2.6,0,4.8,2.1,4.8,4.8v33.7
				C37.5,83.4,35.3,85.6,32.7,85.6z M25.5,83.6h7.2c1.5,0,2.8-1.2,2.8-2.8V47c0-1.5-1.2-2.8-2.8-2.8h-7.2V83.6z"/>
		</g>
	</g>
	<g>
		<path class="st2" d="M24.5,84.6L24.5,84.6c-7.8,0-14-6.3-14-14V57.3c0-7.8,6.3-14,14-14h0V84.6z"/>
		<path class="st0" d="M24.5,85.6c-8.3,0-15-6.7-15-15V57.3c0-8.3,6.7-15,15-15c0.6,0,1,0.4,1,1v41.3C25.5,85.1,25,85.6,24.5,85.6z
			 M23.5,44.3c-6.7,0.5-12,6.1-12,13v13.2c0,6.9,5.3,12.5,12,13V44.3z"/>
	</g>
	<g>
		<g>
			<g>
				<path class="st1" d="M88.1,84.6h8.2V43.3h-8.2c-2.1,0-3.8,1.7-3.8,3.8v33.7C84.4,82.9,86,84.6,88.1,84.6z"/>
			</g>
			<g>
				<path class="st0" d="M96.4,85.6h-8.2c-2.6,0-4.8-2.1-4.8-4.8V47c0-2.6,2.1-4.8,4.8-4.8h8.2c0.6,0,1,0.4,1,1v41.3
					C97.4,85.1,96.9,85.6,96.4,85.6z M88.1,44.3c-1.5,0-2.8,1.2-2.8,2.8v33.7c0,1.5,1.2,2.8,2.8,2.8h7.2V44.3H88.1z"/>
			</g>
		</g>
		<g>
			<path class="st2" d="M96.4,84.6L96.4,84.6c7.8,0,14-6.3,14-14V57.3c0-7.8-6.3-14-14-14h0V84.6z"/>
			<path class="st0" d="M96.4,85.6c-0.6,0-1-0.4-1-1V43.3c0-0.6,0.4-1,1-1c8.3,0,15,6.7,15,15v13.2C111.4,78.8,104.7,85.6,96.4,85.6
				z M97.4,44.3v39.2c6.7-0.5,12-6.1,12-13V57.3C109.4,50.5,104.1,44.8,97.4,44.3z"/>
		</g>
	</g>
	<g>
		<path class="st0" d="M84.8,104.3H71c-0.6,0-1-0.4-1-1s0.4-1,1-1h13.8c3.1,0,6.1-1.5,7.9-4.1l12.1-17.6c0.3-0.5,0.9-0.6,1.4-0.3
			c0.5,0.3,0.6,0.9,0.3,1.4L94.3,99.3C92.2,102.4,88.6,104.3,84.8,104.3z"/>
	</g>
	<g>
		<g>
			<path class="st3" d="M67,107.5H53.8c-2.3,0-4.2-1.9-4.2-4.2v0c0-2.3,1.9-4.2,4.2-4.2H67c2.3,0,4.2,1.9,4.2,4.2v0
				C71.2,105.6,69.3,107.5,67,107.5z"/>
		</g>
		<g>
			<path class="st0" d="M67,108.5H53.8c-2.9,0-5.2-2.3-5.2-5.2S51,98,53.8,98H67c2.9,0,5.2,2.3,5.2,5.2S69.9,108.5,67,108.5z
				 M53.8,100c-1.8,0-3.2,1.5-3.2,3.2s1.5,3.2,3.2,3.2H67c1.8,0,3.2-1.5,3.2-3.2S68.8,100,67,100H53.8z"/>
		</g>
	</g>
	<g>
		<g>
			<path class="st1" d="M57.2,107.5h-3.4c-2.3,0-4.2-1.9-4.2-4.2v0c0-2.3,1.9-4.2,4.2-4.2h3.4V107.5z"/>
		</g>
		<g>
			<path class="st0" d="M57.2,108.5h-3.4c-2.9,0-5.2-2.3-5.2-5.2S51,98,53.8,98h3.4c0.6,0,1,0.4,1,1v8.5
				C58.2,108,57.8,108.5,57.2,108.5z M53.8,100c-1.8,0-3.2,1.5-3.2,3.2s1.5,3.2,3.2,3.2h2.4V100H53.8z"/>
		</g>
	</g>
	<g class="st4">
		<g>
			<path class="st3" d="M11.7,56.6v1.8c2.3-3.9,6.6-6.7,11.6-7.2v-6.8C16.8,45.2,11.7,50.4,11.7,56.6z"/>
		</g>
	</g>
	<g class="st4">
		<g>
			<path class="st3" d="M109.4,56.6v1.8c-2.4-3.9-6.9-6.7-12.2-7.2v-6.8C104,45.2,109.4,50.4,109.4,56.6z"/>
		</g>
	</g>
</g>
</svg>
