<?xml version="1.0" encoding="utf-8"?>
<!-- Generator: Adobe Illustrator 21.0.0, SVG Export Plug-In . SVG Version: 6.00 Build 0)  -->
<svg version="1.1" id="Layer_1" xmlns="http://www.w3.org/2000/svg" xmlns:xlink="http://www.w3.org/1999/xlink" x="0px" y="0px"
	 viewBox="0 0 120 120" style="enable-background:new 0 0 120 120;" xml:space="preserve">
<style type="text/css">
	.st0{fill:#E0F0FF;}
	.st1{fill:#2E9AFE;}
	.st2{opacity:0.5;}
	.st3{fill:#FFFFFF;}
	.st4{fill:#82C2FE;}
	.st5{opacity:0.3;}
</style>
<g>
	<g>
		<g>
			<path class="st0" d="M101,39.2H49.8c-5,0-9,4.1-9,9v25.6c0,5,4.1,9,9,9h3.3c-0.7,3.3-1.9,7.2-4.3,10c-1.5,1.8,0,4.5,2.3,4.2
				c6-0.8,13.7-4,17.6-14.2H101c5,0,9-4.1,9-9V48.3C110,43.3,105.9,39.2,101,39.2z"/>
		</g>
		<g>
			<path class="st1" d="M50.8,98c-1.3,0-2.5-0.7-3.1-1.8c-0.7-1.3-0.6-2.9,0.4-4c1.7-2.1,3-4.9,3.8-8.4h-2.1c-5.5,0-10-4.5-10-10
				V48.2c0-5.5,4.5-10,10-10H101c5.5,0,10,4.5,10,10v25.6c0,5.5-4.5,10-10,10H69.4C65.3,94.1,57.3,97.2,51.3,98
				C51.2,98,51,98,50.8,98z M49.8,40.2c-4.4,0-8,3.6-8,8v25.6c0,4.4,3.6,8,8,8h3.3c0.3,0,0.6,0.1,0.8,0.4s0.3,0.5,0.2,0.8
				c-0.9,4.4-2.4,7.9-4.5,10.5c-0.6,0.8-0.3,1.5-0.2,1.7c0.1,0.2,0.6,0.9,1.6,0.8c5.6-0.8,13-3.7,16.8-13.6c0.1-0.4,0.5-0.6,0.9-0.6
				H101c4.4,0,8-3.6,8-8V48.3c0-4.4-3.6-8-8-8H49.8z"/>
		</g>
	</g>
	<g class="st2">
		<g>
			<path class="st3" d="M109.1,49.9v-2.1c0-4.2-3.4-7.7-7.7-7.7H50.3c-4.2,0-7.6,3.4-7.6,7.6v2.1c1.6-2.6,4.4-4.3,7.6-4.3h51.1
				C104.7,45.7,107.5,47.4,109.1,49.9z"/>
		</g>
	</g>
	<g>
		<g>
			<path class="st4" d="M70.1,22.2H19c-5,0-9,4.1-9,9v25.6c0,5,4.1,9,9,9h3.3c-0.7,3.3-1.9,7.2-4.3,10c-1.5,1.8,0,4.5,2.3,4.2
				c6-0.8,13.7-4,17.6-14.2h32.3c5,0,9-4.1,9-9V31.2C79.2,26.3,75.1,22.2,70.1,22.2z"/>
		</g>
		<g>
			<path class="st1" d="M20,81c-1.3,0-2.5-0.7-3.1-1.8c-0.7-1.3-0.6-2.9,0.4-4c1.7-2.1,3-4.9,3.8-8.4H19c-5.5,0-10-4.5-10-10V31.2
				c0-5.5,4.5-10,10-10h51.1c5.5,0,10,4.5,10,10v25.6c0,5.5-4.5,10-10,10H38.6C34.4,77.1,26.5,80.2,20.5,81C20.3,81,20.2,81,20,81z
				 M19,23.2c-4.4,0-8,3.6-8,8v25.6c0,4.4,3.6,8,8,8h4.5L23.3,66c-0.9,4.4-2.4,7.9-4.5,10.5c-0.6,0.8-0.3,1.5-0.2,1.8
				c0.1,0.2,0.6,0.9,1.6,0.8c5.6-0.8,13-3.7,16.8-13.6l0.2-0.6h32.9c4.4,0,8-3.6,8-8V31.2c0-4.4-3.6-8-8-8H19z"/>
		</g>
	</g>
	<g class="st5">
		<g>
			<path class="st0" d="M78.3,32.9v-2.1c0-4.2-3.4-7.7-7.7-7.7H18.5c-4.2,0-7.6,3.4-7.6,7.6v2.1c1.6-2.6,4.4-4.3,7.6-4.3h52.1
				C73.9,28.6,76.7,30.3,78.3,32.9z"/>
		</g>
	</g>
</g>
</svg>
