<?xml version="1.0" encoding="UTF-8"?>
<!DOCTYPE svg PUBLIC "-//W3C//DTD SVG 1.1//EN" "http://www.w3.org/Graphics/SVG/1.1/DTD/svg11.dtd">
<!-- Creator: CorelDRAW X7 -->
<svg xmlns="http://www.w3.org/2000/svg" xml:space="preserve" width="11in" height="8.5in" version="1.1" style="shape-rendering:geometricPrecision; text-rendering:geometricPrecision; image-rendering:optimizeQuality; fill-rule:evenodd; clip-rule:evenodd"
viewBox="0 0 11000 8500"
 xmlns:xlink="http://www.w3.org/1999/xlink">
 <defs>
  <style type="text/css">
   <![CDATA[
    .fil0 {fill:none}
    .fil2 {fill:#0EADE5}
    .fil1 {fill:#80949F}
   ]]>
  </style>
 </defs>
 <g id="Layer_x0020_1">
  <metadata id="CorelCorpID_0Corel-Layer"/>
  <rect class="fil0" y="1750" width="11000" height="5000"/>
  <g id="_2583071876640">
   <path class="fil1" d="M4865 5159c193,0 349,156 349,349 0,192 -156,349 -349,349 -192,0 -349,-157 -349,-349 0,-193 157,-349 349,-349zm-1223 25l141 0 0 -186 113 0 0 186 191 0 0 90 -191 0 0 382c3,96 96,97 197,70l0 100c-205,59 -310,-17 -310,-153l0 -399 -141 0 0 -90zm2956 96l-90 67c0,0 -32,-76 -157,-76 -90,0 -109,50 -113,79 -17,133 377,61 382,294 2,104 -101,202 -267,202 -196,0 -253,-123 -253,-123l85 -67c68,114 321,113 315,-20 -8,-149 -378,-40 -376,-284 1,-94 80,-187 239,-185 85,1 175,36 235,113zm-4979 0l-90 67c0,0 -32,-76 -157,-76 -90,0 -109,50 -112,79 -17,133 377,61 381,294 2,104 -100,202 -267,202 -196,0 -252,-123 -252,-123l84 -67c68,114 321,113 315,-20 -7,-149 -378,-40 -375,-284 0,-94 79,-187 238,-185 85,1 175,36 235,113zm466 -121c193,0 349,156 349,349 0,192 -156,349 -349,349 -193,0 -349,-157 -349,-349 0,-193 156,-349 349,-349zm0 111c131,0 237,107 237,238 0,130 -106,237 -237,237 -131,0 -237,-107 -237,-237 0,-131 106,-238 237,-238zm2206 -418c44,0 80,36 80,81 0,44 -36,81 -80,81 -45,0 -81,-37 -81,-81 0,-45 36,-81 81,-81zm-759 974l-113 0 0 -100c-42,68 -117,114 -203,114l-31 0c-130,0 -237,-106 -237,-236l0 -421 113 0 0 406c0,80 66,145 146,145l11 0c110,0 201,-90 201,-200l0 -351 34 0 79 0 0 643zm1852 -643l113 0 0 100c42,-69 117,-114 203,-114l31 0c130,0 237,106 237,236l0 421 -113 0 0 -406c0,-80 -66,-145 -146,-145l-11 0c-111,0 -201,90 -201,200l0 351 -34 0 -79 0 0 -643zm-1150 0l113 0 0 643 -113 0 0 -643zm-1616 -395l113 0 0 1038 -113 0 0 -1038zm2247 482c131,0 237,107 237,238 0,130 -106,237 -237,237 -131,0 -237,-107 -237,-237 0,-131 106,-238 237,-238z"/>
   <path class="fil2" d="M1208 4490l373 0 0 -813c0,-295 243,-537 537,-537 294,0 537,242 537,537l0 813c124,0 248,0 373,0l0 -1094c95,-153 264,-256 456,-256 295,0 537,242 537,537l0 813 373 0 0 -813c0,-501 -409,-910 -910,-910l0 0c-223,0 -427,80 -586,215 -110,93 -95,84 -193,1 -159,-135 -364,-216 -587,-216l0 0c-500,0 -910,409 -910,910l0 813zm7988 -1733c218,0 418,78 573,208l-227 290c-93,-80 -214,-129 -346,-129 -293,0 -529,237 -529,529 0,292 236,529 529,529 137,0 261,-52 355,-137l241 279c-158,141 -367,227 -596,227 -496,0 -898,-402 -898,-898 0,-496 402,-898 898,-898zm-2157 1760l373 0 0 -840c0,-275 211,-504 478,-534l0 -374c-473,31 -851,427 -851,908l0 840zm-807 3l348 0 0 -1739 -348 0 0 87c0,90 -51,75 -106,42 -130,-75 -280,-118 -440,-118 -485,0 -878,393 -878,878 0,484 393,877 878,877 163,0 317,-45 448,-123 66,-39 98,-6 98,57l0 39zm-546 -1397c302,0 546,245 546,547 0,302 -244,546 -546,546 -302,0 -547,-244 -547,-546 0,-302 245,-547 547,-547zm-4105 1481l-373 0c-63,0 -114,-51 -114,-114l0 -813c0,-282 116,-538 301,-723 185,-186 441,-301 723,-301l0 0c123,0 241,22 351,63 114,42 218,103 309,180 5,4 16,14 27,24 1,-5 4,-11 13,-18l6 -6c92,-78 196,-139 308,-181 111,-40 229,-62 352,-62l0 0c282,0 538,115 723,301 186,185 301,441 301,723l0 813c0,63 -51,114 -114,114l-373 0c-63,0 -114,-51 -114,-114l0 -813c0,-116 -48,-222 -124,-299 -77,-76 -183,-124 -299,-124 -74,0 -144,19 -204,53 -55,31 -102,73 -138,123l0 1060c0,63 -51,114 -114,114l-373 0c-63,0 -114,-51 -114,-114l0 -813c0,-116 -48,-222 -125,-299 -76,-76 -182,-124 -298,-124 -116,0 -221,48 -298,124 -77,77 -125,183 -125,299l0 813c0,63 -51,114 -114,114zm1217 -1669c10,0 9,-2 8,-7 -2,1 -4,2 -7,3l-3 4 2 0zm1 -4c-7,3 -13,4 -3,4l3 -4zm6397 -288c119,0 235,22 343,61 111,40 214,99 303,173 47,40 54,110 17,158l0 0 -228 290c-39,49 -110,58 -160,19 -3,-2 -5,-5 -8,-7 -36,-31 -78,-55 -122,-72 -45,-16 -93,-25 -145,-25 -115,0 -219,46 -294,121 -75,76 -122,179 -122,294 0,115 47,219 122,294 75,75 179,121 294,121 53,0 104,-9 149,-27 48,-18 92,-46 130,-80 46,-42 118,-39 160,8 2,2 4,4 6,6l237 275c41,47 36,118 -10,159l0 0c-91,81 -197,146 -313,190 -2,1 -4,1 -6,2 -110,41 -229,64 -353,64 -280,0 -533,-113 -716,-297 -183,-183 -296,-436 -296,-715 0,-279 113,-532 296,-715 183,-183 436,-297 716,-297zm-1784 1988l-373 0c-63,0 -114,-51 -114,-114l0 -840c0,-270 106,-516 278,-699 171,-182 408,-303 672,-322 4,-1 10,-1 15,-1 63,0 114,51 114,114l0 374 -1 0c0,58 -43,107 -101,113 -106,12 -200,64 -268,140 -67,74 -108,173 -108,281l0 840c0,63 -51,114 -114,114zm-832 3l-348 0c-49,0 -92,-32 -107,-76 -56,28 -115,51 -177,67 -85,24 -173,36 -262,36 -274,0 -522,-111 -701,-290 -180,-180 -291,-428 -291,-701 0,-274 111,-522 291,-701 179,-180 427,-291 701,-291 88,0 175,12 257,34 61,17 120,39 176,66 1,-61 52,-111 113,-111l348 0c63,0 114,51 114,114l0 1739c0,63 -51,114 -114,114z"/>
  </g>
 </g>
</svg>
