<?xml version="1.0" encoding="utf-8"?>
<!-- Generator: Adobe Illustrator 21.0.0, SVG Export Plug-In . SVG Version: 6.00 Build 0)  -->
<svg version="1.1" baseProfile="tiny" id="Layer_1" xmlns="http://www.w3.org/2000/svg" xmlns:xlink="http://www.w3.org/1999/xlink"
	 x="0px" y="0px" viewBox="0 0 1140 270" overflow="scroll" xml:space="preserve">
<g>
	<path fill="#E0F0FF" d="M777.6,270.4c-0.6,0-1-0.4-1-1c0-9.2-0.5-18.3-1.6-27.4c-0.1-0.5,0.3-1,0.9-1.1c0.6-0.1,1,0.3,1.1,0.9
		c1.1,9.1,1.6,18.4,1.6,27.6C778.5,269.9,778.1,270.4,777.6,270.4z"/>
</g>
<g>
	<path fill="#E0F0FF" d="M397.4,79.5c-0.3,0-0.6-0.1-0.8-0.4c-0.3-0.4-0.2-1.1,0.2-1.4c20.5-15.3,43.2-27.2,67.4-35.2
		c0.5-0.2,1.1,0.1,1.3,0.6c0.2,0.5-0.1,1.1-0.6,1.3c-24,8-46.5,19.7-66.9,34.9C397.8,79.5,397.6,79.5,397.4,79.5z"/>
</g>
<g>
	<path fill="#E0F0FF" d="M314,194.5c-0.1,0-0.2,0-0.3-0.1c-0.5-0.2-0.8-0.7-0.6-1.3c2.8-8.2,6-16.2,9.6-24.1
		c0.2-0.5,0.8-0.7,1.3-0.5c0.5,0.2,0.7,0.8,0.5,1.3c-3.6,7.8-6.8,15.7-9.5,23.9C314.8,194.2,314.5,194.5,314,194.5z"/>
</g>
<g>
	<path fill="#E0F0FF" d="M443.3,168.1c-0.3,0-0.5-0.1-0.7-0.3c-0.4-0.4-0.4-1,0-1.4c26.4-24.9,60.8-38.5,97-38.5
		c27.5,0,54.1,7.9,77,22.8c0.5,0.3,0.6,0.9,0.3,1.4c-0.3,0.5-0.9,0.6-1.4,0.3c-22.6-14.7-48.8-22.5-75.9-22.5
		c-35.7,0-69.6,13.5-95.7,38C443.8,168,443.5,168.1,443.3,168.1z"/>
</g>
<g>
	<path fill="#E0F0FF" d="M399.1,270.4c-0.6,0-1-0.4-1-1c0-13.1,1.8-26.2,5.4-38.7c0.2-0.5,0.7-0.8,1.2-0.7c0.5,0.2,0.8,0.7,0.7,1.2
		c-3.5,12.3-5.3,25.2-5.3,38.2C400.1,269.9,399.7,270.4,399.1,270.4z"/>
</g>
<g>
	<path fill="#E0F0FF" d="M727.2,270.4c-0.6,0-1-0.4-1-1c0-56.3-25.1-109-68.7-144.7c-0.4-0.3-0.5-1-0.1-1.4c0.3-0.4,1-0.5,1.4-0.1
		c44.2,36,69.5,89.3,69.5,146.2C728.2,269.9,727.8,270.4,727.2,270.4z"/>
</g>
<g>
	<path fill="#E0F0FF" d="M571.4,85.5c-0.1,0-0.1,0-0.2,0c-10.3-1.8-21-2.7-31.6-2.7c-0.6,0-1-0.4-1-1s0.4-1,1-1
		c10.7,0,21.5,0.9,31.9,2.7c0.5,0.1,0.9,0.6,0.8,1.2C572.3,85.1,571.9,85.5,571.4,85.5z"/>
</g>
<g>
	<path fill="#E0F0FF" d="M445.7,107.9c-0.3,0-0.7-0.2-0.9-0.5c-0.3-0.5-0.1-1.1,0.4-1.4c6.1-3.6,12.4-6.8,18.9-9.6
		c0.5-0.2,1.1,0,1.3,0.5c0.2,0.5,0,1.1-0.5,1.3c-6.4,2.8-12.7,6-18.7,9.5C446.1,107.8,445.9,107.9,445.7,107.9z"/>
</g>
<g>
	<path fill="#E0F0FF" d="M352.1,270.4c-0.6,0-1-0.4-1-1c0-34.2,9.3-67.7,26.9-97c0.3-0.5,0.9-0.6,1.4-0.3c0.5,0.3,0.6,0.9,0.3,1.4
		c-17.3,28.9-26.6,62.1-26.6,96C353.1,269.9,352.6,270.4,352.1,270.4z"/>
</g>
<g>
	<path fill="#E0F0FF" d="M530.9,39.8c-1-0.7-2.8-2.7-7.5-7.9c-1.6-1.8-3.3-3.7-4.7-5.1c-1.5-1.6-2.4-2.4-2.4-2.4s-7.3-6.6-7-6.8
		c-0.2-0.1-0.4-0.2-0.5-0.2c-2.2,0-9.8,6-10.9,6s-1.2,0-1.2,0v15.8c0,0,0.2,0,1.2,0c1.1,0,3.3,2.8,3.3,2.8l7.7,7.7
		c0,0,1.5,1.4,3.7,1.4s2.9-1.4,2.9-1.4s0.9,1.4,3.1,1.4c2.7,0,3.5-2.5,3.5-2.5s0.6,0.5,2.5,0.5c3,0,3-2.7,3-2.7s1.1,0.8,2.2,0.8
		c1.7,0,2.7-1.9,2.7-3C532.4,42.1,531.5,40.6,530.9,39.8z"/>
</g>
<g>
	<g>
		<path fill="#2E9AFE" d="M518.5,52c-1.4,0-2.4-0.5-3-1c-0.6,0.5-1.6,1-2.9,1c-2.6,0-4.3-1.7-4.4-1.7l-7.7-7.7l-0.1-0.1
			c-0.9-1.2-2.1-2.3-2.6-2.4h-1.2c-0.6,0-1-0.4-1-1V23.3c0-0.6,0.4-1,1-1h1.2c0.5-0.2,2.1-1.2,3.4-2.1c3.7-2.4,6.2-3.9,7.6-3.9
			c0.3,0,0.6,0.1,1,0.3c0.2,0.1,0.4,0.3,0.4,0.5c0.6,0.8,3.8,3.8,6.7,6.4c0,0,1,0.9,2.5,2.5c1.3,1.4,3,3.3,4.6,5.1l0.1,0.1l0,0
			c4.2,4.7,6.4,7.1,7.4,7.8c0.1,0.1,0.2,0.1,0.2,0.2c0.6,0.9,1.7,2.6,1.7,5c0,1.7-1.4,4-3.7,4c-0.5,0-1.1-0.1-1.5-0.3
			c-0.5,1.2-1.7,2.3-3.7,2.3c-0.9,0-1.5-0.1-2-0.2C521.9,50.8,520.6,52,518.5,52z M515.4,48.6c0.3,0,0.7,0.2,0.9,0.5
			c0,0,0.7,1,2.2,1c1.9,0,2.5-1.6,2.5-1.8c0.1-0.3,0.4-0.6,0.7-0.7c0.3-0.1,0.7,0,0.9,0.2c0,0,0.5,0.3,1.8,0.3c1.8,0,2-1.4,2-1.8
			s0.2-0.7,0.5-0.9c0.3-0.2,0.7-0.1,1,0.1c0.2,0.2,1,0.6,1.6,0.6c1.1,0,1.7-1.4,1.7-2c0-1.7-0.7-3-1.2-3.7c-1-0.8-2.7-2.6-7.5-8
			l-0.1-0.1c-1.6-1.8-3.2-3.6-4.6-5c-1.4-1.5-2.3-2.4-2.4-2.4c-4.7-4.3-6.4-6-7-6.8c-1.2,0.2-4.4,2.3-6.4,3.6
			c-2.8,1.8-3.8,2.4-4.4,2.4h-0.2v13.8h0.2c1.4,0,3.1,2,4,3.2l7.6,7.6l0,0c0,0,1.3,1.2,3,1.2c1.5,0,1.9-0.8,2-0.9
			C514.7,48.8,515.1,48.6,515.4,48.6L515.4,48.6z M510.1,18.3L510.1,18.3L510.1,18.3z M510.1,18.3L510.1,18.3L510.1,18.3z
			 M510.1,18.3L510.1,18.3L510.1,18.3z M510.1,18.3L510.1,18.3L510.1,18.3z M510.1,18.3L510.1,18.3L510.1,18.3z M510.1,18.3
			L510.1,18.3L510.1,18.3z M510.1,18.3L510.1,18.3L510.1,18.3z M510.1,18.3L510.1,18.3L510.1,18.3z M510.1,18.3L510.1,18.3
			L510.1,18.3z"/>
	</g>
</g>
<g>
	<path fill="#E0F0FF" d="M533,23.3c-1.1,0-15.8-9.9-17.8-9.9c-1.1,0-13.8,11-13.8,12.1s1.9,3.7,3,3.7s9.8-6,10.9-6
		c1.1,0,14.2,15.8,15.3,15.8c1.1,0,4.5,0,4.5,0V23.4C535,23.4,534.1,23.3,533,23.3z"/>
</g>
<g>
	<g>
		<path fill="#2E9AFE" d="M535,40.2h-4.5c-0.8,0-1.6-0.7-8.4-8.3c-2.6-2.9-6-6.7-7.1-7.6c-0.9,0.4-3.1,1.7-4.8,2.8
			c-4.1,2.5-5.3,3.1-6,3.1c-1.8,0-4-3.2-4-4.7c0-0.5,0-1.3,6.9-7.3c6.8-5.9,7.7-5.9,8-5.9c1.3,0,4.7,2,11.5,6.2
			c2.5,1.6,5.7,3.5,6.4,3.7c1.1,0,1.9,0.1,2,0.1c0.5,0,0.9,0.5,0.9,1v15.8C536,39.7,535.6,40.2,535,40.2z M530.8,38.2L530.8,38.2
			L530.8,38.2z M530.7,38.2h3.3V24.3c-0.3,0-0.6,0-1,0c-0.6,0-1.7-0.6-7.4-4c-3.4-2.1-9.1-5.6-10.4-5.9c-1.9,0.9-11.7,9.6-12.9,11.3
			c0.2,0.7,1.3,2.3,1.9,2.5c0.7-0.2,3.2-1.7,5-2.8c4.1-2.5,5.3-3.1,6-3.1c0.8,0,1.6,0.7,8.4,8.3C526.3,33.5,529.8,37.5,530.7,38.2z
			 M504.2,28.3L504.2,28.3L504.2,28.3z M502.3,25.9L502.3,25.9L502.3,25.9z M515.3,24.3L515.3,24.3z M514.9,24.3L514.9,24.3
			L514.9,24.3z"/>
	</g>
</g>
<g>
	<path fill="#82C2FE" d="M542.4,15.8h-5.3c-1.3,0-2.3,1-2.3,2.3v27.1c0,1.3,1,2.3,2.3,2.3h5.3c1.3,0,2.3-1,2.3-2.3V18.1
		C544.7,16.8,543.6,15.8,542.4,15.8z"/>
</g>
<g>
	<path fill="#2E9AFE" d="M542.4,48.5h-5.3c-1.8,0-3.3-1.5-3.3-3.3V18.1c0-1.8,1.5-3.3,3.3-3.3h5.3c1.8,0,3.3,1.5,3.3,3.3v27.1
		C545.7,47.1,544.2,48.5,542.4,48.5z M537,16.8c-0.7,0-1.3,0.6-1.3,1.3v27.1c0,0.7,0.6,1.3,1.3,1.3h5.3c0.7,0,1.3-0.6,1.3-1.3V18.1
		c0-0.7-0.6-1.3-1.3-1.3H537z"/>
</g>
<g>
	<path fill="#82C2FE" d="M494.3,15.8H489c-1.3,0-2.3,1-2.3,2.3v27.1c0,1.3,1,2.3,2.3,2.3h5.3c1.3,0,2.3-1,2.3-2.3V18.1
		C496.6,16.8,495.6,15.8,494.3,15.8z"/>
</g>
<g>
	<path fill="#2E9AFE" d="M494.3,48.5H489c-1.8,0-3.3-1.5-3.3-3.3V18.1c0-1.8,1.5-3.3,3.3-3.3h5.3c1.8,0,3.3,1.5,3.3,3.3v27.1
		C497.6,47.1,496.1,48.5,494.3,48.5z M489,16.8c-0.7,0-1.3,0.6-1.3,1.3v27.1c0,0.7,0.6,1.3,1.3,1.3h5.3c0.7,0,1.3-0.6,1.3-1.3V18.1
		c0-0.7-0.6-1.3-1.3-1.3H489z"/>
</g>
<g>
	<g>
		<path fill="#E0F0FF" d="M774.9,187.4h-22.7v39.7h31.2V196C780.1,192.6,778.2,190.7,774.9,187.4z"/>
		<path fill="#2E9AFE" d="M783.4,228.1h-31.2c-0.6,0-1-0.4-1-1v-39.7c0-0.6,0.4-1,1-1h22.7c0.3,0,0.5,0.1,0.7,0.3l8.6,8.6
			c0.2,0.2,0.3,0.4,0.3,0.7v31.1C784.4,227.6,784,228.1,783.4,228.1z M753.2,226.1h29.2v-29.7l-8-8h-21.3V226.1z"/>
	</g>
	<g>
		<line fill="none" x1="758" y1="195.6" x2="768.9" y2="195.6"/>
		<path fill="#2E9AFE" d="M768.9,196.6H758c-0.6,0-1-0.4-1-1s0.4-1,1-1h10.9c0.6,0,1,0.4,1,1S769.4,196.6,768.9,196.6z"/>
	</g>
	<g>
		<line fill="none" x1="767" y1="203.4" x2="777.7" y2="203.4"/>
		<path fill="#2E9AFE" d="M777.7,204.4H767c-0.6,0-1-0.4-1-1s0.4-1,1-1h10.6c0.6,0,1,0.4,1,1S778.2,204.4,777.7,204.4z"/>
	</g>
	<g>
		<line fill="none" x1="767" y1="211.3" x2="777.7" y2="211.3"/>
		<path fill="#2E9AFE" d="M777.7,212.3H767c-0.6,0-1-0.4-1-1s0.4-1,1-1h10.6c0.6,0,1,0.4,1,1S778.2,212.3,777.7,212.3z"/>
	</g>
	<g>
		<line fill="none" x1="767" y1="219.2" x2="777.7" y2="219.2"/>
		<path fill="#2E9AFE" d="M777.7,220.2H767c-0.6,0-1-0.4-1-1c0-0.6,0.4-1,1-1h10.6c0.6,0,1,0.4,1,1
			C778.6,219.8,778.2,220.2,777.7,220.2z"/>
	</g>
	<g>
		<polyline fill="#E0F0FF" points="757.5,203.1 759.2,204.8 762.1,202 		"/>
		<path fill="#2E9AFE" d="M759.2,205.8c-0.3,0-0.5-0.1-0.7-0.3l-1.7-1.7c-0.4-0.4-0.4-1,0-1.4s1-0.4,1.4,0l1,1l2.2-2.2
			c0.4-0.4,1-0.4,1.4,0s0.4,1,0,1.4l-2.9,2.9C759.7,205.7,759.4,205.8,759.2,205.8z"/>
	</g>
	<g>
		<polyline fill="#E0F0FF" points="757.5,211 759.2,212.7 762.1,209.8 		"/>
		<path fill="#2E9AFE" d="M759.2,213.7c-0.3,0-0.5-0.1-0.7-0.3l-1.7-1.7c-0.4-0.4-0.4-1,0-1.4c0.4-0.4,1-0.4,1.4,0l1,1l2.2-2.2
			c0.4-0.4,1-0.4,1.4,0s0.4,1,0,1.4l-2.9,2.9C759.7,213.6,759.4,213.7,759.2,213.7z"/>
	</g>
	<g>
		<polyline fill="#E0F0FF" points="757.5,218.9 759.2,220.6 762.1,217.7 		"/>
		<path fill="#2E9AFE" d="M759.2,221.6c-0.3,0-0.5-0.1-0.7-0.3l-1.7-1.7c-0.4-0.4-0.4-1,0-1.4c0.4-0.4,1-0.4,1.4,0l1,1l2.2-2.2
			c0.4-0.4,1-0.4,1.4,0s0.4,1,0,1.4l-2.9,2.9C759.7,221.5,759.4,221.6,759.2,221.6z"/>
	</g>
	<g>
		<polyline fill="#F6FAFF" points="774.5,188.6 774.5,196.1 782.1,196.1 		"/>
	</g>
	<g>
		<path fill="#2E9AFE" d="M782.1,197.1h-7.7c-0.6,0-1-0.4-1-1v-7.6c0-0.6,0.4-1,1-1s1,0.4,1,1v6.6h6.7c0.6,0,1,0.4,1,1
			S782.7,197.1,782.1,197.1z"/>
	</g>
</g>
<g>
	<g>
		<path fill="#2E9AFE" d="M529.6,115.8h-47c-0.6,0-1-0.4-1-1v-5.9c0-2.1,0.8-3.6,2.4-4.8c2.1-1.4,4.7-2.3,7.2-3.2
			c5-1.7,8.1-3,8.1-5.9c0-1.4-0.6-2.5-1.4-4c-1.2-2.2-2.6-4.9-2.6-9.7v-2c0-8,5.9-10.7,10.8-10.7c5,0,10.8,2.8,10.8,10.7v2
			c0,4.9-1.4,7.6-2.6,9.7c-0.8,1.4-1.4,2.6-1.4,4c0,2.9,3,4.1,8.1,5.9c2.5,0.9,5.1,1.8,7.2,3.1l0,0c1.6,1.1,2.4,2.6,2.4,4.8v5.9
			C530.6,115.4,530.2,115.8,529.6,115.8z M483.7,113.8h45v-4.9c0-1.5-0.4-2.4-1.5-3.1c-1.9-1.2-4.4-2.1-6.8-2.9
			c-4.6-1.6-9.4-3.2-9.4-7.8c0-1.9,0.8-3.3,1.6-4.9c1.1-2.1,2.4-4.5,2.4-8.9v-2c0-8.2-6.8-8.8-8.9-8.8s-8.9,0.6-8.9,8.8v2
			c0,4.4,1.3,6.8,2.4,8.9c0.8,1.6,1.6,3,1.6,4.9c0,4.5-4.8,6.2-9.4,7.8c-2.4,0.8-4.9,1.7-6.8,2.9c-1.1,0.7-1.5,1.6-1.5,3.1
			L483.7,113.8L483.7,113.8z"/>
	</g>
</g>
<g>
	<path fill="#E0F0FF" d="M401.3,127.5c-10.7-7.2-30.3-7.6-30.3-19c0-7.6,7.6-11.3,7.6-26.6v-3.8c0-15.2-11.4-19-19-19
		c-7.6,0-19,3.8-19,19V82c0,15.2,7.7,19,7.7,26.6c0,11.3-19.6,11.8-30.3,19c-2.4,1.6-3.8,3.8-3.8,7.6v11.4h91.1v-11.4
		C405.1,131.3,403.7,129.1,401.3,127.5z"/>
</g>
<g>
	<path fill="#2E9AFE" d="M405.1,147.6H314c-0.6,0-1-0.4-1-1v-11.4c0-3.8,1.4-6.5,4.3-8.5c3.9-2.6,8.9-4.3,13.7-6
		c8.4-2.9,16.2-5.6,16.2-12.2c0-2.9-1.2-5.2-2.7-8.1c-2.2-4.2-4.9-9.4-4.9-18.5v-3.8c0-14.7,10.3-20,20-20c9.6,0,20,5.3,20,20V82
		c0,9.2-2.7,14.3-4.9,18.5c-1.5,2.9-2.7,5.2-2.7,8.1c0,6.7,7.9,9.4,16.2,12.2c4.8,1.7,9.8,3.4,13.7,6c2.9,2,4.2,4.7,4.2,8.5v11.4
		C406.1,147.1,405.6,147.6,405.1,147.6z M315,145.6h89.1v-10.4c0-3.2-1-5.2-3.4-6.8c-3.7-2.5-8.6-4.1-13.2-5.8
		c-9.1-3.1-17.5-6-17.5-14c0-3.4,1.4-6,3-9.1c2.2-4.2,4.7-8.9,4.7-17.5v-3.8c0-17.1-15-18-18-18c-3,0-18,0.9-18,18v3.8
		c0,8.7,2.5,13.3,4.7,17.5c1.6,3,3,5.7,3,9.1c0,8.1-8.6,10.9-17.5,14c-4.7,1.6-9.6,3.3-13.2,5.8c-2.4,1.6-3.4,3.6-3.4,6.8v10.4H315z
		"/>
</g>
<g>
	<g id="XMLID_4_">
		<path fill="#82C2FE" d="M268.8,217.2H247c-0.3,3.3-2.9,5.9-6.1,6.1v22.2c3.3,0.3,5.9,2.9,6.1,6.1h21.8c-5-4.1-8.3-10.2-8.3-17.2
			C260.5,227.5,263.8,221.3,268.8,217.2z"/>
		<path fill="#2E9AFE" d="M268.8,252.6H247c-0.5,0-0.9-0.4-1-0.9c-0.3-2.8-2.5-5-5.2-5.2c-0.5,0-0.9-0.5-0.9-1v-22.2
			c0-0.5,0.4-0.9,0.9-1c2.8-0.3,5-2.5,5.2-5.2c0-0.5,0.5-0.9,1-0.9h21.8c0.4,0,0.8,0.3,0.9,0.7c0.1,0.4,0,0.8-0.3,1.1
			c-5,4.1-7.9,10-7.9,16.4c0,6.4,2.9,12.4,7.9,16.4c0.3,0.3,0.5,0.7,0.3,1.1C269.6,252.4,269.2,252.6,268.8,252.6z M247.9,250.6
			h18.3c-4.3-4.3-6.7-10-6.7-16.2c0-6.2,2.4-11.9,6.7-16.2h-18.3c-0.6,3-3,5.4-6,6v20.5C244.9,245.3,247.3,247.6,247.9,250.6z"/>
	</g>
	<g id="XMLID_2_">
		<path fill="#82C2FE" d="M296.6,251.6h21.7c0.3-3.3,2.9-5.9,6.1-6.1v-22.2c-3.3-0.3-5.9-2.9-6.1-6.1h-21.8c5,4.1,8.3,10.2,8.3,17.2
			C304.8,241.4,301.6,247.6,296.6,251.6z"/>
		<path fill="#2E9AFE" d="M318.3,252.6h-21.8c-0.4,0-0.8-0.3-0.9-0.7c-0.1-0.4,0-0.8,0.3-1.1c5-4.1,7.9-10,7.9-16.4
			S300.9,222,296,218c-0.3-0.3-0.5-0.7-0.3-1.1c0.1-0.4,0.5-0.7,0.9-0.7h21.8c0.5,0,0.9,0.4,1,0.9c0.3,2.8,2.5,5,5.2,5.2
			c0.5,0,0.9,0.5,0.9,1v22.2c0,0.5-0.4,0.9-0.9,1c-2.8,0.3-5,2.5-5.2,5.2C319.3,252.2,318.9,252.6,318.3,252.6z M299.1,250.6h18.3
			c0.6-3,3-5.4,6-6v-20.5c-3-0.6-5.4-3-6-6h-18.3c4.3,4.3,6.7,10,6.7,16.2S303.4,246.3,299.1,250.6z"/>
	</g>
	<g>
		<g>
			<polygon fill="#E0F0FF" points="282.7,209.8 233.6,209.8 233.6,259 282.7,259 331.9,259 331.9,209.8 			"/>
		</g>
		<g>
			<path fill="#2E9AFE" d="M331.9,260h-98.3c-0.6,0-1-0.4-1-1v-49.1c0-0.6,0.4-1,1-1h98.3c0.6,0,1,0.4,1,1V259
				C332.9,259.6,332.5,260,331.9,260z M234.6,258h96.3v-47.2h-96.3V258z"/>
		</g>
	</g>
	<g>
		<path fill="#FFFFFF" d="M268.8,251.6H247c-0.3-3.3-2.9-5.9-6.1-6.1v-22.2c3.3-0.3,5.9-2.9,6.1-6.1h21.8c-5,4.1-8.3,10.2-8.3,17.2
			C260.5,241.4,263.8,247.6,268.8,251.6z"/>
		<path fill="#2E9AFE" d="M268.8,252.6H247c-0.5,0-0.9-0.4-1-0.9c-0.3-2.8-2.5-5-5.2-5.2c-0.5,0-0.9-0.5-0.9-1v-22.2
			c0-0.5,0.4-0.9,0.9-1c2.8-0.3,5-2.5,5.2-5.2c0-0.5,0.5-0.9,1-0.9h21.8c0.4,0,0.8,0.3,0.9,0.7c0.1,0.4,0,0.8-0.3,1.1
			c-5,4.1-7.9,10-7.9,16.4c0,6.4,2.9,12.4,7.9,16.4c0.3,0.3,0.5,0.7,0.3,1.1C269.6,252.4,269.2,252.6,268.8,252.6z M247.9,250.6
			h18.3c-4.3-4.3-6.7-10-6.7-16.2s2.4-11.9,6.7-16.2h-18.3c-0.6,3-3,5.4-6,6v20.5C244.9,245.3,247.3,247.6,247.9,250.6z"/>
	</g>
	<g>
		<path fill="#FFFFFF" d="M324.5,245.5c-3.3,0.3-5.9,2.9-6.1,6.1h-21.8c5-4.1,8.3-10.2,8.3-17.2s-3.2-13.1-8.3-17.2h21.7
			c0.3,3.3,2.9,5.9,6.1,6.1L324.5,245.5L324.5,245.5z"/>
		<path fill="#2E9AFE" d="M318.3,252.6h-21.8c-0.4,0-0.8-0.3-0.9-0.7c-0.1-0.4,0-0.8,0.3-1.1c5-4.1,7.9-10,7.9-16.4
			S300.9,222,296,218c-0.3-0.3-0.5-0.7-0.3-1.1c0.1-0.4,0.5-0.7,0.9-0.7h21.8c0.5,0,0.9,0.4,1,0.9c0.3,2.8,2.5,5,5.2,5.2
			c0.5,0,0.9,0.5,0.9,1v22.2c0,0.5-0.4,0.9-0.9,1c-2.8,0.3-5,2.5-5.2,5.2C319.3,252.2,318.9,252.6,318.3,252.6z M299.1,250.6h18.3
			c0.6-3,3-5.4,6-6v-20.5c-3-0.6-5.4-3-6-6h-18.3c4.3,4.3,6.7,10,6.7,16.2S303.4,246.3,299.1,250.6z M324.5,245.5L324.5,245.5
			L324.5,245.5z"/>
	</g>
	<g>
		<g>
			<path fill="#2E9AFE" d="M284.1,219.9c3.6,0.5,5.2,3.3,5.2,7.3v0.5c0,0.9-0.7,1.5-1.5,1.5l0,0c-0.9,0-1.5-0.7-1.5-1.5v-0.7
				c0-2.6-1.1-4.2-3.4-4.2s-3.4,1.6-3.4,4.2c0,6.6,9.8,6.7,9.8,14.9c0,4-1.7,6.8-5.3,7.3v0.9c0,0.7-0.6,1.4-1.4,1.4l0,0
				c-0.7,0-1.4-0.6-1.4-1.4v-0.9c-3.7-0.5-5.3-3.3-5.3-7.3v-0.8c0-0.9,0.7-1.5,1.5-1.5l0,0c0.9,0,1.5,0.7,1.5,1.5v1
				c0,2.7,1.1,4.2,3.5,4.2c2.4,0,3.5-1.5,3.5-4.2c0-6.6-9.8-6.7-9.8-14.9c0-4.1,1.6-6.7,5.2-7.3v-1c0-0.7,0.6-1.4,1.4-1.4l0,0
				c0.7,0,1.4,0.6,1.4,1.4L284.1,219.9L284.1,219.9z"/>
		</g>
	</g>
</g>
<g>
	<line fill="none" x1="-0.5" y1="269.8" x2="1139.5" y2="269.8"/>
	<path fill="#2E9AFE" d="M1139.5,270.8H-0.5c-0.6,0-1-0.4-1-1s0.4-1,1-1h1140c0.6,0,1,0.4,1,1S1140.1,270.8,1139.5,270.8z"/>
</g>
<g>
	<path fill="#E0F0FF" d="M610.2,194.3h-52.3c-0.6,0-1-0.4-1-1s0.4-1,1-1h52.3c0.6,0,1,0.4,1,1S610.8,194.3,610.2,194.3z"/>
</g>
<g>
	<path fill="#E0F0FF" d="M415,217.1h6.2c0,1.2-1.6,2.1-3.1,2.1C416.7,219.1,415,218.3,415,217.1z"/>
	<path fill="#2E9AFE" d="M418.1,220.1c-2,0-4.1-1.2-4.1-3.1c0-0.6,0.4-1,1-1h6.2c0.6,0,1,0.4,1,1
		C422.2,218.9,420.1,220.1,418.1,220.1z M417.5,218.1c0.4,0.1,0.8,0.1,1.2,0H417.5z"/>
</g>
<g>
	<g>
		<path fill="#E0F0FF" d="M418.1,183.6c-6.4,0-11.4,5.2-11.4,11.4c0,2.1,0.6,4,1.5,5.8c2.8,5.1,3.6,4.1,4,6.8
			c0.4,2.3,0.9,2.9,2.7,2.9c0.7,0,2,0,3.3,0c1.3,0,2.5,0,3.3,0c1.8,0,2.3-0.5,2.7-2.9c0.5-2.8,1.2-1.7,4-6.8
			c0.9-1.7,1.5-3.7,1.5-5.8C429.6,188.8,424.5,183.6,418.1,183.6z"/>
		<path fill="#2E9AFE" d="M421.4,211.5h-6.5c-2.6,0-3.3-1.3-3.7-3.7c-0.2-1.2-0.4-1.4-1-2.2c-0.6-0.7-1.5-1.8-2.9-4.3
			c-1.1-2-1.7-4.1-1.7-6.2c0-6.9,5.6-12.4,12.4-12.4c3.3,0,6.5,1.3,8.9,3.7s3.7,5.5,3.7,8.9c0,2.2-0.6,4.3-1.7,6.2
			c-1.4,2.5-2.3,3.6-2.9,4.3c-0.6,0.8-0.8,1-1,2.2C424.7,210.2,423.9,211.5,421.4,211.5z M418.1,184.6c-5.8,0-10.4,4.7-10.4,10.4
			c0,1.8,0.5,3.6,1.4,5.3c1.3,2.3,2.1,3.3,2.7,4c0.8,0.9,1.2,1.5,1.5,3.2c0.3,2,0.6,2,1.7,2h6.5c1.1,0,1.4,0,1.7-2
			c0.3-1.7,0.7-2.2,1.5-3.2c0.6-0.7,1.4-1.7,2.7-4c0.9-1.7,1.4-3.5,1.4-5.3c0-2.8-1.1-5.5-3.1-7.4
			C423.6,185.7,420.9,184.6,418.1,184.6z"/>
	</g>
</g>
<g>
	<line fill="none" x1="418.1" y1="175.9" x2="418.1" y2="172"/>
	<path fill="#2E9AFE" d="M418.1,176.9c-0.6,0-1-0.4-1-1V172c0-0.6,0.4-1,1-1c0.6,0,1,0.4,1,1v3.9
		C419.1,176.5,418.7,176.9,418.1,176.9z"/>
</g>
<g>
	<line fill="none" x1="409.1" y1="178.4" x2="407.1" y2="175"/>
	<path fill="#2E9AFE" d="M409.1,179.4c-0.3,0-0.7-0.2-0.9-0.5l-2-3.4c-0.3-0.5-0.1-1.1,0.4-1.4c0.5-0.3,1.1-0.1,1.4,0.4l2,3.4
		c0.3,0.5,0.1,1.1-0.4,1.4C409.4,179.3,409.3,179.4,409.1,179.4z"/>
</g>
<g>
	<line fill="none" x1="402.4" y1="185" x2="399" y2="183.1"/>
	<path fill="#2E9AFE" d="M402.4,186c-0.2,0-0.3,0-0.5-0.1l-3.4-2c-0.5-0.3-0.6-0.9-0.4-1.4c0.3-0.5,0.9-0.6,1.4-0.4l3.4,2
		c0.5,0.3,0.6,0.9,0.4,1.4C403.1,185.8,402.7,186,402.4,186z"/>
</g>
<g>
	<line fill="none" x1="399.9" y1="194.1" x2="396" y2="194.1"/>
	<path fill="#2E9AFE" d="M399.9,195.1H396c-0.6,0-1-0.4-1-1s0.4-1,1-1h3.9c0.6,0,1,0.4,1,1S400.5,195.1,399.9,195.1z"/>
</g>
<g>
	<line fill="none" x1="402.4" y1="203.1" x2="399" y2="205.1"/>
	<path fill="#2E9AFE" d="M399,206.1c-0.3,0-0.7-0.2-0.9-0.5c-0.3-0.5-0.1-1.1,0.4-1.4l3.4-2c0.5-0.3,1.1-0.1,1.4,0.4
		s0.1,1.1-0.4,1.4l-3.4,2C399.3,206.1,399.1,206.1,399,206.1z"/>
</g>
<g>
	<line fill="none" x1="433.8" y1="203.2" x2="437.2" y2="205.1"/>
	<path fill="#2E9AFE" d="M437.2,206.1c-0.2,0-0.3,0-0.5-0.1l-3.4-2c-0.5-0.3-0.6-0.9-0.4-1.4c0.2-0.5,0.9-0.6,1.4-0.4l3.4,2
		c0.5,0.3,0.6,0.9,0.4,1.4C437.9,205.9,437.6,206.1,437.2,206.1z"/>
</g>
<g>
	<line fill="none" x1="436.3" y1="194.1" x2="440.2" y2="194.1"/>
	<path fill="#2E9AFE" d="M440.2,195.1h-3.9c-0.6,0-1-0.4-1-1s0.4-1,1-1h3.9c0.6,0,1,0.4,1,1S440.8,195.1,440.2,195.1z"/>
</g>
<g>
	<line fill="none" x1="433.8" y1="185" x2="437.2" y2="183.1"/>
	<path fill="#2E9AFE" d="M433.8,186c-0.3,0-0.7-0.2-0.9-0.5c-0.3-0.5-0.1-1.1,0.4-1.4l3.4-2c0.5-0.3,1.1-0.1,1.4,0.4
		c0.3,0.5,0.1,1.1-0.4,1.4l-3.4,2C434.2,185.9,434,186,433.8,186z"/>
</g>
<g>
	<line fill="none" x1="427.3" y1="178.4" x2="429.2" y2="175"/>
	<path fill="#2E9AFE" d="M427.3,179.4c-0.2,0-0.3,0-0.5-0.1c-0.5-0.3-0.6-0.9-0.4-1.4l2-3.4c0.3-0.5,0.9-0.6,1.4-0.4
		c0.5,0.2,0.6,0.9,0.4,1.4l-2,3.4C427.9,179.2,427.6,179.4,427.3,179.4z"/>
</g>
<g>
	<g>
		<path fill="#E0F0FF" d="M753.6,166.5c-0.4,0-0.7-0.2-0.9-0.6c-0.2-0.5,0-1.1,0.5-1.3c30.3-13.7,50-44.1,50-77.4
			c0-46.8-38.1-84.9-84.9-84.9c-34.1,0-64.8,20.3-78.1,51.7c-0.2,0.5-0.8,0.7-1.3,0.5c-0.5-0.2-0.7-0.8-0.5-1.3
			c13.6-32.1,45.1-52.9,80-52.9c47.9,0,86.8,38.9,86.8,86.8c0,34.1-20.1,65.2-51.1,79.2C753.9,166.5,753.8,166.5,753.6,166.5z
			 M747.4,154.8c-0.4,0-0.8-0.2-0.9-0.6c-0.2-0.5,0-1.1,0.5-1.3c26.1-11.4,43-37.2,43-65.7c0-39.5-32.1-71.6-71.6-71.6
			c-29,0-55,17.3-66.2,44.1c-0.2,0.5-0.8,0.8-1.3,0.5c-0.5-0.2-0.8-0.8-0.5-1.3c11.4-27.5,38.1-45.3,67.9-45.3
			c40.6,0,73.6,33,73.6,73.6c0,29.2-17.3,55.7-44.2,67.5C747.7,154.8,747.6,154.8,747.4,154.8z"/>
	</g>
	<g>
		<path fill="#E0F0FF" d="M791,88.2h-59.2c-0.6,0-1-0.4-1-1s0.4-1,1-1H790c-0.5-38.7-31.9-70.1-70.6-70.6v58.2c0,0.6-0.4,1-1,1
			c-0.6,0-1-0.4-1-1V14.6c0-0.6,0.4-1,1-1c40.6,0,73.6,33,73.6,73.6C792,87.8,791.6,88.2,791,88.2z"/>
	</g>
	<g>
		<path fill="#E0F0FF" d="M732.6,130.7c-0.4,0-0.8-0.3-0.9-0.7c-0.2-0.5,0.1-1.1,0.6-1.3c17.9-6,29.8-22.7,29.8-41.5
			c0-24.2-19.6-43.8-43.8-43.8c-19.3,0-36.1,12.4-41.8,30.8c-0.2,0.5-0.7,0.8-1.3,0.7c-0.5-0.2-0.8-0.7-0.7-1.3
			c6-19.3,23.6-32.2,43.7-32.2c25.3,0,45.8,20.5,45.8,45.8c0,19.7-12.5,37.1-31.2,43.4C732.8,130.7,732.7,130.7,732.6,130.7z"/>
	</g>
	<g>
		<path fill="#E0F0FF" d="M718.4,101.7c-8,0-14.4-6.5-14.4-14.4s6.5-14.4,14.4-14.4s14.4,6.5,14.4,14.4S726.3,101.7,718.4,101.7z
			 M718.4,74.9c-6.9,0-12.4,5.6-12.4,12.4c0,6.9,5.6,12.4,12.4,12.4s12.4-5.6,12.4-12.4C730.8,80.5,725.2,74.9,718.4,74.9z"/>
	</g>
	<g>
		<path fill="#E0F0FF" d="M700.8,76.3c-3.7,0-6.8-3-6.8-6.7s3-6.8,6.8-6.8c3.7,0,6.8,3,6.8,6.8C707.5,73.2,704.4,76.3,700.8,76.3z
			 M700.8,64.9c-2.6,0-4.8,2.1-4.8,4.8c0,2.6,2.1,4.7,4.8,4.7c2.6,0,4.8-2.1,4.8-4.7C705.5,67,703.3,64.9,700.8,64.9z"/>
	</g>
	<g>
		<path fill="#E0F0FF" d="M767.6,65.6c-2.9,0-5.3-2.4-5.3-5.3c0-2.9,2.4-5.3,5.3-5.3c2.9,0,5.3,2.4,5.3,5.3
			C772.9,63.2,770.5,65.6,767.6,65.6z M767.6,57c-1.8,0-3.3,1.5-3.3,3.3s1.5,3.3,3.3,3.3s3.3-1.5,3.3-3.3
			C770.9,58.5,769.4,57,767.6,57z"/>
	</g>
	<g>
		<path fill="#E0F0FF" d="M734.7,68.4c-1.7,0-3.2-1.4-3.2-3.2s1.4-3.2,3.2-3.2c1.7,0,3.2,1.4,3.2,3.2
			C737.9,67.1,736.5,68.4,734.7,68.4z M734.7,64.2c-0.6,0-1.2,0.5-1.2,1.2c0,0.7,0.5,1.2,1.2,1.2c0.7,0,1.2-0.5,1.2-1.2
			C735.9,64.7,735.4,64.2,734.7,64.2z"/>
	</g>
	<g>
		<path fill="#E0F0FF" d="M705,88.2h-12.3c-0.6,0-1-0.4-1-1s0.4-1,1-1H705c0.6,0,1,0.4,1,1S705.5,88.2,705,88.2z"/>
	</g>
	<g>
		<path fill="#E0F0FF" d="M718.4,111.2c-0.6,0-1-0.4-1-1V101c0-0.6,0.4-1,1-1c0.6,0,1,0.4,1,1v9.3
			C719.4,110.8,719,111.2,718.4,111.2z"/>
	</g>
</g>
<g>
	<g>
		<path fill="#FFFFFF" d="M557.9,32.1c87.3,6.7,161.5,60.4,197.1,136"/>
	</g>
	<g>
		<path fill="#E0F0FF" d="M755,169c-0.4,0-0.7-0.2-0.9-0.6c-36.3-77-111.5-128.9-196.2-135.3c-0.6,0-1-0.5-0.9-1.1
			c0.1-0.6,0.5-1,1.1-0.9c85.5,6.5,161.3,58.8,197.9,136.6c0.2,0.5,0,1.1-0.5,1.3C755.3,169,755.2,169,755,169z"/>
	</g>
</g>
<g>
	<path fill="#82C2FE" d="M687.3,231.2c-10.6-7.1-30.2-7.6-30.2-18.9c0-7.6,7.6-11.3,7.6-26.5v-3.8c0-15.1-11.4-18.9-19-18.9
		s-19,3.8-19,18.9v3.8c0,15.1,7.6,18.9,7.6,26.5c0,11.3-19.6,11.8-30.2,18.9c-2.4,1.6-3.8,3.8-3.8,7.6v11.4H691v-11.4
		C691.1,235,689.7,232.8,687.3,231.2z"/>
</g>
<g>
	<path fill="#2E9AFE" d="M691.1,251.1h-90.8c-0.6,0-1-0.4-1-1v-11.4c0-3.8,1.4-6.5,4.3-8.4c3.9-2.6,8.9-4.3,13.7-6
		c8.3-2.9,16.1-5.6,16.1-12.1c0-2.9-1.2-5.2-2.7-8.1c-2.2-4.2-4.9-9.4-4.9-18.4V182c0-14.7,10.3-19.9,20-19.9s20,5.3,20,19.9v3.8
		c0,9.2-2.7,14.2-4.9,18.4c-1.5,2.9-2.7,5.2-2.7,8.1c0,6.7,7.9,9.4,16.1,12.1c4.8,1.7,9.7,3.4,13.7,6c2.9,2,4.2,4.6,4.2,8.4v11.4
		C692.1,250.7,691.6,251.1,691.1,251.1z M601.3,249.1h88.8v-10.4c0-3.2-1-5.2-3.3-6.8c-3.7-2.5-8.6-4.1-13.2-5.7
		c-9-3.1-17.5-6-17.5-14c0-3.4,1.4-6,3-9c2.2-4.2,4.7-8.9,4.7-17.5V182c0-17.1-15-17.9-18-17.9c-3,0-18,0.9-18,17.9v3.8
		c0,8.7,2.5,13.3,4.7,17.5c1.6,3,3,5.6,3,9c0,8.1-8.5,10.9-17.5,14c-4.7,1.6-9.6,3.3-13.2,5.7c-2.4,1.6-3.4,3.6-3.4,6.8L601.3,249.1
		L601.3,249.1z"/>
</g>
<g>
	<circle fill="#E0F0FF" cx="605.9" cy="94.8" r="18.1"/>
	<path fill="#2E9AFE" d="M605.9,114c-10.5,0-19.1-8.6-19.1-19.1s8.6-19.1,19.1-19.1S625,84.4,625,94.9S616.5,114,605.9,114z
		 M605.9,77.7c-9.5,0-17.1,7.7-17.1,17.1s7.7,17.1,17.1,17.1s17.1-7.7,17.1-17.1S615.4,77.7,605.9,77.7z"/>
</g>
<g>
	<circle fill="#FFFFFF" cx="605.9" cy="94.8" r="8.1"/>
	<path fill="#2E9AFE" d="M605.9,104c-5,0-9.1-4.1-9.1-9.1s4.1-9.1,9.1-9.1c5,0,9.1,4.1,9.1,9.1S611,104,605.9,104z M605.9,87.7
		c-3.9,0-7.1,3.2-7.1,7.1c0,3.9,3.2,7.1,7.1,7.1c3.9,0,7.1-3.2,7.1-7.1C613,90.9,609.9,87.7,605.9,87.7z"/>
</g>
<g>
	<path fill="#F6FAFF" d="M605.9,80.7c7,0,13.1,3.8,16.5,9.5c-2-7.2-8.7-12.4-16.5-12.4s-14.4,5.3-16.5,12.4
		C592.8,84.5,599.1,80.7,605.9,80.7z"/>
</g>
<g>
	<path fill="#2E9AFE" d="M605.9,95.8c-0.3,0-0.5-0.1-0.7-0.3c-0.4-0.4-0.4-1,0-1.4l23.3-23.3c0.4-0.4,1-0.4,1.4,0
		c0.4,0.4,0.4,1,0,1.4l-23.3,23.3C606.4,95.7,606.2,95.8,605.9,95.8z"/>
</g>
<g>
	<polygon fill="#FFFFFF" points="629.1,77.2 624,76.8 623.6,71.7 633.7,61.6 634.2,66.7 639.3,67.2 	"/>
	<path fill="#2E9AFE" d="M629.1,78.2C629,78.2,629,78.2,629.1,78.2l-5.2-0.5c-0.5,0-0.9-0.4-0.9-0.9l-0.5-5.1c0-0.3,0.1-0.6,0.3-0.8
		L633,60.8c0.3-0.3,0.7-0.4,1-0.2c0.4,0.1,0.6,0.5,0.7,0.9l0.4,4.3l4.3,0.4c0.4,0,0.7,0.3,0.8,0.7c0.1,0.4,0,0.8-0.2,1L629.8,78
		C629.6,78.1,629.3,78.2,629.1,78.2z M624.9,75.9l3.8,0.3l8.3-8.3l-3-0.3c-0.5,0-0.9-0.4-0.9-0.9l-0.3-3l-8.3,8.3L624.9,75.9z"/>
</g>
<g>
	<g>
		<g>
			<path fill="#E0F0FF" d="M500.3,172.1c8.9,0,16,7.2,16,16s-7.2,16-16,16s-16-7.2-16-16C484.3,179.4,491.4,172.1,500.3,172.1z"/>
		</g>
	</g>
</g>
<g>
	<g>
		<g>
			<path fill="#2E9AFE" d="M500.3,205.2c-9.4,0-17-7.7-17-17c0-9.5,7.7-17,17-17s17,7.7,17,17C517.4,197.6,509.7,205.2,500.3,205.2z
				 M500.3,173.1c-8.3,0-15,6.8-15,15s6.8,15,15,15c8.3,0,15-6.8,15-15C515.4,179.9,508.6,173.1,500.3,173.1z"/>
		</g>
	</g>
</g>
<g>
	<path fill="#FFFFFF" d="M526.2,214.7c5.7-7,7-0.7,7-0.7s-5.6,13.3-15.3,15.4c-9.7,2.1-32.8,1.3-32.8,1.3l-7.7,0.2h-5.8
		c-1,0-1.9-0.8-1.9-1.9v-6.9c0-1,0.8-1.9,1.9-1.9h5.8l4.2-4.9c0,0,1.4-1.4,3.5-2c2-0.6,27.3-4.2,27.3-4.2s4.2-0.7,4.2,2.1
		c0,2.8-4.9,4.2-4.9,4.2l-13.9,3.5c0,0-2.1,0.6-2.1,2l0,0c1.8,1.4,4,2.1,6.3,2.1l13.2,0.1C515,223.1,519.9,222.4,526.2,214.7z"/>
	<path fill="#2E9AFE" d="M471.5,231.9c-1.6,0-2.9-1.3-2.9-2.9v-6.9c0-1.6,1.3-2.9,2.9-2.9h5.4l3.9-4.6c0.1-0.1,1.7-1.6,4-2.3
		c2-0.6,24.8-3.9,27.4-4.2c0.3,0,2.9-0.4,4.4,0.8c0.7,0.6,1,1.3,1,2.3c0,3.5-5.1,5-5.6,5.2l-14,3.5c-0.3,0.1-0.9,0.4-1.2,0.7
		c1.5,1,3.3,1.5,5.1,1.5l13.1,0.1c0.6-0.1,5-1.3,10.4-8.1l0,0c2.3-2.8,4.3-4,6-3.6c2.1,0.5,2.7,3,2.7,3.3c0,0.2,0,0.4-0.1,0.6
		c-0.2,0.6-5.9,13.8-16,16c-9.7,2.1-32.1,1.4-33,1.3l-7.7,0.2L471.5,231.9L471.5,231.9z M471.5,221.4c-0.5,0-0.9,0.4-0.9,0.9v6.9
		c0,0.5,0.4,0.9,0.9,0.9h5.8l7.7-0.2c0.3,0,23.1,0.8,32.6-1.3c8.4-1.8,13.6-12.5,14.5-14.5c-0.2-0.5-0.6-1.3-1.2-1.5
		c-0.4-0.1-1.6,0-4,2.9l0,0c-6.5,7.9-11.5,8.8-11.7,8.9c-0.1,0-0.1,0-0.2,0l-13.2-0.1c-2.5,0-4.9-0.8-6.9-2.3
		c-0.3-0.2-0.4-0.5-0.4-0.8c0-2.1,2.5-2.9,2.8-3l14-3.5c1.1-0.3,4.2-1.6,4.2-3.2c0-0.4-0.2-0.6-0.3-0.7c-0.6-0.5-2.1-0.5-2.8-0.4
		c-10.1,1.4-25.7,3.8-27.1,4.2c-1.8,0.5-3.1,1.8-3.1,1.8l-4.2,4.9c-0.2,0.2-0.5,0.3-0.8,0.3L471.5,221.4L471.5,221.4z M526.2,214.7
		L526.2,214.7L526.2,214.7z"/>
</g>
<g>
	<g>
		<circle fill="#FFFFFF" cx="229.9" cy="206.3" r="28.1"/>
		<path fill="#2E9AFE" d="M229.9,235.4c-16,0-29-13-29-29s13-29,29-29s29,13,29,29S245.9,235.4,229.9,235.4z M229.9,179.3
			c-14.9,0-27.1,12.1-27.1,27.1c0,14.9,12.1,27.1,27.1,27.1s27.1-12.1,27.1-27.1C257,191.4,244.8,179.3,229.9,179.3z"/>
	</g>
	<g>
		<path fill="#2E9AFE" d="M227.1,214.6c-0.3,0-0.5-0.1-0.7-0.3l-8.9-8.9c-0.4-0.4-0.4-1,0-1.4c0.4-0.4,1-0.4,1.4,0l8.2,8.2
			l13.9-13.9c0.4-0.4,1-0.4,1.4,0c0.4,0.4,0.4,1,0,1.4l-14.6,14.6C227.6,214.5,227.3,214.6,227.1,214.6z"/>
	</g>
</g>
<g>
	<g>
		<path fill="#2E9AFE" d="M501.1,179.7c2.1,0.3,3.1,1.9,3.1,4.3v0.3c0,0.5-0.4,0.9-0.9,0.9l0,0c-0.5,0-0.9-0.4-0.9-0.9v-0.5
			c0-1.5-0.6-2.5-2-2.5s-2,0.9-2,2.5c0,3.9,5.8,3.9,5.8,8.8c0,2.3-1,4-3.1,4.3v0.5c0,0.4-0.4,0.8-0.8,0.8l0,0
			c-0.4,0-0.8-0.4-0.8-0.8v-0.5c-2.2-0.3-3.1-1.9-3.1-4.3V192c0-0.5,0.4-0.9,0.9-0.9l0,0c0.5,0,0.9,0.4,0.9,0.9v0.6
			c0,1.6,0.6,2.5,2,2.5s2-0.9,2-2.5c0-3.9-5.8-3.9-5.8-8.8c0-2.4,1-3.9,3-4.3V179c0-0.4,0.4-0.8,0.8-0.8l0,0c0.4,0,0.8,0.4,0.8,0.8
			L501.1,179.7L501.1,179.7z"/>
	</g>
</g>
<g>
	<path fill="#E0F0FF" d="M283.5,98.4H120c-0.6,0-1-0.4-1-1c0-0.6,0.4-1,1-1h163.6c0.6,0,1,0.4,1,1C284.5,98,284.1,98.4,283.5,98.4z"
		/>
</g>
<g>
	<path fill="#E0F0FF" d="M211.5,165.9H53.3c-0.6,0-1-0.4-1-1s0.4-1,1-1h158.2c0.6,0,1,0.4,1,1S212,165.9,211.5,165.9z"/>
</g>
<g>
	<path fill="#E0F0FF" d="M963.8,165.9h-12.7c-0.6,0-1-0.4-1-1s0.4-1,1-1h12.7c0.6,0,1,0.4,1,1S964.4,165.9,963.8,165.9z"/>
</g>
<g>
	<path fill="#E0F0FF" d="M1052.1,99.8H849.2c-0.6,0-1-0.4-1-1s0.4-1,1-1h202.9c0.6,0,1,0.4,1,1S1052.6,99.8,1052.1,99.8z"/>
</g>
<g>
	<path fill="#E0F0FF" d="M930.5,165.9H824.3c-0.6,0-1-0.4-1-1s0.4-1,1-1h106.1c0.6,0,1,0.4,1,1S931.1,165.9,930.5,165.9z"/>
</g>
<g>
	<path fill="#E0F0FF" d="M1097.9,232.1H815.4c-0.6,0-1-0.4-1-1c0-0.6,0.4-1,1-1h282.5c0.6,0,1,0.4,1,1
		C1098.9,231.7,1098.4,232.1,1097.9,232.1z"/>
</g>
<g>
	<path fill="#E0F0FF" d="M175.7,232.1H59.3c-0.6,0-1-0.4-1-1c0-0.6,0.4-1,1-1h116.4c0.6,0,1,0.4,1,1
		C176.7,231.7,176.2,232.1,175.7,232.1z"/>
</g>
<g>
	<path fill="#9ED0FE" d="M542.4,19.8c0.5,0,0.9,0.1,1.3,0.3v-2c0-0.7-0.6-1.3-1.3-1.3h-5.3c-0.7,0-1.3,0.6-1.3,1.3v2
		c0.4-0.2,0.8-0.3,1.3-0.3H542.4z"/>
</g>
<g>
	<path fill="#9ED0FE" d="M494.3,19.8c0.5,0,0.9,0.1,1.3,0.3v-2c0-0.7-0.6-1.3-1.3-1.3H489c-0.7,0-1.3,0.6-1.3,1.3v2
		c0.4-0.2,0.8-0.3,1.3-0.3H494.3z"/>
</g>
<g>
	<path fill="#F6FAFF" d="M359.5,60.3c-2.6,0-13.9,0.6-17.2,11.6c3.8-6.2,10.6-8.7,17.2-8.7c6.6,0,13.4,2.4,17.2,8.6
		C373.5,60.9,362.1,60.3,359.5,60.3z"/>
</g>
<g>
	<path fill="#F6FAFF" d="M318.3,128.4c-2,1.3-3,3-3.3,5.3c0.6-0.7,1.3-1.4,2.2-1.9l0,0c3.9-2.6,8.9-4.3,13.7-6
		c8-2.7,15.4-5.3,16.1-11.2c-3.1,3.9-9.2,6-15.5,8.2C326.9,124.3,322,125.9,318.3,128.4z"/>
</g>
<g>
	<path fill="#F6FAFF" d="M400.7,128.4c-3.7-2.5-8.6-4.1-13.2-5.8c-6.4-2.2-12.4-4.3-15.5-8.2c0.7,6,8.3,8.6,16.1,11.2
		c4.8,1.7,9.8,3.4,13.7,6c0.8,0.6,1.6,1.2,2.2,1.9C403.7,131.3,402.7,129.7,400.7,128.4z"/>
</g>
<g>
	<path fill="#F6FAFF" d="M418.1,184.6c-5.1,0-9.3,3.6-10.2,8.4c2.3-3.3,6.1-5.4,10.2-5.4c4.2,0,8,2.1,10.2,5.4
		c-0.4-2-1.4-3.8-2.9-5.3C423.6,185.7,420.9,184.6,418.1,184.6z"/>
</g>
<g>
	<path fill="#9ED0FE" d="M645.6,167c6.6,0,13.4,2.4,17.1,8.6c-3.2-10.9-14.5-11.5-17.1-11.5s-13.9,0.6-17.1,11.5
		C632.3,169.4,639.2,167,645.6,167z"/>
</g>
<g>
	<path fill="#9ED0FE" d="M686.7,232c-3.7-2.5-8.6-4.1-13.2-5.7c-6.4-2.2-12.4-4.3-15.4-8.2c0.7,6,8.2,8.6,16.1,11.2
		c4.8,1.7,9.7,3.4,13.7,6c0.8,0.6,1.6,1.2,2.1,1.9C689.7,234.9,688.7,233.3,686.7,232z"/>
</g>
<g>
	<path fill="#9ED0FE" d="M604.5,232c-2,1.3-3,3-3.3,5.3c0.6-0.7,1.3-1.4,2.2-1.9l0,0c3.9-2.6,8.9-4.3,13.6-6
		c7.9-2.7,15.4-5.3,16.1-11.2c-3.1,3.9-9.1,6-15.4,8.2C613.1,227.9,608.2,229.5,604.5,232z"/>
</g>
<g>
	<path fill="#F6FAFF" d="M500.3,176.1c6.2,0,11.5,3.2,14.5,8.2c-1.8-6.4-7.6-11.1-14.5-11.1s-12.8,4.7-14.5,11.1
		C488.8,179.3,494.2,176.1,500.3,176.1z"/>
</g>
</svg>
