<?xml version="1.0" encoding="utf-8"?>
<!-- Generator: Adobe Illustrator 21.0.0, SVG Export Plug-In . SVG Version: 6.00 Build 0)  -->
<svg version="1.1" id="Layer_1" xmlns="http://www.w3.org/2000/svg" xmlns:xlink="http://www.w3.org/1999/xlink" x="0px" y="0px"
	 viewBox="0 0 1140 268" style="enable-background:new 0 0 1140 268;" xml:space="preserve">
<style type="text/css">
	.st0{fill:#82C2FE;}
	.st1{fill:#2E9AFE;}
	.st2{fill:#9ED0FE;}
	.st3{fill:#FFFFFF;}
	.st4{fill:#E0F0FF;}
	.st5{fill:none;}
	.st6{fill:#F6FAFF;}
</style>
<g>
	<path class="st0" d="M542.1,47.1c-6.5-4.3-18.3-4.6-18.3-11.4c0-4.6,4.6-6.9,4.6-16v-2.3c0-9.2-6.9-11.4-11.5-11.4
		s-11.5,2.3-11.5,11.4v2.3c0,9.2,4.6,11.4,4.6,16c0,6.9-11.8,7.2-18.3,11.4c-1.4,1-2.3,2.3-2.3,4.6v6.9h54.9v-6.9
		C544.4,49.4,543.6,48.1,542.1,47.1z"/>
</g>
<g>
	<path class="st1" d="M542.7,46.3c-2.4-1.6-5.4-2.6-8.4-3.6c-5.1-1.7-9.5-3.3-9.5-7c0-1.6,0.7-3,1.6-4.7c1.3-2.5,3-5.7,3-11.3v-2.3
		c0-9.2-6.7-12.4-12.5-12.4s-12.5,3.3-12.5,12.4v2.3c0,5.6,1.7,8.8,3,11.3c0.9,1.7,1.6,3,1.6,4.7c0,3.7-4.4,5.2-9.5,7
		c-2.9,1-6,2-8.4,3.6c-1.9,1.3-2.7,3-2.7,5.4v6.9c0,0.6,0.4,1,1,1h54.9c0.6,0,1-0.4,1-1v-6.9C545.4,49.3,544.5,47.6,542.7,46.3z
		 M543.4,57.6h-52.9v-5.9c0-1.8,0.5-2.9,1.9-3.7c2.2-1.5,5.1-2.4,7.9-3.4c5.3-1.8,10.8-3.7,10.8-8.9c0-2.1-0.9-3.8-1.8-5.6
		c-1.3-2.5-2.8-5.3-2.8-10.4v-2.3C506.5,7.5,515.2,7,517,7s10.5,0.5,10.5,10.4v2.3c0,5.1-1.5,7.9-2.8,10.4c-0.9,1.8-1.8,3.5-1.8,5.6
		c0,5.1,5.5,7,10.8,8.9c2.8,1,5.7,2,7.9,3.4c1.3,0.9,1.8,2,1.8,3.7V57.6z"/>
</g>
<g>
	<path class="st2" d="M492.3,48c-1.3,0.9-1.8,2-1.8,3.7v0.2c0.2-0.2,0.5-0.4,0.7-0.6l0,0c2.4-1.6,5.4-2.6,8.4-3.6
		c5.1-1.7,9.5-3.3,9.5-7c0-0.1,0-0.3,0-0.4c-2,2-5.4,3.1-8.8,4.3C497.4,45.5,494.5,46.5,492.3,48z"/>
</g>
<g>
	<path class="st2" d="M516.9,9.9c3.8,0,7.8,1.3,10.2,4.7c-1.5-7.3-8.6-7.7-10.2-7.7s-8.7,0.4-10.2,7.7
		C509.2,11.3,513.2,9.9,516.9,9.9z"/>
</g>
<g>
	<path class="st2" d="M541.6,48c-2.2-1.4-5.1-2.4-7.9-3.4c-3.5-1.2-6.8-2.3-8.8-4.3c0,0.1,0,0.3,0,0.4c0,3.7,4.4,5.2,9.5,7
		c2.9,1,6,2,8.4,3.6c0.3,0.2,0.5,0.4,0.7,0.6v-0.1C543.4,49.9,542.9,48.8,541.6,48z"/>
</g>
<g>
	<g>
		<path class="st0" d="M900.9,22.4H655.7c-2.7,0-4.9-2.2-4.9-4.9l0,0c0-2.7,2.2-4.9,4.9-4.9H901c2.7,0,4.9,2.2,4.9,4.9l0,0
			C905.8,20.2,903.6,22.4,900.9,22.4z"/>
		<path class="st1" d="M900.9,23.4H655.7c-3.2,0-5.9-2.6-5.9-5.9s2.6-5.9,5.9-5.9H901c3.2,0,5.9,2.6,5.9,5.9S904.2,23.4,900.9,23.4z
			 M655.7,13.6c-2.1,0-3.9,1.7-3.9,3.9s1.7,3.9,3.9,3.9H901c2.1,0,3.9-1.7,3.9-3.9s-1.7-3.9-3.9-3.9H655.7z"/>
	</g>
	<g>
		<rect x="662.7" y="22.4" class="st3" width="231.2" height="168.2"/>
		<path class="st1" d="M893.9,191.6H662.7c-0.6,0-1-0.4-1-1V22.4c0-0.6,0.4-1,1-1h231.2c0.6,0,1,0.4,1,1v168.2
			C894.9,191.1,894.4,191.6,893.9,191.6z M663.7,189.6h229.2V23.4H663.7V189.6z"/>
	</g>
	<g>
		<path class="st0" d="M906.8,200.6h-257c-2.8,0-5-2.2-5-5l0,0c0-2.8,2.2-5,5-5h257c2.8,0,5,2.2,5,5l0,0
			C911.8,198.4,909.6,200.6,906.8,200.6z"/>
		<path class="st1" d="M906.8,201.6h-257c-3.3,0-6-2.7-6-6s2.7-6,6-6h257c3.3,0,6,2.7,6,6C912.8,198.9,910.1,201.6,906.8,201.6z
			 M649.8,191.6c-2.2,0-4,1.8-4,4s1.8,4,4,4h257c2.2,0,4-1.8,4-4s-1.8-4-4-4H649.8z"/>
	</g>
	<g>
		<g>
			<g>
				<path class="st4" d="M715.8,115.8l9.6-35.8c-3.1-0.8-6.3-1.3-9.6-1.3c-20.5,0-37,16.6-37,37c0,20.5,16.6,37,37,37
					c20.5,0,37-16.6,37-37c0-3.3-0.4-6.5-1.3-9.6L715.8,115.8z"/>
			</g>
			<g>
				<path class="st1" d="M715.8,153.9c-21,0-38-17.1-38-38s17.1-38,38-38c3.3,0,6.6,0.4,9.8,1.3c0.3,0.1,0.5,0.2,0.6,0.5
					c0.1,0.2,0.2,0.5,0.1,0.8l-9.1,34.1l34.1-9.1c0.3-0.1,0.5,0,0.8,0.1c0.2,0.1,0.4,0.4,0.5,0.6c0.9,3.2,1.3,6.5,1.3,9.8
					C753.9,136.8,736.8,153.9,715.8,153.9z M715.8,79.8c-19.9,0-36,16.2-36,36c0,19.9,16.2,36,36,36s36-16.2,36-36
					c0-2.8-0.3-5.6-1-8.4l-34.8,9.3c-0.3,0.1-0.7,0-1-0.3s-0.4-0.6-0.3-1l9.3-34.8C721.5,80.1,718.6,79.8,715.8,79.8z"/>
			</g>
		</g>
		<g>
			<path class="st0" d="M731.5,100.2l42.7-11.5c-4.1-15.2-16.1-27.2-31.3-31.3L731.5,100.2z"/>
			<path class="st1" d="M731.5,101.2c-0.3,0-0.5-0.1-0.7-0.3c-0.3-0.3-0.4-0.6-0.3-1L742,57.2c0.1-0.5,0.7-0.8,1.2-0.7
				c15.6,4.2,27.8,16.4,32,32c0.1,0.5-0.2,1.1-0.7,1.2l-42.7,11.5C731.7,101.1,731.6,101.2,731.5,101.2z M743.7,58.6L733,98.7
				L773,88C768.9,73.9,757.8,62.8,743.7,58.6z"/>
		</g>
		<g>
			<path class="st0" d="M877.8,61.6h-75.3c-0.6,0-1-0.4-1-1s0.4-1,1-1h75.3c0.6,0,1,0.4,1,1S878.3,61.6,877.8,61.6z"/>
		</g>
		<g>
			<path class="st0" d="M840.2,85.5h-37.6c-0.6,0-1-0.4-1-1s0.4-1,1-1h37.6c0.6,0,1,0.4,1,1S840.7,85.5,840.2,85.5z"/>
		</g>
		<g>
			<path class="st0" d="M877.8,109.4h-75.3c-0.6,0-1-0.4-1-1s0.4-1,1-1h75.3c0.6,0,1,0.4,1,1S878.3,109.4,877.8,109.4z"/>
		</g>
		<g>
			<g>
				<rect x="801.2" y="135.3" class="st4" width="76.6" height="33.4"/>
			</g>
			<g>
				<path class="st1" d="M877.8,169.7h-76.6c-0.6,0-1-0.4-1-1v-33.4c0-0.6,0.4-1,1-1h76.6c0.6,0,1,0.4,1,1v33.4
					C878.8,169.3,878.3,169.7,877.8,169.7z M802.2,167.7h74.6v-31.4h-74.6V167.7z"/>
			</g>
		</g>
	</g>
	<g>
		<g>
			<rect x="771.7" y="200.6" class="st4" width="13.3" height="68.3"/>
		</g>
		<g>
			<path class="st1" d="M784.9,269.9h-13.3c-0.6,0-1-0.4-1-1v-68.3c0-0.6,0.4-1,1-1h13.3c0.6,0,1,0.4,1,1v68.3
				C785.9,269.5,785.5,269.9,784.9,269.9z M772.7,267.9H784v-66.3h-11.3V267.9z"/>
		</g>
	</g>
</g>
<g>
	<path class="st2" d="M901.4,14.1H655.1c-1.6,0-2.8,1.3-2.8,2.8v0.5h252V17C904.2,15.4,903,14.1,901.4,14.1z"/>
</g>
<g>
	<path class="st2" d="M907.3,192.2H649.2c-1.6,0-2.8,1.3-2.8,2.8v0.5h263.8V195C910.1,193.5,908.9,192.2,907.3,192.2z"/>
</g>
<g>
	<path class="st4" d="M384.8,215.1H281c-5,0-9-4.1-9-9v-23.2c0-0.6,0.4-1,1-1s1,0.4,1,1v23.2c0,3.9,3.2,7,7,7h103.8c0.6,0,1,0.4,1,1
		S385.4,215.1,384.8,215.1z"/>
</g>
<g>
	<path class="st4" d="M207.8,117H100c-0.6,0-1-0.4-1-1s0.4-1,1-1h107.8c0.6,0,1,0.4,1,1S208.4,117,207.8,117z"/>
</g>
<g>
	<path class="st4" d="M1058.1,117H933.8c-0.6,0-1-0.4-1-1s0.4-1,1-1h124.3c0.6,0,1,0.4,1,1S1058.7,117,1058.1,117z"/>
</g>
<g>
	<path class="st4" d="M1116.6,188.6H957.8c-0.6,0-1-0.4-1-1s0.4-1,1-1h158.7c0.6,0,1,0.4,1,1S1117.1,188.6,1116.6,188.6z"/>
</g>
<g>
	<path class="st4" d="M454,45.4H239.7c-0.6,0-1-0.4-1-1s0.4-1,1-1H454c0.6,0,1,0.4,1,1S454.6,45.4,454,45.4z"/>
</g>
<g>
	<path class="st4" d="M1094.6,45.4H977.7c-0.6,0-1-0.4-1-1s0.4-1,1-1h116.8c0.6,0,1,0.4,1,1S1095.1,45.4,1094.6,45.4z"/>
</g>
<g>
	<path class="st4" d="M636.7,45.4h-45.1c-0.6,0-1-0.4-1-1s0.4-1,1-1h45.1c0.6,0,1,0.4,1,1S637.2,45.4,636.7,45.4z"/>
</g>
<g>
	<path class="st4" d="M631.1,95.3H479c-0.6,0-1-0.4-1-1s0.4-1,1-1h152.1c0.6,0,1,0.4,1,1S631.6,95.3,631.1,95.3z"/>
</g>
<g>
	<path class="st0" d="M609.1,261.4h-185c-6.1,0-11.1-5-11.1-11.1V143.4c0-6.1,5-11.1,11.1-11.1h185c6.1,0,11.1,5,11.1,11.1v106.9
		C620.2,256.4,615.2,261.4,609.1,261.4z"/>
	<path class="st1" d="M609.1,262.4h-185c-6.7,0-12.1-5.4-12.1-12.1V143.5c0-6.7,5.4-12.1,12.1-12.1h185c6.7,0,12.1,5.4,12.1,12.1
		v106.9C621.2,257,615.8,262.4,609.1,262.4z M424.1,133.4c-5.6,0-10.1,4.5-10.1,10.1v106.9c0,5.6,4.5,10.1,10.1,10.1h185
		c5.6,0,10.1-4.5,10.1-10.1V143.5c0-5.6-4.5-10.1-10.1-10.1H424.1z"/>
</g>
<g>
	<g>
		<rect x="428.8" y="147.8" class="st4" width="141.2" height="98.2"/>
	</g>
	<g>
		<path class="st1" d="M570,247H428.8c-0.6,0-1-0.4-1-1v-98.2c0-0.6,0.4-1,1-1H570c0.6,0,1,0.4,1,1V246C571,246.5,570.5,247,570,247
			z M429.8,245H569v-96.2H429.8V245z"/>
	</g>
</g>
<g>
	<g>
		<rect x="581.2" y="207.1" class="st3" width="28.5" height="9.8"/>
		<path class="st1" d="M609.7,217.9h-28.5c-0.6,0-1-0.4-1-1v-9.8c0-0.6,0.4-1,1-1h28.5c0.6,0,1,0.4,1,1v9.8
			C610.7,217.4,610.3,217.9,609.7,217.9z M582.2,215.9h26.5v-7.8h-26.5V215.9z"/>
	</g>
	<g>
		<rect x="581.2" y="216.8" class="st3" width="28.5" height="9.8"/>
		<path class="st1" d="M609.7,227.6h-28.5c-0.6,0-1-0.4-1-1v-9.8c0-0.6,0.4-1,1-1h28.5c0.6,0,1,0.4,1,1v9.8
			C610.7,227.1,610.3,227.6,609.7,227.6z M582.2,225.6h26.5v-7.8h-26.5V225.6z"/>
	</g>
	<g>
		<rect x="581.2" y="226.5" class="st3" width="28.5" height="9.8"/>
		<path class="st1" d="M609.7,237.3h-28.5c-0.6,0-1-0.4-1-1v-9.8c0-0.6,0.4-1,1-1h28.5c0.6,0,1,0.4,1,1v9.8
			C610.7,236.8,610.3,237.3,609.7,237.3z M582.2,235.3h26.5v-7.8h-26.5V235.3z"/>
	</g>
	<g>
		<rect x="581.2" y="236.2" class="st3" width="28.5" height="9.8"/>
		<path class="st1" d="M609.7,247h-28.5c-0.6,0-1-0.4-1-1v-9.8c0-0.6,0.4-1,1-1h28.5c0.6,0,1,0.4,1,1v9.8
			C610.7,246.5,610.3,247,609.7,247z M582.2,245h26.5v-7.8h-26.5V245z"/>
	</g>
</g>
<g>
	<circle class="st0" cx="603.4" cy="174.6" r="6.3"/>
	<path class="st1" d="M603.4,181.9c-4,0-7.3-3.3-7.3-7.3s3.3-7.3,7.3-7.3s7.3,3.3,7.3,7.3S607.5,181.9,603.4,181.9z M603.4,169.3
		c-2.9,0-5.3,2.4-5.3,5.3s2.4,5.3,5.3,5.3s5.3-2.4,5.3-5.3S606.4,169.3,603.4,169.3z"/>
</g>
<g>
	<polyline class="st4" points="429.5,196.6 451,196.6 461.7,180.2 480.9,226.8 504.5,168.9 522.7,224.7 537.8,184.3 542.2,196.6
		569,196.6 	"/>
	<path class="st1" d="M480.9,227.8c-0.4,0-0.8-0.2-0.9-0.6l-18.5-44.8l-9.6,14.8c-0.2,0.3-0.5,0.5-0.8,0.5h-21.6c-0.6,0-1-0.4-1-1
		s0.4-1,1-1h21l10.3-16c0.2-0.3,0.6-0.5,0.9-0.5c0.4,0,0.7,0.3,0.8,0.6l18.3,44.4l22.7-55.7c0.2-0.4,0.6-0.7,1-0.6
		c0.4,0,0.8,0.3,0.9,0.7l17.3,53.1l14.1-37.8c0.1-0.4,0.5-0.7,0.9-0.7l0,0c0.4,0,0.8,0.3,0.9,0.7l4.2,11.7h26c0.6,0,1,0.4,1,1
		s-0.4,1-1,1h-26.7c-0.4,0-0.8-0.3-0.9-0.7l-3.5-9.8L523.6,225c-0.1,0.4-0.5,0.6-1,0.7c-0.4,0-0.8-0.3-0.9-0.7l-17.3-53.3
		l-22.6,55.4C481.6,227.5,481.3,227.8,480.9,227.8L480.9,227.8z"/>
</g>
<g>
	<g>
		<rect x="569.7" y="261.4" class="st4" width="32.3" height="7.2"/>
		<path class="st1" d="M602,269.6h-32.3c-0.6,0-1-0.4-1-1v-7.2c0-0.6,0.4-1,1-1H602c0.6,0,1,0.4,1,1v7.2
			C603,269.2,602.6,269.6,602,269.6z M570.7,267.6H601v-5.2h-30.3V267.6z"/>
	</g>
	<g>
		<rect x="428.8" y="261.4" class="st4" width="32.3" height="7.2"/>
		<path class="st1" d="M461.1,269.6h-32.3c-0.6,0-1-0.4-1-1v-7.2c0-0.6,0.4-1,1-1h32.3c0.6,0,1,0.4,1,1v7.2
			C462.1,269.2,461.6,269.6,461.1,269.6z M429.8,267.6h30.3v-5.2h-30.3V267.6z"/>
	</g>
</g>
<g>
	<g>
		<path class="st4" d="M287.1,83.4H241v80.5h63.5v-63.1C297.7,93.9,293.9,90.1,287.1,83.4z"/>
		<path class="st1" d="M304.5,164.9H241c-0.6,0-1-0.4-1-1V83.4c0-0.6,0.4-1,1-1h46.1c0.3,0,0.5,0.1,0.7,0.3l17.4,17.4
			c0.2,0.2,0.3,0.4,0.3,0.7v63.1C305.5,164.4,305,164.9,304.5,164.9z M242,162.9h61.5v-61.7l-16.8-16.8H242V162.9z"/>
	</g>
	<g>
		<line class="st5" x1="252.7" y1="99.9" x2="274.9" y2="99.9"/>
		<path class="st1" d="M274.9,100.9h-22.2c-0.6,0-1-0.4-1-1s0.4-1,1-1h22.2c0.6,0,1,0.4,1,1S275.5,100.9,274.9,100.9z"/>
	</g>
	<g>
		<line class="st5" x1="271.2" y1="115.8" x2="292.7" y2="115.8"/>
		<path class="st1" d="M292.7,116.8h-21.5c-0.6,0-1-0.4-1-1s0.4-1,1-1h21.5c0.6,0,1,0.4,1,1S293.3,116.8,292.7,116.8z"/>
	</g>
	<g>
		<line class="st5" x1="271.2" y1="131.8" x2="292.7" y2="131.8"/>
		<path class="st1" d="M292.7,132.8h-21.5c-0.6,0-1-0.4-1-1s0.4-1,1-1h21.5c0.6,0,1,0.4,1,1S293.3,132.8,292.7,132.8z"/>
	</g>
	<g>
		<line class="st5" x1="271.2" y1="147.7" x2="292.7" y2="147.7"/>
		<path class="st1" d="M292.7,148.7h-21.5c-0.6,0-1-0.4-1-1s0.4-1,1-1h21.5c0.6,0,1,0.4,1,1S293.3,148.7,292.7,148.7z"/>
	</g>
	<g>
		<polyline class="st4" points="251.8,115.2 255.3,118.7 261.1,112.9 		"/>
		<path class="st1" d="M255.3,119.7c-0.3,0-0.5-0.1-0.7-0.3l-3.5-3.5c-0.4-0.4-0.4-1,0-1.4s1-0.4,1.4,0l2.8,2.8l5.1-5.1
			c0.4-0.4,1-0.4,1.4,0s0.4,1,0,1.4l-5.8,5.8C255.8,119.6,255.6,119.7,255.3,119.7z"/>
	</g>
	<g>
		<polyline class="st4" points="251.8,131.2 255.3,134.7 261.1,128.9 		"/>
		<path class="st1" d="M255.3,135.7c-0.3,0-0.5-0.1-0.7-0.3l-3.5-3.5c-0.4-0.4-0.4-1,0-1.4s1-0.4,1.4,0l2.8,2.8l5.1-5.1
			c0.4-0.4,1-0.4,1.4,0c0.4,0.4,0.4,1,0,1.4l-5.8,5.8C255.8,135.6,255.6,135.7,255.3,135.7z"/>
	</g>
	<g>
		<polyline class="st4" points="251.8,147.1 255.3,150.6 261.1,144.8 		"/>
		<path class="st1" d="M255.3,151.6c-0.3,0-0.5-0.1-0.7-0.3l-3.5-3.5c-0.4-0.4-0.4-1,0-1.4s1-0.4,1.4,0l2.8,2.8l5.1-5.1
			c0.4-0.4,1-0.4,1.4,0s0.4,1,0,1.4l-5.8,5.8C255.8,151.5,255.6,151.6,255.3,151.6z"/>
	</g>
	<g>
		<polyline class="st6" points="287.3,84.7 287.3,100 302.9,100 		"/>
	</g>
	<g>
		<path class="st1" d="M302.9,101h-15.6c-0.6,0-1-0.4-1-1V84.7c0-0.6,0.4-1,1-1s1,0.4,1,1V99h14.6c0.6,0,1,0.4,1,1
			S303.4,101,302.9,101z"/>
	</g>
</g>
<g>
	<path class="st0" d="M200.1,65.7h-43.5c-3.2,0-5.8-2.6-5.8-5.8v-30c0-3.2,2.6-5.8,5.8-5.8h43.5c3.2,0,5.8,2.6,5.8,5.8v30
		C205.9,63.1,203.3,65.7,200.1,65.7z"/>
	<path class="st1" d="M200.1,66.7h-43.5c-3.7,0-6.8-3-6.8-6.8v-30c0-3.7,3-6.8,6.8-6.8h43.5c3.7,0,6.8,3,6.8,6.8v30
		C206.9,63.6,203.9,66.7,200.1,66.7z M156.6,25.2c-2.6,0-4.8,2.1-4.8,4.8v30c0,2.6,2.1,4.8,4.8,4.8h43.5c2.6,0,4.8-2.1,4.8-4.8V30
		c0-2.6-2.1-4.8-4.8-4.8H156.6z"/>
</g>
<g>
	<path class="st2" d="M609.1,133.4h-185c-4.9,0-9,3.5-9.9,8.2c2.2-3.1,5.8-5.2,9.9-5.2h185c4.1,0,7.7,2,9.9,5.2
		C618.1,136.9,614,133.4,609.1,133.4z"/>
</g>
<g>

		<ellipse transform="matrix(0.7071 -0.7071 0.7071 0.7071 33.7678 324.5026)" class="st0" cx="408.6" cy="121.5" rx="52.8" ry="52.8"/>
	<path class="st1" d="M408.6,175.3c-13.8,0-27.5-5.2-38-15.7c-21-21-21-55.1,0-76.1s55.1-21,76.1,0s21,55.1,0,76.1
		C436.1,170,422.4,175.3,408.6,175.3z M408.6,69.7c-13.3,0-26.5,5-36.6,15.1c-20.2,20.2-20.2,53.1,0,73.2
		c20.2,20.2,53.1,20.2,73.2,0c20.2-20.2,20.2-53.1,0-73.2C435.1,74.8,421.9,69.7,408.6,69.7z"/>
</g>
<g>
	<path class="st1" d="M334.3,196.8c-0.3,0-0.5-0.1-0.7-0.3c-0.4-0.4-0.4-1,0-1.4l36.9-36.9c0.4-0.4,1-0.4,1.4,0s0.4,1,0,1.4
		L335,196.5C334.8,196.7,334.6,196.8,334.3,196.8z"/>
</g>
<g>
	<ellipse transform="matrix(0.7071 -0.7071 0.7071 0.7071 33.7678 324.5026)" class="st3" cx="408.6" cy="121.5" rx="40" ry="40"/>
	<path class="st1" d="M408.6,162.5c-10.5,0-21-4-29-12c-7.7-7.7-12-18-12-29s4.3-21.3,12-29c16-16,42-16,58,0c7.7,7.7,12,18,12,29
		s-4.3,21.3-12,29C429.6,158.5,419.1,162.5,408.6,162.5z M408.6,82.5c-10,0-20,3.8-27.6,11.4l0,0c-7.4,7.4-11.4,17.2-11.4,27.6
		s4.1,20.2,11.4,27.6c15.2,15.2,40,15.2,55.2,0c7.4-7.4,11.4-17.2,11.4-27.6s-4.1-20.2-11.4-27.6C428.6,86.3,418.6,82.5,408.6,82.5z
		 M380.3,93.2L380.3,93.2L380.3,93.2z"/>
</g>
<g>
	<g>
		<g>
			<path class="st4" d="M428.1,126.2L428.1,126.2c-1-0.4-1.7-1.5-1.5-2.6c0.2-1.3,0.2-2.6,0-4c-0.1-1.1,0.5-2.1,1.6-2.6l0,0
				c1.3-0.5,1.9-2,1.4-3.3l-0.5-1.3c-0.5-1.3-2-1.9-3.3-1.4l0,0c-1,0.4-2.2,0.1-2.9-0.7c-0.8-1.1-1.8-2-2.8-2.8
				c-0.9-0.7-1.1-1.9-0.7-2.9l0,0c0.5-1.3-0.1-2.8-1.3-3.3l-1.3-0.6c-1.3-0.5-2.8,0.1-3.3,1.3l0,0c-0.4,1-1.5,1.7-2.6,1.5
				c-1.3-0.2-2.6-0.2-4,0c-1.1,0.1-2.1-0.5-2.6-1.6l0,0c-0.5-1.3-2-1.9-3.3-1.4l-1.3,0.5c-1.3,0.5-1.9,2-1.4,3.3l0,0
				c0.4,1,0.1,2.2-0.7,2.9c-0.2,0.2-0.4,0.4-0.7,0.5l0,0c-0.8,0.7-1.5,1.5-2.2,2.3c-0.1,0.1-0.2,0.2-0.3,0.3
				c-0.7,0.6-1.7,0.8-2.6,0.4l0,0c-0.9-0.4-1.9-0.2-2.6,0.4c-0.3,0.3-0.6,0.6-0.8,1l-0.6,1.3c-0.5,1.3,0.1,2.8,1.3,3.3l0,0
				c1,0.4,1.7,1.5,1.5,2.6c-0.2,1.3-0.2,2.6,0,4c0.1,1.1-0.5,2.1-1.6,2.6l0,0c-1.3,0.5-1.9,2-1.4,3.3l0.5,1.3c0.5,1.3,2,1.9,3.3,1.4
				l0,0c1-0.4,2.2-0.1,2.9,0.7c0.8,1.1,1.8,2,2.8,2.8c0.9,0.7,1.1,1.9,0.7,2.9l0,0c-0.5,1.3,0.1,2.8,1.3,3.3l1.3,0.6
				c1.3,0.5,2.8-0.1,3.3-1.3l0,0c0.4-1,1.5-1.7,2.6-1.5c1.3,0.2,2.6,0.2,4,0c1.1-0.1,2.1,0.5,2.6,1.6l0,0c0.5,1.3,2,1.9,3.3,1.4
				l1.3-0.5c1.3-0.5,1.9-2,1.4-3.3l0,0c-0.4-1-0.1-2.2,0.7-2.9c0.2-0.2,0.4-0.4,0.7-0.5l0,0c0.8-0.7,1.5-1.5,2.2-2.3
				c0.1-0.1,0.2-0.2,0.3-0.3c0.7-0.6,1.7-0.8,2.6-0.4l0,0c0.9,0.4,1.9,0.2,2.6-0.4c0.3-0.3,0.6-0.6,0.8-1l0.6-1.3
				C430,128.3,429.4,126.8,428.1,126.2z M411.7,129.1c-4.1,1.6-8.7-0.3-10.3-4.4c-1.6-4.1,0.3-8.7,4.4-10.3s8.7,0.3,10.3,4.4
				C417.7,122.8,415.7,127.4,411.7,129.1z"/>
		</g>
	</g>
	<g>
		<g>
			<path class="st1" d="M415.4,143.7c-1.4,0-2.7-0.8-3.3-2.2c-0.3-0.6-0.9-1-1.5-1c-1.4,0.1-2.8,0.1-4.2,0c-0.7-0.1-1.3,0.3-1.6,0.9
				c-0.8,1.8-2.8,2.6-4.6,1.9l-1.3-0.6c-1.8-0.8-2.6-2.8-1.9-4.6c0.3-0.6,0.1-1.4-0.4-1.8c-1.1-0.9-2.1-1.9-2.9-3
				c-0.4-0.5-1.1-0.7-1.8-0.4c-1.8,0.7-3.9-0.1-4.6-1.9l-0.5-1.3c-0.4-0.9-0.3-1.8,0-2.7s1.1-1.5,1.9-1.9c0.6-0.3,1-0.9,1-1.5
				c-0.1-1.4-0.1-2.8,0-4.2c0.1-0.7-0.3-1.3-0.9-1.6c-1.8-0.8-2.6-2.8-1.9-4.6l0.6-1.3c0.2-0.5,0.6-1,1.1-1.4c1-0.8,2.4-1,3.6-0.5
				c0.5,0.2,1.2,0.1,1.6-0.2c0.1,0,0.1-0.1,0.2-0.2c0.7-0.9,1.5-1.7,2.3-2.4c0,0,0,0,0.1,0c0.2-0.2,0.4-0.4,0.6-0.5
				c0.5-0.4,0.7-1.1,0.4-1.8c-0.7-1.8,0.1-3.9,1.9-4.6l1.3-0.5c0.9-0.4,1.8-0.3,2.7,0c0.9,0.4,1.5,1.1,1.9,1.9c0.3,0.6,0.9,1,1.5,1
				c1.4-0.1,2.8-0.1,4.2,0c0.7,0.1,1.3-0.3,1.6-0.9c0.8-1.8,2.8-2.6,4.6-1.9l1.3,0.6c1.8,0.8,2.6,2.8,1.9,4.6
				c-0.3,0.6-0.1,1.4,0.4,1.8c1.1,0.9,2.1,1.9,2.9,3c0.4,0.5,1.1,0.7,1.8,0.4c1.8-0.7,3.9,0.1,4.6,1.9l0.5,1.3
				c0.4,0.9,0.3,1.8,0,2.7s-1.1,1.5-1.9,1.9c-0.6,0.3-1,0.9-1,1.5c0.1,1.4,0.1,2.8,0,4.2c-0.1,0.7,0.3,1.3,0.9,1.6l0,0
				c1.8,0.8,2.6,2.8,1.9,4.6l-0.6,1.3c-0.2,0.5-0.6,1-1.1,1.4c-1,0.8-2.4,1-3.6,0.5c-0.5-0.2-1.2-0.1-1.6,0.2
				c-0.1,0-0.1,0.1-0.2,0.2c-0.7,0.9-1.5,1.7-2.3,2.4c0,0,0,0-0.1,0c-0.2,0.2-0.4,0.4-0.6,0.5c-0.5,0.4-0.7,1.1-0.4,1.8
				c0.7,1.8-0.1,3.9-1.9,4.6l-1.3,0.5C416.2,143.6,415.8,143.7,415.4,143.7z M410.7,138.5c1.4,0,2.7,0.9,3.2,2.2
				c0.3,0.8,1.2,1.2,2,0.8l1.3-0.5c0.8-0.3,1.2-1.2,0.8-2c-0.6-1.4-0.2-3.1,1.1-4.1c0.2-0.2,0.4-0.3,0.6-0.5c0,0,0,0,0.1,0
				c0.7-0.6,1.4-1.3,2-2.1c0.1-0.2,0.3-0.3,0.4-0.4c1-0.9,2.4-1.1,3.7-0.6c0.5,0.2,1.1,0.1,1.6-0.2c0.2-0.2,0.4-0.4,0.5-0.6l0.6-1.3
				c0.3-0.8,0-1.7-0.8-2c-1.4-0.6-2.3-2.1-2.1-3.6c0.1-1.2,0.2-2.5,0-3.8c-0.2-1.5,0.7-3,2.2-3.6c0.4-0.2,0.7-0.4,0.8-0.8
				c0.2-0.4,0.2-0.8,0-1.2l-0.5-1.3c-0.3-0.8-1.2-1.2-2-0.8c-1.4,0.6-3.1,0.2-4.1-1.1c-0.8-1-1.7-1.9-2.6-2.7c-1.2-1-1.6-2.7-1-4.1
				c0.3-0.8,0-1.7-0.8-2l-1.3-0.6c-0.8-0.3-1.7,0-2,0.8c-0.6,1.4-2.1,2.3-3.6,2.1c-1.2-0.1-2.5-0.2-3.8,0c-1.5,0.2-3-0.7-3.6-2.2
				c-0.2-0.4-0.4-0.7-0.8-0.8c-0.4-0.2-0.8-0.2-1.2,0l-1.3,0.5c-0.8,0.3-1.2,1.2-0.8,2c0.6,1.4,0.2,3.1-1.1,4.1
				c-0.2,0.2-0.4,0.3-0.6,0.5c0,0,0,0-0.1,0c-0.7,0.6-1.4,1.3-2,2.1c-0.1,0.2-0.3,0.3-0.4,0.4c-1,0.9-2.4,1.1-3.7,0.6
				c-0.5-0.2-1.1-0.1-1.6,0.2c-0.2,0.2-0.4,0.4-0.5,0.6l-0.6,1.3c-0.3,0.8,0,1.7,0.8,2c1.4,0.6,2.3,2.1,2.1,3.6
				c-0.1,1.2-0.2,2.5,0,3.8c0.2,1.5-0.7,3-2.2,3.6c-0.4,0.2-0.7,0.4-0.8,0.8c-0.2,0.4-0.2,0.8,0,1.2l0.5,1.3c0.3,0.8,1.2,1.2,2,0.8
				c1.4-0.6,3.1-0.2,4.1,1.1c0.8,1,1.7,1.9,2.6,2.7c1.2,1,1.6,2.7,1,4.1c-0.2,0.4-0.2,0.8,0,1.2s0.4,0.7,0.8,0.8l1.3,0.6
				c0.4,0.2,0.8,0.2,1.2,0c0.4-0.2,0.7-0.4,0.8-0.8c0.6-1.4,2.1-2.3,3.6-2.1c1.2,0.1,2.5,0.2,3.8,0
				C410.4,138.5,410.6,138.5,410.7,138.5z M408.7,130.7c-1.2,0-2.4-0.2-3.5-0.7c-2.2-0.9-3.9-2.7-4.8-4.9s-0.9-4.6,0.1-6.8
				c0.9-2.2,2.7-3.9,4.9-4.8c4.6-1.9,9.8,0.4,11.6,4.9c1.9,4.6-0.4,9.8-4.9,11.6l0,0C410.9,130.4,409.8,130.7,408.7,130.7z
				 M411.7,129.1L411.7,129.1L411.7,129.1z M408.7,114.8c-0.9,0-1.7,0.2-2.6,0.5c-1.7,0.7-3.1,2-3.8,3.7c-0.7,1.7-0.7,3.6,0,5.3
				s2,3.1,3.7,3.8c1.7,0.7,3.6,0.7,5.3,0c3.5-1.4,5.3-5.5,3.8-9C414,116.4,411.4,114.8,408.7,114.8z"/>
		</g>
	</g>
</g>
<g>
	<path class="st2" d="M408.6,69.7c-13.8,0-26.8,5.4-36.6,15.2c-6.2,6.2-10.6,13.7-13,21.9c2.7-6.4,6.6-12.3,11.6-17.3
		c10.2-10.2,23.7-15.8,38-15.8s27.9,5.6,38,15.8c5,5,8.9,10.9,11.6,17.3c-2.4-8.2-6.9-15.7-13-21.9
		C435.4,75.1,422.4,69.7,408.6,69.7z"/>
</g>
<g>
	<path class="st2" d="M151.9,30.1c1.2-1.2,2.9-2,4.8-2h43.5c1.9,0,3.5,0.8,4.8,2v-0.2c0-2.6-2.1-4.8-4.8-4.8h-43.5
		c-2.6,0-4.8,2.1-4.8,4.8V30.1z"/>
</g>
<g>
	<path class="st1" d="M178.4,46.3c-1.7,0-3.5-0.6-4.9-1.8l-21-17.8c-0.4-0.4-0.5-1-0.1-1.4s1-0.5,1.4-0.1l21,17.8
		c2.1,1.8,5.1,1.8,7.2,0l21-17.8c0.4-0.4,1.1-0.3,1.4,0.1c0.4,0.4,0.3,1.1-0.1,1.4l-21,17.8C181.8,45.7,180.1,46.3,178.4,46.3z"/>
</g>
<g>
	<rect x="537" y="40.8" class="st4" width="39.9" height="27.9"/>
</g>
<g>
	<path class="st1" d="M576.8,39.8h-7.7v-9c0-6.7-5.5-12.2-12.2-12.2s-12.2,5.5-12.2,12.2v9H537c-0.6,0-1,0.4-1,1v27.9
		c0,0.6,0.4,1,1,1h39.9c0.6,0,1-0.4,1-1V40.8C577.8,40.3,577.4,39.8,576.8,39.8z M546.7,30.9c0-5.6,4.6-10.2,10.2-10.2
		c5.6,0,10.2,4.6,10.2,10.2v9h-20.4V30.9z M575.8,67.8H538V41.9h37.9v25.9H575.8z"/>
</g>
<g>
	<rect x="537.8" y="42.1" class="st6" width="38" height="2.3"/>
</g>
</svg>
