<?xml version="1.0" encoding="utf-8"?>
<!-- Generator: Adobe Illustrator 21.0.0, SVG Export Plug-In . SVG Version: 6.00 Build 0)  -->
<svg version="1.1" baseProfile="tiny" id="Layer_1" xmlns="http://www.w3.org/2000/svg" xmlns:xlink="http://www.w3.org/1999/xlink"
	 x="0px" y="0px" viewBox="0 0 1140 355" overflow="scroll" xml:space="preserve">
<g>
	<g>
		<path fill="#E0F0FF" d="M805.5,354H904c39.9-31.2,64.5-79.8,64.5-132.2c0-25.8-5.8-50.6-17.1-73.8l-1.5-3.1
			c-1.6-3.4-5.7-4.8-9.1-3.2l-3.1,1.4c-25,11.6-54.7,8.8-77-7l-6-4.2l-6,4.2c-22.3,15.8-51.9,18.7-77,7l-3.1-1.4
			c-3.4-1.6-7.4-0.1-9.1,3.2L758,148c-11.3,23.2-17.1,48-17.1,73.8C741,274.2,765.6,322.8,805.5,354z"/>
	</g>
	<g>
		<path fill="#2E9AFE" d="M904,355h-98.5c-0.2,0-0.4-0.1-0.6-0.2c-19.9-15.6-36.3-35.8-47.5-58.5C746,273.2,740,247.4,740,221.7
			c0-26,5.8-50.9,17.2-74.2l1.5-3.1c1.9-3.8,6.5-5.5,10.4-3.7l3.1,1.4c24.7,11.4,53.8,8.8,76-7l6-4.2c0.3-0.2,0.8-0.2,1.2,0l6,4.2
			c22.2,15.7,51.3,18.4,76,7l3.1-1.4c3.9-1.8,8.5-0.1,10.4,3.7l1.5,3.1c11.4,23.3,17.2,48.3,17.2,74.2c0,25.7-6,51.4-17.4,74.5
			c-11.2,22.7-27.6,42.9-47.5,58.5C904.4,354.9,904.2,355,904,355z M805.8,353h97.8c40-31.4,63.8-80.5,63.8-131.2
			c0-25.6-5.7-50.3-17-73.3l-1.5-3.1c-1.4-2.8-4.9-4.1-7.7-2.7l-3.1,1.4c-25.3,11.7-55.2,9-78-7.1l-5.4-3.8l-5.4,3.8
			c-22.8,16.1-52.6,18.9-78,7.1l-3.1-1.4c-2.9-1.3-6.4-0.1-7.7,2.7l-1.5,3.1c-11.3,23-17,47.7-17,73.3
			C742,272.5,765.8,321.5,805.8,353z"/>
	</g>
</g>
<g>
	<g>
		<path fill="#E0F0FF" d="M400.4,245.8L400.4,245.8c-10.3,4.2-15.3,15.9-11.1,26.2l4.2,10.5c4.2,10.3,15.9,15.3,26.2,11.1l0,0
			c8.2-3.3,17.7-1,23.2,5.9c6.6,8.4,14,15.9,22.2,22.5c6.9,5.6,9.1,15.1,5.6,23.3l0,0c-1.2,2.8-1.7,5.8-1.6,8.7h61.6
			c2.5-0.8,5.3-1.1,8.1-0.7c2.7,0.3,5.5,0.6,8.3,0.7h17c2.1-0.1,4.2-0.3,6.3-0.5c2.3-0.2,4.6,0,6.7,0.5H640c0-2.5-0.5-5-1.5-7.4l0,0
			c-3.3-8.2-1-17.7,5.9-23.2c1.8-1.4,3.5-2.8,5.2-4.3l0,0c6.4-5.5,12.2-11.6,17.5-18c0.7-0.9,1.5-1.6,2.3-2.3
			c5.7-4.9,13.8-6.1,20.8-3.1l0,0c7.1,3,14.9,1.6,20.5-2.9c2.6-2,4.7-4.7,6-7.9l4.4-10.4c4.3-10.2-0.5-22.1-10.7-26.4l0,0
			c-8.2-3.5-13.2-11.8-12.2-20.6c1.2-10.4,1.3-21,0.2-31.6c-0.9-8.8,4.3-17.1,12.5-20.4l0,0c10.3-4.2,15.3-15.9,11.1-26.2l-4.2-10.5
			c-4.2-10.3-15.9-15.3-26.2-11.1l0,0c-8.2,3.3-17.7,1-23.2-5.9c-6.6-8.4-14-15.9-22.2-22.5c-6.9-5.6-9.1-15.1-5.6-23.3l0,0
			c4.3-10.2-0.5-22.1-10.7-26.4l-10.4-4.4c-10.2-4.3-22.1,0.5-26.4,10.7l0,0c-3.5,8.2-11.8,13.2-20.6,12.2
			c-10.4-1.2-21-1.3-31.6-0.2c-8.8,0.9-17.1-4.3-20.4-12.5l0,0c-4.2-10.3-15.9-15.3-26.2-11.1l-10.5,4.2
			c-10.3,4.2-15.3,15.9-11.1,26.2l0,0c3.3,8.2,1,17.7-5.9,23.2c-1.8,1.4-3.5,2.8-5.2,4.3l0,0c-6.4,5.5-12.2,11.6-17.5,18
			c-0.7,0.9-1.5,1.6-2.3,2.3c-5.7,4.9-13.8,6.1-20.8,3.1l0,0c-7.1-3-14.9-1.6-20.5,2.9c-2.6,2-4.7,4.7-6,7.9l-4.4,10.4
			c-4.3,10.2,0.5,22.1,10.7,26.4l0,0c8.2,3.5,13.2,11.8,12.2,20.6c-1.2,10.4-1.3,21-0.2,31.6C413.8,234.2,408.6,242.5,400.4,245.8z"
			/>
	</g>
	<g>
		<path fill="#2E9AFE" d="M640.1,355h-62.9c-0.1,0-0.2,0-0.2,0c-2.1-0.5-4.3-0.7-6.4-0.5c-1.9,0.2-4,0.4-6.3,0.5h-17.1
			c-2.9-0.2-5.7-0.4-8.4-0.7c-2.6-0.3-5.1-0.1-7.6,0.7c-0.1,0-0.2,0-0.3,0h-61.6c-0.5,0-1-0.4-1-1c-0.1-3.2,0.4-6.2,1.6-9.1
			c3.3-7.8,1.1-16.9-5.3-22.1c-8.2-6.7-15.7-14.3-22.3-22.7c-5.1-6.5-14.2-8.8-22-5.6c-10.8,4.4-23.2-0.9-27.5-11.7l-4.2-10.5
			c-4.4-10.8,0.8-23.2,11.7-27.5l0,0c7.8-3.2,12.7-11.1,11.9-19.4c-1.1-10.6-1-21.3,0.2-31.8c1-8.2-3.8-16.3-11.6-19.6
			c-5.2-2.2-9.2-6.3-11.4-11.5c-2.1-5.2-2.1-11,0.1-16.2l4.4-10.4c1.4-3.3,3.6-6.1,6.3-8.3c6.1-4.9,14.3-6.1,21.5-3.1l0,0
			c6.6,2.8,14.4,1.6,19.8-3c0.8-0.7,1.5-1.4,2.1-2.2c5.3-6.5,11.2-12.6,17.6-18.1c0,0,0.1-0.1,0.2-0.1c1.8-1.6,3.5-2.9,5.1-4.2
			c6.5-5.1,8.8-14.2,5.6-22c-4.4-10.8,0.8-23.2,11.7-27.5l10.5-4.2c10.8-4.4,23.2,0.8,27.5,11.7c3.2,7.8,11.1,12.7,19.4,11.9
			c10.6-1.1,21.3-1,31.8,0.2c8.3,1,16.3-3.8,19.6-11.6c4.5-10.7,17-15.8,27.7-11.2l10.4,4.4c10.7,4.5,15.8,17,11.2,27.7
			c-3.3,7.8-1.1,16.9,5.3,22.1c8.2,6.7,15.7,14.3,22.3,22.7c5.1,6.5,14.2,8.8,22,5.6c5.2-2.1,11-2.1,16.2,0.1
			c5.2,2.2,9.2,6.3,11.4,11.5l4.2,10.5c4.4,10.8-0.8,23.2-11.7,27.5l0,0c-7.8,3.2-12.7,11.1-11.8,19.4c1.1,10.6,1,21.3-0.2,31.8
			c-1,8.2,3.8,16.3,11.6,19.6c10.7,4.5,15.8,17,11.2,27.7l-4.4,10.4c-1.4,3.3-3.6,6.1-6.3,8.3c-6.1,4.9-14.3,6.1-21.6,3
			c-6.6-2.8-14.4-1.6-19.8,3c-0.8,0.7-1.5,1.4-2.1,2.2c-5.3,6.5-11.2,12.6-17.6,18.1c0,0-0.1,0.1-0.2,0.1c-1.8,1.6-3.5,2.9-5.1,4.2
			c-6.5,5.1-8.8,14.2-5.6,22c1,2.5,1.5,5.1,1.5,7.7c0,0.3-0.1,0.5-0.3,0.7C640.6,354.9,640.4,355,640.1,355z M639.1,353
			c-0.1-2.1-0.6-4.1-1.4-6c-3.5-8.7-0.9-18.7,6.3-24.3c1.6-1.3,3.3-2.7,5.1-4.3c0,0,0.1-0.1,0.2-0.1c6.2-5.4,12-11.4,17.2-17.8
			c0.7-0.9,1.5-1.7,2.4-2.5c6-5.1,14.6-6.4,21.9-3.3c6.5,2.8,14,1.7,19.5-2.8c2.5-2,4.5-4.6,5.7-7.5l4.4-10.4
			c4.1-9.7-0.4-21-10.2-25.1c-8.6-3.6-13.9-12.6-12.8-21.7c1.2-10.4,1.3-21,0.2-31.4c-0.9-9.1,4.4-17.9,13.1-21.4l0,0
			c9.8-4,14.5-15.1,10.5-24.9L717,139c-1.9-4.7-5.6-8.4-10.3-10.4s-9.9-2-14.7-0.1c-8.7,3.5-18.7,0.9-24.3-6.3
			c-6.5-8.2-13.9-15.7-22-22.4c-7.1-5.8-9.6-15.8-5.9-24.4c4.1-9.7-0.4-21-10.2-25.1L619.4,46c-9.7-4.1-21,0.4-25.1,10.2
			c-3.6,8.6-12.6,13.9-21.7,12.8c-10.4-1.2-21-1.3-31.4-0.2c-9.1,0.9-17.9-4.4-21.4-13.1c-4-9.8-15.1-14.5-24.9-10.6l-10.5,4.2
			c-9.8,4-14.5,15.1-10.6,24.9c3.5,8.7,0.9,18.7-6.3,24.3c-1.6,1.3-3.3,2.7-5.1,4.3c0,0-0.1,0.1-0.2,0.1c-6.2,5.4-12,11.4-17.2,17.8
			c-0.7,0.9-1.5,1.7-2.4,2.5c-6,5.1-14.5,6.4-21.9,3.3l0,0c-6.5-2.8-14-1.7-19.5,2.8c-2.5,2-4.5,4.6-5.7,7.6l-4.4,10.4
			c-2,4.7-2,9.9-0.1,14.7c1.9,4.7,5.6,8.4,10.3,10.4c8.6,3.6,13.9,12.6,12.8,21.7c-1.2,10.4-1.3,20.9-0.2,31.4
			c0.9,9.1-4.4,17.9-13.1,21.4l0,0c-9.8,4-14.5,15.2-10.6,24.9l4.2,10.5c1.9,4.7,5.6,8.4,10.3,10.4s9.9,2,14.7,0.1
			c8.7-3.5,18.7-0.9,24.3,6.3c6.5,8.2,13.9,15.7,22,22.3c7.1,5.8,9.6,15.8,5.9,24.4c-1,2.3-1.5,4.8-1.5,7.3L639.1,353L639.1,353z"/>
	</g>
</g>
<g>
	<g>
		
			<ellipse transform="matrix(0.9268 -0.3756 0.3756 0.9268 -38.9465 224.5599)" fill="#FFFFFF" cx="556.5" cy="212.2" rx="92.2" ry="92.2"/>
	</g>
	<g>
		<path fill="#2E9AFE" d="M556.6,305.3c-36.8,0-71.8-22-86.5-58.2c-19.3-47.6,3.7-102,51.4-121.3c47.6-19.3,102,3.7,121.3,51.4
			c9.3,23.1,9.2,48.4-0.5,71.3c-9.7,22.9-27.7,40.7-50.8,50C580,303.1,568.2,305.3,556.6,305.3z M556.3,121
			c-11.4,0-22.9,2.1-34.1,6.7c-46.6,18.9-69.1,72.1-50.3,118.7c18.9,46.6,72.1,69.1,118.7,50.3c22.6-9.1,40.2-26.5,49.7-49
			c9.5-22.4,9.7-47.2,0.5-69.8C626.6,142.5,592.4,121,556.3,121z"/>
	</g>
</g>
<g>
	<path fill="#C1E1FF" d="M648,134.5c-0.3,0-0.6-0.1-0.8-0.4c-24.9-29.8-62.9-45.6-101.5-42.2c-0.6,0.1-1-0.4-1.1-0.9
		c0-0.6,0.4-1,0.9-1.1c39.3-3.4,77.9,12.7,103.2,42.9c0.4,0.4,0.3,1.1-0.1,1.4C648.5,134.4,648.2,134.5,648,134.5z"/>
</g>
<g>
	<g>
		<path fill="#E0F0FF" d="M698.7,202.6c0.4,3.7,0.6,7.5,0.7,11.2c0.1-5.4-0.1-10.8-0.6-16.3C698.6,199.2,698.5,200.9,698.7,202.6z"
			/>
	</g>
	<g>
		<path fill="#2E9AFE" d="M699.4,214.8c-0.5,0-1-0.4-1-1c-0.1-3.8-0.3-7.5-0.7-11.1c-0.2-1.8-0.1-3.6,0.2-5.4c0.1-0.5,0.5-0.9,1-0.8
			c0.5,0,0.9,0.4,1,0.9c0.5,5.4,0.7,11,0.6,16.4C700.4,214.4,700,214.8,699.4,214.8L699.4,214.8z"/>
	</g>
</g>
<g>
	<g>
		<path fill="#E0F0FF" d="M413,195.2c-0.7,6.3-1,12.6-0.8,19c0.1-4.5,0.4-9.1,0.9-13.5C413.4,198.8,413.3,197,413,195.2z"/>
	</g>
	<g>
		<path fill="#2E9AFE" d="M412.2,215.2c-0.5,0-1-0.4-1-1c-0.2-6.4,0.1-12.8,0.8-19.2c0.1-0.5,0.5-0.9,1-0.9s0.9,0.3,1,0.8
			c0.3,1.9,0.4,3.9,0.1,5.8c-0.5,4.4-0.8,8.9-0.9,13.4C413.2,214.8,412.7,215.2,412.2,215.2L412.2,215.2z"/>
	</g>
</g>
<g>
	<path fill="#F6FAFF" d="M710.1,249.3c-5.5-2.3-9.7-6.8-11.7-12.2c0.2,7.7,5,14.7,12.3,17.8l0,0c5.2,2.2,9,6.4,10.9,11.3
		C721.4,259,717.1,252.2,710.1,249.3z"/>
</g>
<g>
	<path fill="#F6FAFF" d="M716.8,139.2c-2.9-7.1-9.7-11.7-17.4-11.7c-2.4,0-4.8,0.5-7,1.4c-2.6,1.1-5.4,1.6-8.2,1.6
		c-6.6,0-12.6-2.9-16.6-8c-6.5-8.2-13.8-15.7-21.9-22.3c-2.9-2.4-5.1-5.5-6.4-8.9c0.2,5.6,2.7,11,7.2,14.7
		c8.1,6.6,15.6,14.1,22.2,22.5c5.5,6.9,15,9.3,23.2,5.9l0,0c10.3-4.2,22.1,0.8,26.2,11.1l4.2,10.5c0,0.1,0.1,0.2,0.1,0.3
		c-0.1-2.2-0.5-4.4-1.4-6.6L716.8,139.2z"/>
</g>
<g>
	<path fill="#F6FAFF" d="M467.9,98.8c-1.6,1.3-3.3,2.7-5.1,4.3l-0.7,0.6l0,0c-6,5.2-11.6,11-16.6,17.2c-0.7,0.9-1.5,1.7-2.4,2.5
		c-3.8,3.3-8.7,5.1-13.8,5.1c-2.9,0-5.7-0.6-8.3-1.7l0,0h-0.1c-2.3-1-4.8-1.5-7.3-1.5c-4.3,0-8.5,1.5-11.8,4.2
		c-2.5,2-4.4,4.5-5.6,7.4l-4.4,10.4c-0.9,2.2-1.4,4.6-1.5,6.9c0.1-0.2,0.1-0.4,0.2-0.5l4.4-10.4c1.4-3.2,3.5-5.9,6-7.9
		c5.6-4.5,13.4-5.9,20.5-2.9l0,0c7.1,3,15.2,1.7,20.8-3.1c0.8-0.7,1.6-1.5,2.3-2.3c5.3-6.5,11.1-12.5,17.5-18l0,0
		c1.7-1.5,3.4-2.9,5.2-4.3c4.7-3.7,7.2-9.1,7.4-14.8C473.2,93.3,470.9,96.4,467.9,98.8z"/>
</g>
<g>
	<path fill="#F6FAFF" d="M484.1,55.2l10.5-4.2c10.3-4.2,22.1,0.8,26.2,11.1l0,0c3.3,8.2,11.6,13.4,20.4,12.5
		c10.6-1.1,21.2-1,31.6,0.2c8.8,1,17.2-4,20.6-12.2l0,0c4.3-10.2,16.2-15,26.4-10.7l10.4,4.4c5.2,2.2,9,6.4,10.9,11.3
		c-0.1-2.2-0.5-4.5-1.4-6.6c-1.9-4.6-5.5-8.3-10.1-10.2l-10.4-4.4c-2.3-1-4.8-1.5-7.3-1.5c-7.6,0-14.4,4.5-17.3,11.5
		c-3.4,8-11.1,13.1-19.6,13.1c-0.8,0-1.6,0-2.5-0.1c-10.3-1.2-20.9-1.3-31.3-0.2c-0.7,0.1-1.4,0.1-2.1,0.1
		c-8.5,0-16.4-5.4-19.7-13.4c-2.9-7.1-9.7-11.7-17.4-11.7c-2.4,0-4.8,0.5-7,1.4l-10.5,4.2c-4.6,1.9-8.3,5.5-10.2,10.1
		c-0.9,2.2-1.4,4.6-1.5,6.9C474.8,61.6,478.7,57.4,484.1,55.2z"/>
</g>
<g>
	<g>
		<g>
			<g>
				<path fill="#FFFFFF" d="M560.7,324H389.3c-6,0-10.9-4.9-10.9-10.9V178.2c0-6,4.9-10.9,10.9-10.9h171.4c6,0,10.9,4.9,10.9,10.9
					V313C571.7,319.1,566.8,324,560.7,324z"/>
			</g>
		</g>
		<g>
			<g>
				<path fill="#2E9AFE" d="M560.7,325H389.3c-6.6,0-11.9-5.4-11.9-11.9V178.2c0-6.6,5.4-11.9,11.9-11.9h171.4
					c6.6,0,11.9,5.4,11.9,11.9V313C572.7,319.6,567.3,325,560.7,325z M389.3,168.2c-5.5,0-9.9,4.5-9.9,9.9V313
					c0,5.5,4.5,9.9,9.9,9.9h171.4c5.5,0,9.9-4.5,9.9-9.9V178.2c0-5.5-4.5-9.9-9.9-9.9H389.3V168.2z"/>
			</g>
		</g>
	</g>
	<g>
		<g>
			<path fill="#82C2FE" d="M378.3,299.2v17.3c0,4.1,3.4,7.5,7.5,7.5h178.4c4.1,0,7.5-3.4,7.5-7.5v-17.3H378.3z"/>
		</g>
		<g>
			<path fill="#2E9AFE" d="M564.2,325H385.8c-4.7,0-8.5-3.8-8.5-8.5v-17.3c0-0.6,0.4-1,1-1h193.3c0.6,0,1,0.4,1,1v17.3
				C572.7,321.2,568.9,325,564.2,325z M379.3,300.2v16.3c0,3.6,2.9,6.5,6.5,6.5h178.4c3.6,0,6.5-2.9,6.5-6.5v-16.3H379.3z"/>
		</g>
	</g>
	<g>
		<g>
			<path fill="#FFFFFF" d="M506.7,289.2H389.8c-1.1,0-2-0.9-2-2v-91.3c0-1.1,0.9-2,2-2h116.9c1.1,0,2,0.9,2,2v91.3
				C508.7,288.3,507.8,289.2,506.7,289.2z"/>
		</g>
		<g>
			<path fill="#2E9AFE" d="M506.7,290.2H389.8c-1.7,0-3-1.3-3-3v-91.3c0-1.7,1.3-3,3-3h116.9c1.7,0,3,1.3,3,3v91.3
				C509.7,288.9,508.3,290.2,506.7,290.2z M389.8,194.9c-0.6,0-1,0.4-1,1v91.3c0,0.6,0.4,1,1,1h116.9c0.6,0,1-0.4,1-1v-91.3
				c0-0.6-0.4-1-1-1L389.8,194.9L389.8,194.9z"/>
		</g>
	</g>
	<g>
		<g>
			<path fill="#82C2FE" d="M506.7,202.5H389.8c-1.1,0-2-0.9-2-2v-4.6c0-1.1,0.9-2,2-2h116.9c1.1,0,2,0.9,2,2v4.6
				C508.7,201.6,507.8,202.5,506.7,202.5z"/>
		</g>
		<g>
			<path fill="#2E9AFE" d="M506.7,203.5H389.8c-1.7,0-3-1.3-3-3v-4.6c0-1.7,1.3-3,3-3h116.9c1.7,0,3,1.3,3,3v4.6
				C509.7,202.2,508.3,203.5,506.7,203.5z M389.8,194.9c-0.6,0-1,0.4-1,1v4.6c0,0.6,0.4,1,1,1h116.9c0.6,0,1-0.4,1-1v-4.6
				c0-0.6-0.4-1-1-1H389.8z"/>
		</g>
	</g>
	<g>
		<g>
			<g>
				<path fill="#E0F0FF" d="M560.6,186.9H389.8c-1.1,0-2-0.9-2-2v-5.2c0-1.1,0.9-2,2-2h170.8c1.1,0,2,0.9,2,2v5.2
					C562.6,186,561.7,186.9,560.6,186.9z"/>
			</g>
		</g>
		<g>
			<g>
				<path fill="#2E9AFE" d="M560.6,187.9H389.8c-1.7,0-3-1.3-3-3v-5.2c0-1.7,1.3-3,3-3h170.8c1.7,0,3,1.3,3,3v5.2
					C563.6,186.6,562.2,187.9,560.6,187.9z M389.8,178.7c-0.6,0-1,0.4-1,1v5.2c0,0.6,0.4,1,1,1h170.8c0.6,0,1-0.4,1-1v-5.2
					c0-0.6-0.4-1-1-1H389.8z"/>
			</g>
		</g>
	</g>
	<g>
		<g>
			<g>
				<path fill="#E0F0FF" d="M560.3,232.4h-43.6c-1.1,0-2-0.9-2-2v-34.7c0-1.1,0.9-2,2-2h43.6c1.1,0,2,0.9,2,2v34.7
					C562.3,231.5,561.4,232.4,560.3,232.4z"/>
			</g>
		</g>
		<g>
			<g>
				<path fill="#2E9AFE" d="M560.3,233.4h-43.6c-1.7,0-3-1.3-3-3v-34.7c0-1.7,1.3-3,3-3h43.6c1.7,0,3,1.3,3,3v34.7
					C563.3,232,561.9,233.4,560.3,233.4z M516.7,194.7c-0.6,0-1,0.4-1,1v34.7c0,0.6,0.4,1,1,1h43.6c0.6,0,1-0.4,1-1v-34.7
					c0-0.6-0.4-1-1-1H516.7z"/>
			</g>
		</g>
	</g>
	<g>
		<g>
			<g>
				<path fill="#E0F0FF" d="M560.3,289.2h-43.6c-1.1,0-2-0.9-2-2v-7.9c0-1.1,0.9-2,2-2h43.6c1.1,0,2,0.9,2,2v7.9
					C562.3,288.3,561.4,289.2,560.3,289.2z"/>
			</g>
		</g>
		<g>
			<g>
				<path fill="#2E9AFE" d="M560.3,290.2h-43.6c-1.7,0-3-1.3-3-3v-7.9c0-1.7,1.3-3,3-3h43.6c1.7,0,3,1.3,3,3v7.9
					C563.3,288.9,561.9,290.2,560.3,290.2z M516.7,278.3c-0.6,0-1,0.4-1,1v7.9c0,0.6,0.4,1,1,1h43.6c0.6,0,1-0.4,1-1v-7.9
					c0-0.6-0.4-1-1-1H516.7z"/>
			</g>
		</g>
	</g>
	<g>
		<g>
			<g>
				<path fill="#82C2FE" d="M554.1,243.6h-14c-0.6,0-1-0.4-1-1s0.4-1,1-1h14c0.6,0,1,0.4,1,1S554.6,243.6,554.1,243.6z"/>
			</g>
		</g>
		<g>
			<g>
				<path fill="#82C2FE" d="M556.5,252H540c-0.6,0-1-0.4-1-1s0.4-1,1-1h16.6c0.6,0,1,0.4,1,1S557.1,252,556.5,252z"/>
			</g>
		</g>
		<g>
			<g>
				<path fill="#82C2FE" d="M550,260.5h-10c-0.6,0-1-0.4-1-1s0.4-1,1-1h10c0.6,0,1,0.4,1,1S550.5,260.5,550,260.5z"/>
			</g>
		</g>
		<g>
			<g>
				<path fill="#82C2FE" d="M555.8,268.9H514c-0.6,0-1-0.4-1-1s0.4-1,1-1h41.9c0.6,0,1,0.4,1,1S556.4,268.9,555.8,268.9z"/>
			</g>
		</g>
	</g>
	<g>
		<g>
			<path fill="#FFFFFF" d="M532.1,255.6c-2.1-1.4-6.1-1.5-6.1-3.8c0-1.5,1.5-2.3,1.5-5.3v-0.8c0-3-2.3-3.8-3.8-3.8s-3.8,0.8-3.8,3.8
				v0.8c0,3,1.5,3.8,1.5,5.3c0,2.3-3.9,2.4-6.1,3.8c-0.5,0.3-0.8,0.8-0.8,1.5v2.3h18.2v-2.3C532.9,256.4,532.6,256,532.1,255.6z"/>
		</g>
		<g>
			<path fill="#2E9AFE" d="M532.9,260.5h-18.2c-0.6,0-1-0.4-1-1v-2.3c0-1,0.4-1.8,1.2-2.3c0.9-0.6,1.9-0.9,2.9-1.3
				c1.6-0.6,2.7-1,2.7-1.7c0-0.4-0.2-0.7-0.5-1.2c-0.5-0.9-1.1-2-1.1-4.1v-0.8c0-3.3,2.4-4.8,4.8-4.8c2.4,0,4.8,1.5,4.8,4.8v0.8
				c0,2-0.6,3.2-1.1,4.1c-0.3,0.6-0.5,0.9-0.5,1.2c0,0.7,1.1,1.1,2.7,1.7c1,0.3,2.1,0.7,2.9,1.3l0,0c0.8,0.5,1.2,1.3,1.2,2.3v2.3
				C533.9,260,533.4,260.5,532.9,260.5z M515.7,258.5h16.2v-1.3c0-0.4-0.1-0.6-0.3-0.7c-0.7-0.4-1.6-0.7-2.5-1.1
				c-1.9-0.7-4-1.4-4-3.6c0-0.9,0.3-1.5,0.7-2.2c0.4-0.8,0.8-1.6,0.8-3.1v-0.8c0-2.5-2-2.8-2.8-2.8s-2.8,0.3-2.8,2.8v0.8
				c0,1.5,0.4,2.3,0.8,3.1c0.3,0.6,0.7,1.3,0.7,2.2c0,2.2-2.1,2.9-4,3.6c-0.9,0.3-1.8,0.6-2.5,1.1c-0.2,0.1-0.3,0.2-0.3,0.7
				L515.7,258.5L515.7,258.5z"/>
		</g>
	</g>
	<g>
		<g>
			<path fill="#82C2FE" d="M400.8,278.3c-0.3,0-0.5-0.1-0.7-0.3c-0.4-0.4-0.3-1,0.1-1.4l29.4-26.3c0.3-0.3,0.8-0.3,1.1-0.1
				l38.4,19.8l24.7-51.1c0.2-0.5,0.8-0.7,1.3-0.5s0.7,0.8,0.5,1.3l-25.1,52c-0.1,0.2-0.3,0.4-0.6,0.5c-0.3,0.1-0.5,0.1-0.8-0.1
				l-38.7-20l-28.9,25.8C401.3,278.2,401.1,278.3,400.8,278.3z"/>
		</g>
	</g>
	<g>
		<g>
			<circle fill="#82C2FE" cx="494.7" cy="219.3" r="5.1"/>
		</g>
		<g>
			<path fill="#2E9AFE" d="M494.7,225.4c-3.4,0-6.1-2.8-6.1-6.1s2.8-6.1,6.1-6.1s6.1,2.8,6.1,6.1S498.1,225.4,494.7,225.4z
				 M494.7,215.2c-2.3,0-4.1,1.9-4.1,4.1s1.9,4.1,4.1,4.1s4.1-1.9,4.1-4.1S497,215.2,494.7,215.2z"/>
		</g>
	</g>
	<g>
		<g>
			<circle fill="#82C2FE" cx="469.6" cy="271.3" r="5.1"/>
		</g>
		<g>
			<path fill="#2E9AFE" d="M469.6,277.5c-3.4,0-6.1-2.8-6.1-6.1s2.8-6.1,6.1-6.1s6.1,2.8,6.1,6.1S473,277.5,469.6,277.5z
				 M469.6,267.2c-2.3,0-4.1,1.9-4.1,4.1s1.9,4.1,4.1,4.1s4.1-1.9,4.1-4.1S471.9,267.2,469.6,267.2z"/>
		</g>
	</g>
	<g>
		<g>
			<circle fill="#82C2FE" cx="430.3" cy="251" r="5.1"/>
		</g>
		<g>
			<path fill="#2E9AFE" d="M430.3,257.2c-3.4,0-6.1-2.8-6.1-6.1s2.8-6.1,6.1-6.1s6.1,2.8,6.1,6.1S433.6,257.2,430.3,257.2z
				 M430.3,246.9c-2.3,0-4.1,1.9-4.1,4.1s1.9,4.1,4.1,4.1s4.1-1.9,4.1-4.1S432.5,246.9,430.3,246.9z"/>
		</g>
	</g>
	<g>
		<g>
			<circle fill="#82C2FE" cx="400.8" cy="277.3" r="5.1"/>
		</g>
		<g>
			<path fill="#2E9AFE" d="M400.8,283.4c-3.4,0-6.1-2.8-6.1-6.1s2.8-6.1,6.1-6.1s6.1,2.8,6.1,6.1S404.2,283.4,400.8,283.4z
				 M400.8,273.2c-2.3,0-4.1,1.9-4.1,4.1s1.9,4.1,4.1,4.1s4.1-1.9,4.1-4.1S403.1,273.2,400.8,273.2z"/>
		</g>
	</g>
</g>
<g>
	<g>
		<path fill="#FFFFFF" d="M785.6,180.2c-6.2,15-9.3,30.8-9.3,47.2c0,50.9,31.4,96.9,78.5,115.4c47.1-18.5,78.4-64.4,78.4-115.4
			c0-16.4-3.1-32.2-9.3-47.2c-22.8,7.8-48.5,5-69.1-7.5C834.1,185.2,808.4,188,785.6,180.2z"/>
	</g>
	<g>
		<path fill="#2E9AFE" d="M854.7,343.7c-0.1,0-0.2,0-0.4-0.1c-23.3-9.1-43.1-25-57.4-45.9c-14.2-20.9-21.8-45.3-21.8-70.4
			c0-16.5,3.2-32.5,9.4-47.6c0.2-0.5,0.7-0.7,1.2-0.6c22.4,7.7,48,4.9,68.3-7.4c0.3-0.2,0.7-0.2,1,0c20.3,12.3,45.9,15.1,68.3,7.4
			c0.5-0.2,1,0.1,1.2,0.6c6.2,15.1,9.4,31.1,9.4,47.6c0,25.2-7.5,49.5-21.8,70.4c-14.2,20.9-34,36.7-57.3,45.9
			C855,343.7,854.8,343.7,854.7,343.7z M786.1,181.4c-5.9,14.6-8.9,30-8.9,45.9c0,50.1,31.1,95.9,77.5,114.3
			c46.3-18.4,77.4-64.2,77.4-114.3c0-15.9-3-31.3-8.9-45.9c-22.6,7.4-48.1,4.6-68.6-7.6C834.2,186,808.7,188.9,786.1,181.4z"/>
	</g>
</g>
<g>
	<g>
		<path fill="#82C2FE" d="M765,21c-0.3-9.5-8-17-17.5-17c-7.5,0-13.9,4.7-16.4,11.3c-1.7-1.1-3.8-1.7-5.9-1.7
			c-6.2,0-11.2,5-11.2,11.2c0,0.6,0.1,1.3,0.2,1.9c-7.4,1.4-12.9,7.9-12.9,15.7c0,8.8,7.1,15.9,15.9,15.9c3.8,0,7.4-1.4,10.1-3.6
			c2.6,2.3,6.1,3.6,9.8,3.6c3.9,0,7.4-1.5,10.1-3.8c3.2,2.4,7.2,3.8,11.5,3.8c10.6,0,19.1-8.6,19.1-19.1
			C777.7,30.7,772.4,23.6,765,21z"/>
	</g>
	<g>
		<path fill="#2E9AFE" d="M758.6,59.2c-4.1,0-8-1.2-11.4-3.6c-2.9,2.3-6.4,3.6-10.1,3.6c-3.6,0-7-1.2-9.8-3.3
			c-2.9,2.2-6.5,3.3-10.1,3.3c-9.3,0-16.9-7.6-16.9-16.9c0-7.8,5.3-14.6,12.8-16.4c0-0.4-0.1-0.7-0.1-1.1c0-6.7,5.5-12.2,12.2-12.2
			c1.9,0,3.8,0.5,5.5,1.3c3-6.6,9.6-10.9,16.9-10.9c9.9,0,17.9,7.6,18.5,17.3c7.7,3,12.8,10.5,12.8,18.7
			C778.7,50.1,769.7,59.2,758.6,59.2z M747.1,53.3c0.2,0,0.4,0.1,0.6,0.2c3.2,2.4,6.9,3.6,10.9,3.6c10,0,18.1-8.1,18.1-18.1
			c0-7.7-4.9-14.5-12.1-17.1c-0.4-0.1-0.7-0.5-0.7-0.9c-0.3-9-7.5-16.1-16.5-16.1c-6.8,0-13,4.3-15.4,10.7c-0.1,0.3-0.3,0.5-0.6,0.6
			s-0.6,0.1-0.9-0.1c-1.6-1-3.5-1.6-5.4-1.6c-5.6,0-10.2,4.6-10.2,10.2c0,0.6,0.1,1.2,0.2,1.7c0.1,0.5-0.3,1-0.8,1.1
			c-7,1.3-12.1,7.5-12.1,14.7c0,8.2,6.7,14.9,14.9,14.9c3.5,0,6.8-1.2,9.5-3.4c0.4-0.3,0.9-0.3,1.3,0c2.6,2.2,5.8,3.4,9.2,3.4
			c3.5,0,6.8-1.3,9.4-3.6C746.7,53.4,746.9,53.3,747.1,53.3z"/>
	</g>
</g>
<g>
	<g>
		<circle fill="#E0F0FF" cx="373.7" cy="28.6" r="27.7"/>
	</g>
	<g>
		<path fill="#2E9AFE" d="M373.7,57.3c-15.8,0-28.7-12.9-28.7-28.7s12.9-28.7,28.7-28.7c15.8,0,28.7,12.9,28.7,28.7
			S389.5,57.3,373.7,57.3z M373.7,1.9c-14.7,0-26.7,12-26.7,26.7s12,26.7,26.7,26.7s26.7-12,26.7-26.7S388.4,1.9,373.7,1.9z"/>
	</g>
</g>
<g>
	<path fill="#2E9AFE" d="M368.7,38.8c-0.3,0-0.5-0.1-0.7-0.3l-8.4-8.4c-0.4-0.4-0.4-1,0-1.4s1-0.4,1.4,0l7.7,7.7l17.6-17.6
		c0.4-0.4,1-0.4,1.4,0s0.4,1,0,1.4l-18.3,18.3C369.2,38.7,369,38.8,368.7,38.8z"/>
</g>
<g>
	<g>
		<rect x="778.2" y="286.9" fill="#E0F0FF" width="26" height="28.5"/>
	</g>
	<g>
		<path fill="#2E9AFE" d="M804.2,316.4h-26c-0.6,0-1-0.4-1-1v-28.5c0-0.6,0.4-1,1-1h26c0.6,0,1,0.4,1,1v28.5
			C805.2,316,804.8,316.4,804.2,316.4z M779.2,314.4h24v-26.5h-24V314.4z"/>
	</g>
</g>
<g>
	<g>
		<path fill="#E0F0FF" d="M807.4,303.9c0,0,24.7,3.6,28.4,7.4c3.2,3.3,9.8,35.1,11.3,42c-43.4,0-55.9,0-55.9,0v-48.1L807.4,303.9z"
			/>
	</g>
	<g>
		<path fill="#2E9AFE" d="M847.1,354.3h-55.9c-0.6,0-1-0.4-1-1v-48.1c0-0.5,0.4-1,0.9-1l16.2-1.3c0.1,0,0.2,0,0.2,0
			c2.6,0.4,25.2,3.8,29,7.7c2.7,2.9,7.3,22.9,11.1,40.1l0.5,2.4c0.1,0.3,0,0.6-0.2,0.8C847.7,354.2,847.4,354.3,847.1,354.3z
			 M792.2,353.3h53.7l-0.3-2.2c-5.2-24.1-8.8-37.2-10.5-39.1c-2.5-2.6-17.9-5.7-27.7-7.1l-15.1,1.3v47.1H792.2z"/>
	</g>
</g>
<g>
	<path fill="#FFFFFF" d="M791.2,205.2c-12.6,0-32.6,7.2-32.6,40.8c0,19.4,6.3,32.2,9.1,35.7c2.5,3.2,8.8,10.1,23.5,10.1
		s21-6.9,23.5-10.1c2.8-3.5,9.1-16.3,9.1-35.7C823.8,212.4,803.8,205.2,791.2,205.2z"/>
	<path fill="#2E9AFE" d="M791.2,292.9c-10.7,0-18.8-3.5-24.3-10.5c-2.6-3.3-9.3-16.3-9.3-36.3c0-38.8,25.7-41.8,33.6-41.8
		s33.6,3,33.6,41.8c0,20-6.7,33-9.3,36.3C810,289.4,801.8,292.9,791.2,292.9z M791.2,206.2c-7.4,0-31.6,2.9-31.6,39.8
		c0,19.5,6.4,31.9,8.9,35.1c1.9,2.4,7.7,9.8,22.7,9.8c15.1,0,20.8-7.3,22.7-9.8c2.5-3.2,8.9-15.6,8.9-35.1
		C822.8,209.1,798.6,206.2,791.2,206.2z"/>
</g>
<g>
	<g>
		<path fill="#E0F0FF" d="M775,303.9c0,0-24.7,3.6-28.4,7.4c-3.2,3.3-9.8,35.1-11.3,42c43.4,0,55.9,0,55.9,0v-48.1L775,303.9z"/>
	</g>
	<g>
		<path fill="#2E9AFE" d="M791.2,354.3h-55.9c-0.3,0-0.6-0.1-0.8-0.4c-0.2-0.2-0.3-0.5-0.2-0.8l0.5-2.5c3.9-18.2,8.3-37.2,11-40
			c3.8-3.9,26.4-7.3,29-7.7c0.1,0,0.2,0,0.2,0l16.2,1.3c0.5,0,0.9,0.5,0.9,1v48.1C792.2,353.9,791.7,354.3,791.2,354.3z
			 M736.5,353.3h53.7v-47.2l-15.1-1.3c-9.8,1.4-25.2,4.5-27.7,7.1c-1.8,1.9-5.3,15-10.5,39L736.5,353.3z"/>
	</g>
</g>
<g>
	<g>
		<path fill="#82C2FE" d="M824.1,248c0.2-2,0.5-3.9,0.8-5.9c1.4-9.3,4.8-46.7-33.9-46.7c-37.5,0-35.4,33.8-33.9,44.3
			c0.5,3.2,0.8,6.4,1,9.6l0.9,6c0,0,7.9-10.9,8.6-20.2c15.6,0,29.5-2,41.1-11.6c13.8,0,14.5,31.9,14.5,31.9L824.1,248z"/>
	</g>
	<g>
		<path fill="#2E9AFE" d="M759.1,256.4c-0.1,0-0.2,0-0.2,0c-0.4-0.1-0.7-0.4-0.8-0.8l-0.9-6c-0.3-3.5-0.6-6.6-1-9.6
			c-1-6.8-2.3-23.7,7.3-34.9c6-7,15.3-10.5,27.5-10.5c12.1,0,21.3,3.6,27.3,10.7c10.2,11.9,8.7,29.9,7.6,37.1
			c-0.3,2.1-0.6,4-0.8,5.8l-0.8,7.4c-0.1,0.5-0.5,0.9-1,0.9s-0.9-0.4-1-1c0-0.3-0.9-30.3-13.2-30.9c-12.3,10-26.7,11.6-40.5,11.6
			c-1.1,9.3-8.4,19.4-8.7,19.8C759.7,256.3,759.4,256.4,759.1,256.4z M791,196.5c-11.6,0-20.4,3.3-26,9.9
			c-9.1,10.5-7.8,26.8-6.9,33.3c0.4,3,0.8,6.2,1,9.7l0.5,3.4c2.3-3.6,6.5-11.1,7-17.6c0-0.5,0.5-0.9,1-0.9
			c13.9,0,28.4-1.4,40.5-11.4c0.2-0.1,0.4-0.2,0.6-0.2c9.5,0,13.2,13.3,14.6,23c0.1-1.1,0.3-2.3,0.5-3.6c0.8-5.4,2.8-24-7.1-35.5
			C811.1,199.8,802.4,196.5,791,196.5z M824.1,248L824.1,248L824.1,248z"/>
	</g>
</g>
<g>
	<g>
		<polygon fill="#82C2FE" points="789.5,309.9 786.2,343.8 791.2,353.2 796.1,343.8 792.9,309.9 		"/>
		<path fill="#2E9AFE" d="M791.2,354.2L791.2,354.2c-0.4,0-0.7-0.2-0.9-0.5l-5-9.4c-0.1-0.2-0.1-0.4-0.1-0.6l3.3-33.9
			c0-0.5,0.5-0.9,1-0.9h3.4c0.5,0,0.9,0.4,1,0.9l3.3,33.9c0,0.2,0,0.4-0.1,0.6l-5,9.4C791.9,354,791.5,354.2,791.2,354.2z
			 M787.2,343.6l3.9,7.4l3.9-7.4l-3.2-32.7h-1.5L787.2,343.6z"/>
	</g>
	<g>
		<g>
			<g>
				<path fill="#E0F0FF" d="M795.6,309.7l-4.4,4.4l-4.4-4.4l4.4-4.4L795.6,309.7z"/>
			</g>
		</g>
		<g>
			<g>
				<path fill="#2E9AFE" d="M791.2,315.1c-0.3,0-0.5-0.1-0.7-0.3l-4.4-4.4c-0.4-0.4-0.4-1,0-1.4l4.4-4.4c0.4-0.4,1-0.4,1.4,0
					l4.4,4.4c0.2,0.2,0.3,0.4,0.3,0.7s-0.1,0.5-0.3,0.7l-4.4,4.4C791.7,315,791.4,315.1,791.2,315.1z M788.1,309.7l3,3l3-3l-3-3
					L788.1,309.7z"/>
			</g>
		</g>
	</g>
	<g>
		<g>
			<line fill="none" x1="762.5" y1="338.9" x2="779" y2="338.9"/>
		</g>
		<g>
			<path fill="#2E9AFE" d="M779,339.9h-16.5c-0.6,0-1-0.4-1-1s0.4-1,1-1H779c0.6,0,1,0.4,1,1S779.6,339.9,779,339.9z"/>
		</g>
	</g>
	<g>
		<g>
			<line fill="none" x1="803.3" y1="338.9" x2="819.8" y2="338.9"/>
		</g>
		<g>
			<path fill="#2E9AFE" d="M819.8,339.9h-16.5c-0.6,0-1-0.4-1-1s0.4-1,1-1h16.5c0.6,0,1,0.4,1,1S820.4,339.9,819.8,339.9z"/>
		</g>
	</g>
</g>
<g>
	<polygon fill="#FFFFFF" points="791.2,305.2 778,299.9 774.7,303.2 781.3,317.8 	"/>
	<path fill="#2E9AFE" d="M781.3,318.8L781.3,318.8c-0.4,0-0.7-0.3-0.9-0.6l-6.6-14.6c-0.2-0.4-0.1-0.8,0.2-1.1l3.3-3.3
		c0.3-0.3,0.7-0.4,1.1-0.2l13.2,5.3c0.3,0.1,0.5,0.4,0.6,0.7c0.1,0.3,0,0.6-0.2,0.9l-9.9,12.6C781.9,318.7,781.6,318.8,781.3,318.8z
		 M775.9,303.4l5.6,12.5l8-10.2l-11.4-4.6L775.9,303.4z"/>
</g>
<g>
	<polygon fill="#FFFFFF" points="791.2,305.2 804.4,299.9 807.6,303.2 801.1,317.8 	"/>
	<path fill="#2E9AFE" d="M801.1,318.8c-0.3,0-0.6-0.1-0.8-0.4l-9.9-12.6c-0.2-0.2-0.3-0.6-0.2-0.9s0.3-0.6,0.6-0.7L804,299
		c0.4-0.2,0.8-0.1,1.1,0.2l3.3,3.3c0.3,0.3,0.4,0.7,0.2,1.1l-6.6,14.6c-0.1,0.3-0.4,0.5-0.8,0.6
		C801.2,318.8,801.1,318.8,801.1,318.8z M792.8,305.7l8,10.2l5.6-12.5l-2.3-2.3L792.8,305.7z"/>
</g>
<g>
	<path fill="#9ED0FE" d="M791,196.9c-11.5,0-20.2,3.3-25.7,9.7c-4.4,5-6.3,11.4-7,17.4c3.2-11.1,11.8-21.7,32.8-21.7
		c20.9,0,29.5,10.8,32.8,22.3c-0.8-6.2-2.8-12.8-7.3-17.9C810.9,200.2,802.3,196.9,791,196.9z"/>
</g>
<g>
	<g>
		<path fill="#E0F0FF" d="M251.2,108.1l20.2-35c2-3.5,7.1-3.5,9.1,0l20.2,35c2,3.5-0.5,7.9-4.6,7.9h-40.5
			C251.7,116,249.2,111.6,251.2,108.1z"/>
	</g>
	<g>
		<path fill="#2E9AFE" d="M296.2,117h-40.5c-2.3,0-4.3-1.2-5.4-3.1c-1.1-2-1.1-4.3,0-6.3l20.2-35c1.1-2,3.2-3.1,5.4-3.1
			c2.3,0,4.3,1.2,5.4,3.1l20.2,35c1.1,2,1.1,4.3,0,6.3C300.5,115.8,298.5,117,296.2,117z M276,71.5c-1.5,0-2.9,0.8-3.7,2.1l-20.2,35
			l0,0c-0.8,1.3-0.8,2.9,0,4.3s2.1,2.1,3.7,2.1h40.5c1.5,0,2.9-0.8,3.7-2.1s0.8-2.9,0-4.3l-20.2-35C278.9,72.2,277.5,71.5,276,71.5z
			 M251.2,108.1L251.2,108.1L251.2,108.1z"/>
	</g>
</g>
<g>
	<g>
		<path fill="#E0F0FF" d="M281.9,237.4v46c0,1.1-1.1,2.1-2.5,2.1H155.6c-1.4,0-2.5-0.9-2.5-2.1v-92.7c0-1.1,1.1-2.1,2.5-2.1h123.7
			c1.4,0,2.5,0.9,2.5,2.1V214v23.4H281.9z"/>
	</g>
	<g>
		<path fill="#2E9AFE" d="M279.4,286.5H155.6c-2,0-3.5-1.4-3.5-3.1v-92.7c0-1.7,1.6-3.1,3.5-3.1h123.7c2,0,3.5,1.4,3.5,3.1v92.7
			C282.9,285.1,281.3,286.5,279.4,286.5z M155.6,189.6c-0.8,0-1.5,0.5-1.5,1.1v92.7c0,0.6,0.7,1.1,1.5,1.1h123.7
			c0.8,0,1.5-0.5,1.5-1.1v-92.7c0-0.6-0.7-1.1-1.5-1.1L155.6,189.6L155.6,189.6z"/>
	</g>
</g>
<g>
	
		<path fill="#FFFFFF" stroke="#67939E" stroke-width="2" stroke-linecap="round" stroke-linejoin="round" stroke-miterlimit="10" d="
		M281.9,206.7"/>
</g>
<g>
	
		<path fill="#FFFFFF" stroke="#67939E" stroke-width="2" stroke-linecap="round" stroke-linejoin="round" stroke-miterlimit="10" d="
		M153.1,206.7"/>
</g>
<g>
	<polygon fill="#FFFFFF" points="232.5,257 232.5,258.6 159,258.6 159,246.9 232.5,246.9 232.5,248.6 	"/>
	<path fill="#2E9AFE" d="M232.5,259.6H159c-0.6,0-1-0.4-1-1v-11.7c0-0.6,0.4-1,1-1h73.5c0.6,0,1,0.4,1,1v11.7
		C233.5,259.2,233,259.6,232.5,259.6z M160,257.6h71.5v-9.7H160V257.6z"/>
</g>
<g>
	<polygon fill="#FFFFFF" points="232.5,236.4 232.5,238.1 159,238.1 159,226.4 232.5,226.4 232.5,228 	"/>
	<path fill="#2E9AFE" d="M232.5,239.1H159c-0.6,0-1-0.4-1-1v-11.7c0-0.6,0.4-1,1-1h73.5c0.6,0,1,0.4,1,1v11.7
		C233.5,238.6,233,239.1,232.5,239.1z M160,237.1h71.5v-9.7H160V237.1z"/>
</g>
<g>
	<g>
		<path fill="#82C2FE" d="M232.5,271.2h-72.4c-0.6,0-1-0.4-1-1s0.4-1,1-1h72.4c0.6,0,1,0.4,1,1S233,271.2,232.5,271.2z"/>
	</g>
</g>
<g>
	<g>
		<path fill="#2E9AFE" d="M267.2,242.6c-0.6,0-1-0.4-1-1v-10.9c0-3.8-3.1-6.9-6.9-6.9s-6.9,3.1-6.9,6.9v10.9c0,0.6-0.4,1-1,1
			s-1-0.4-1-1v-10.9c0-4.9,4-8.9,8.9-8.9s8.9,4,8.9,8.9v10.9C268.2,242.2,267.7,242.6,267.2,242.6z"/>
	</g>
	<g>
		<rect x="245.1" y="237.8" fill="#FFFFFF" width="28.3" height="19.8"/>
		<path fill="#2E9AFE" d="M273.4,258.6h-28.3c-0.6,0-1-0.4-1-1v-19.8c0-0.6,0.4-1,1-1h28.3c0.6,0,1,0.4,1,1v19.8
			C274.4,258.2,273.9,258.6,273.4,258.6z M246.1,256.6h26.3v-17.8h-26.3L246.1,256.6L246.1,256.6z"/>
	</g>
</g>
<g>
	<path fill="#E0F0FF" d="M322.9,27.2H84.6c-0.6,0-1-0.4-1-1s0.4-1,1-1H323c0.6,0,1,0.4,1,1S323.5,27.2,322.9,27.2z"/>
</g>
<g>
	<path fill="#E0F0FF" d="M202.5,98.3h-77.9c-0.6,0-1-0.4-1-1s0.4-1,1-1h77.9c0.6,0,1,0.4,1,1S203.1,98.3,202.5,98.3z"/>
</g>
<g>
	<path fill="#E0F0FF" d="M1139.9,70.2H966.4c-0.6,0-1-0.4-1-1s0.4-1,1-1h173.5c0.6,0,1,0.4,1,1S1140.4,70.2,1139.9,70.2z"/>
</g>
<g>
	<path fill="#E0F0FF" d="M1083.3,102.8H1009c-0.6,0-1-0.4-1-1s0.4-1,1-1h74.3c0.6,0,1,0.4,1,1S1083.8,102.8,1083.3,102.8z"/>
</g>
<g>
	<path fill="#E0F0FF" d="M830.9,100.8H729.2c-0.6,0-1-0.4-1-1s0.4-1,1-1h101.7c0.6,0,1,0.4,1,1S831.4,100.8,830.9,100.8z"/>
</g>
<g>
	<path fill="#E0F0FF" d="M113.3,214.7H2.5c-0.6,0-1-0.4-1-1s0.4-1,1-1h110.9c0.6,0,1,0.4,1,1S113.9,214.7,113.3,214.7z"/>
</g>
<g>
	<line fill="none" x1="-0.1" y1="354" x2="1127" y2="354"/>
	<path fill="#2E9AFE" d="M1127,355H-0.1c-0.6,0-1-0.4-1-1s0.4-1,1-1H1127c0.6,0,1,0.4,1,1S1127.5,355,1127,355z"/>
</g>
<g>
	<g>
		<path fill="#2E9AFE" d="M276,99.7c-0.6,0-1-0.4-1-1V80.2c0-0.6,0.4-1,1-1s1,0.4,1,1v18.5C277,99.2,276.5,99.7,276,99.7z"/>
	</g>
	<g>
		<circle fill="#2E9AFE" cx="276" cy="107.1" r="1.9"/>
	</g>
</g>
<g>
	
		<ellipse transform="matrix(0.7071 -0.7071 0.7071 0.7071 -8.6087 309.0135)" fill="#82C2FE" cx="368.7" cy="164.9" rx="51" ry="51"/>
	<path fill="#2E9AFE" d="M368.7,216.9c-13.3,0-26.6-5.1-36.8-15.2c-20.3-20.3-20.3-53.3,0-73.5c20.3-20.3,53.3-20.3,73.6,0
		c20.3,20.3,20.3,53.3,0,73.5C395.3,211.8,382,216.9,368.7,216.9z M368.7,114.9c-12.8,0-25.6,4.9-35.4,14.6
		c-19.5,19.5-19.5,51.2,0,70.7s51.2,19.5,70.7,0c19.5-19.5,19.5-51.2,0-70.7C394.3,119.8,381.5,114.9,368.7,114.9z"/>
</g>
<g>
	<path fill="#2E9AFE" d="M297,237.6c-0.3,0-0.5-0.1-0.7-0.3c-0.4-0.4-0.4-1,0-1.4l35.7-35.7c0.4-0.4,1-0.4,1.4,0s0.4,1,0,1.4
		l-35.7,35.7C297.5,237.5,297.2,237.6,297,237.6z"/>
</g>
<g>
	
		<ellipse transform="matrix(0.7071 -0.7071 0.7071 0.7071 -8.6087 309.0135)" fill="#FFFFFF" cx="368.7" cy="164.9" rx="33.5" ry="33.5"/>
	<path fill="#2E9AFE" d="M368.7,199.4c-9.2,0-17.9-3.6-24.4-10.1s-10.1-15.2-10.1-24.4s3.6-17.9,10.1-24.4
		c13.4-13.4,35.3-13.4,48.8,0c6.5,6.5,10.1,15.2,10.1,24.4s-3.6,17.9-10.1,24.4l0,0l0,0C386.6,195.8,377.9,199.4,368.7,199.4z
		 M368.7,132.4c-8.3,0-16.6,3.2-23,9.5c-6.1,6.1-9.5,14.3-9.5,23s3.4,16.8,9.5,23c6.1,6.1,14.3,9.5,23,9.5s16.8-3.4,23-9.5l0,0
		c6.1-6.1,9.5-14.3,9.5-23s-3.4-16.8-9.5-23C385.3,135.6,377,132.4,368.7,132.4z"/>
</g>
<g>
	<path fill="#9ED0FE" d="M368.7,115.2c-13.3,0-25.7,5.2-35.1,14.5c-8,8-12.6,18-14.1,28.4c2.3-8.2,6.6-16,13.1-22.5
		c19.9-19.9,52.2-19.9,72.1,0c6.5,6.5,10.9,14.4,13.1,22.7c-1.4-10.8-6.3-20.7-14.1-28.5C394.4,120.4,382,115.2,368.7,115.2z"/>
</g>
<g>
	<rect x="347.6" y="164" fill="#C1E1FF" width="8.5" height="14.3"/>
</g>
<g>
	<rect x="362.8" y="158.5" fill="#C1E1FF" width="8.5" height="19.8"/>
</g>
<g>
	<rect x="378" y="148.3" fill="#C1E1FF" width="8.5" height="30"/>
</g>
<g>
	<path fill="#82C2FE" d="M279.4,188.6H155.6c-1.4,0-2.5,0.9-2.5,2.1v16h128.8v-16C281.9,189.6,280.8,188.6,279.4,188.6z"/>
	<path fill="#2E9AFE" d="M281.9,207.7H153.1c-0.6,0-1-0.4-1-1v-16c0-1.7,1.6-3.1,3.5-3.1h123.7c2,0,3.5,1.4,3.5,3.1v16
		C282.9,207.3,282.5,207.7,281.9,207.7z M154.1,205.7h126.8v-15c0-0.6-0.7-1.1-1.5-1.1H155.6c-0.8,0-1.5,0.5-1.5,1.1V205.7z"/>
</g>
<g>
	<circle fill="#2E9AFE" cx="162.9" cy="197.7" r="2.8"/>
</g>
<g>
	<circle fill="#2E9AFE" cx="172.4" cy="197.7" r="2.8"/>
</g>
<g>
	<circle fill="#2E9AFE" cx="181.8" cy="197.7" r="2.8"/>
</g>
<g>
	<g>
		<rect x="445.6" y="324" fill="#E0F0FF" width="58.8" height="25.2"/>
	</g>
	<g>
		<path fill="#2E9AFE" d="M504.4,350.1h-58.8c-0.6,0-1-0.4-1-1V324c0-0.6,0.4-1,1-1h58.8c0.6,0,1,0.4,1,1v25.2
			C505.4,349.7,504.9,350.1,504.4,350.1z M446.6,348.1h56.8V325h-56.8V348.1z"/>
	</g>
</g>
<g>
	<path fill="#82C2FE" d="M519.7,353.6h-89.5v-0.1c0-2.4,2-4.4,4.4-4.4h80.7c2.4,0,4.4,2,4.4,4.4V353.6z"/>
	<path fill="#2E9AFE" d="M519.7,354.6h-89.5c-0.6,0-1-0.4-1-1v-0.1c0-3,2.4-5.4,5.4-5.4h80.7c3,0,5.4,2.4,5.4,5.4v0.1
		C520.7,354.2,520.3,354.6,519.7,354.6z M431.4,352.6h87.3c-0.4-1.4-1.7-2.5-3.3-2.5h-80.7C433.1,350.1,431.8,351.2,431.4,352.6z"/>
</g>
<g>
	<path fill="#F6FAFF" d="M373.7,7.8c12.2,0,22.6,7.9,26.3,18.9c-1-13.6-12.4-24.4-26.3-24.4S348.4,13,347.4,26.6
		C351.1,15.7,361.5,7.8,373.7,7.8z"/>
</g>
<g>
	<path fill="#9ED0FE" d="M280.7,194.1H154.4v-3c0-0.6,0.5-1.2,1.2-1.2h124c0.6,0,1.2,0.5,1.2,1.2L280.7,194.1L280.7,194.1z"/>
</g>
<g>
	<g>
		<g>
			<path fill="#9ED0FE" d="M776.4,38.8c-0.1-7.4-4.8-14-11.9-16.5c-0.5-0.2-0.9-0.7-0.9-1.3c-0.2-8.8-7.3-15.7-16.1-15.7
				c-6.7,0-12.7,4.2-15.1,10.4c-0.1,0.4-0.5,0.7-0.8,0.8c-0.4,0.1-0.8,0.1-1.2-0.1c-1.6-1-3.4-1.5-5.2-1.5c-5.4,0-9.8,4.4-9.8,9.8
				c0,0.4,0.1,0.9,0.1,1.3c1.9-3.3,5.5-5.6,9.7-5.6c2.2,0,4.2,0.7,5.9,1.7c2.5-6.6,8.9-11.3,16.4-11.3c9.5,0,17.2,7.6,17.5,17
				C770.1,29.7,774.3,33.7,776.4,38.8z"/>
		</g>
	</g>
	<g>
		<g>
			<path fill="#9ED0FE" d="M714.2,33.4c-0.1-0.6-0.2-1.2-0.2-1.9c0-1.3,0.2-2.5,0.6-3.7c-0.1,0-0.1,0-0.2,0.1
				c-6.9,1.3-11.8,7.3-11.8,14.3c0,0.1,0,0.3,0,0.4C704.7,37.9,709,34.4,714.2,33.4z"/>
		</g>
	</g>
</g>
<g>
	<path fill="#F6FAFF" d="M948.6,145.5c-0.9-1.9-2.8-3.1-4.9-3.1c-0.8,0-1.6,0.2-2.3,0.5l-3.1,1.4c-10.3,4.8-21.4,7.2-32.9,7.2
		c-16.5,0-32.2-5-45.5-14.4l-5.2-3.7l-5.2,3.7c-13.3,9.4-29,14.4-45.4,14.4c-11.5,0-22.6-2.4-32.9-7.2l-3.1-1.4
		c-0.7-0.3-1.5-0.5-2.3-0.5c-2.1,0-4,1.2-5,3.1l-1.5,3.1c-6.8,13.9-11.6,28.4-14.3,43.3c2.9-12.7,7.2-25.1,13-37.1l1.5-3.1
		c1.6-3.4,5.7-4.8,9.1-3.2l3.1,1.4c25.1,11.6,54.7,8.8,77-7l6-4.2l6,4.2c22.3,15.8,52,18.6,77,7l3.1-1.4c3.4-1.6,7.4-0.1,9.1,3.2
		l1.5,3.1c5.9,12,10.2,24.4,13.1,37.1c-2.7-14.9-7.5-29.5-14.3-43.4L948.6,145.5z"/>
</g>
<g>
	<g>
		<path fill="#82C2FE" d="M1098,144H889.1c-2.2,0-4-1.8-4-4v-0.2c0-2.2,1.8-4,4-4H1098c2.2,0,4,1.8,4,4v0.2
			C1102,142.2,1100.2,144,1098,144z"/>
		<path fill="#2E9AFE" d="M1098,145H889.1c-2.8,0-5-2.3-5-5v-0.2c0-2.8,2.3-5,5-5H1098c2.8,0,5,2.3,5,5v0.2
			C1103,142.7,1100.7,145,1098,145z M889.1,136.7c-1.7,0-3,1.4-3,3v0.2c0,1.7,1.4,3,3,3H1098c1.7,0,3-1.4,3-3v-0.2c0-1.7-1.4-3-3-3
			H889.1z"/>
	</g>
	<g>
		<rect x="895.2" y="144" fill="#FFFFFF" width="196.6" height="143.1"/>
		<path fill="#2E9AFE" d="M1091.8,288.1H895.2c-0.6,0-1-0.4-1-1V144c0-0.6,0.4-1,1-1h196.6c0.6,0,1,0.4,1,1v143.1
			C1092.8,287.6,1092.4,288.1,1091.8,288.1z M896.2,286.1h194.6V145H896.2V286.1z"/>
	</g>
	<g>
		<path fill="#82C2FE" d="M1102.9,295.6H884.1c-2.3,0-4.1-1.9-4.1-4.1v-0.3c0-2.3,1.9-4.1,4.1-4.1h218.8c2.3,0,4.1,1.9,4.1,4.1v0.3
			C1107.1,293.8,1105.2,295.6,1102.9,295.6z"/>
		<path fill="#2E9AFE" d="M1102.9,296.6H884.1c-2.8,0-5.1-2.3-5.1-5.1v-0.3c0-2.8,2.3-5.1,5.1-5.1h218.8c2.8,0,5.1,2.3,5.1,5.1v0.3
			C1108.1,294.3,1105.8,296.6,1102.9,296.6z M884.1,288.1c-1.7,0-3.1,1.4-3.1,3.1v0.3c0,1.7,1.4,3.1,3.1,3.1h218.8
			c1.7,0,3.1-1.4,3.1-3.1v-0.3c0-1.7-1.4-3.1-3.1-3.1H884.1z"/>
	</g>
	<g>
		<g>
			<g>
				<path fill="#E0F0FF" d="M940.4,223.5l8.2-30.4c-2.6-0.7-5.3-1.1-8.2-1.1c-17.4,0-31.5,14.1-31.5,31.5S923,255,940.4,255
					s31.5-14.1,31.5-31.5c0-2.8-0.4-5.6-1.1-8.2L940.4,223.5z"/>
			</g>
			<g>
				<path fill="#2E9AFE" d="M940.4,256c-17.9,0-32.5-14.6-32.5-32.5s14.6-32.5,32.5-32.5c2.8,0,5.7,0.4,8.4,1.1
					c0.3,0.1,0.5,0.2,0.6,0.5s0.2,0.5,0.1,0.8l-7.7,28.8l28.8-7.7c0.3-0.1,0.5,0,0.8,0.1s0.4,0.4,0.5,0.6c0.7,2.7,1.1,5.6,1.1,8.4
					C972.9,241.4,958.3,256,940.4,256z M940.4,193c-16.8,0-30.5,13.7-30.5,30.5s13.7,30.5,30.5,30.5s30.5-13.7,30.5-30.5
					c0-2.3-0.3-4.7-0.8-6.9l-29.4,7.9c-0.3,0.1-0.7,0-1-0.3s-0.4-0.6-0.3-1l7.9-29.4C945,193.3,942.7,193,940.4,193z"/>
			</g>
		</g>
		<g>
			<path fill="#82C2FE" d="M953.7,210.2l36.4-9.7c-3.5-13-13.7-23.2-26.6-26.6L953.7,210.2z"/>
			<path fill="#2E9AFE" d="M953.7,211.2c-0.3,0-0.5-0.1-0.7-0.3c-0.3-0.3-0.4-0.6-0.3-1l9.7-36.4c0.1-0.5,0.7-0.8,1.2-0.7
				c13.3,3.6,23.8,14,27.3,27.3c0.1,0.5-0.2,1.1-0.7,1.2l-36.4,9.7C953.9,211.2,953.8,211.2,953.7,211.2z M964.2,175l-9,33.7l33.7-9
				C985.3,187.9,976,178.6,964.2,175z"/>
		</g>
		<g>
			<path fill="#82C2FE" d="M1078.1,177.5h-64c-0.6,0-1-0.4-1-1s0.4-1,1-1h64c0.6,0,1,0.4,1,1S1078.7,177.5,1078.1,177.5z"/>
		</g>
		<g>
			<path fill="#82C2FE" d="M1046.1,195.3h-32c-0.6,0-1-0.4-1-1s0.4-1,1-1h32c0.6,0,1,0.4,1,1S1046.7,195.3,1046.1,195.3z"/>
		</g>
		<g>
			<path fill="#82C2FE" d="M1078.1,218.2h-64c-0.6,0-1-0.4-1-1s0.4-1,1-1h64c0.6,0,1,0.4,1,1S1078.7,218.2,1078.1,218.2z"/>
		</g>
		<g>
			<g>
				<rect x="1013" y="242.8" fill="#E0F0FF" width="65.1" height="8.4"/>
			</g>
			<g>
				<path fill="#2E9AFE" d="M1078.1,252.1H1013c-0.6,0-1-0.4-1-1v-8.4c0-0.6,0.4-1,1-1h65.1c0.6,0,1,0.4,1,1v8.4
					C1079.1,251.7,1078.7,252.1,1078.1,252.1z M1014,250.1h63.1v-6.4H1014V250.1z"/>
			</g>
		</g>
	</g>
	<g>
		<g>
			<rect x="987.9" y="295.6" fill="#E0F0FF" width="11.3" height="58.1"/>
		</g>
		<g>
			<path fill="#2E9AFE" d="M999.1,354.7h-11.3c-0.6,0-1-0.4-1-1v-58.1c0-0.6,0.4-1,1-1h11.3c0.6,0,1,0.4,1,1v58.1
				C1000.1,354.3,999.7,354.7,999.1,354.7z M988.9,353h9.3v-56.4h-9.3V353z"/>
		</g>
	</g>
</g>
<g>
	<path fill="#9ED0FE" d="M1097.9,137H889.1c-1.5,0-2.8,1.2-2.8,2.8v0.1h214.3v-0.1C1100.6,138.2,1099.4,137,1097.9,137z"/>
</g>
<g>
	<path fill="#9ED0FE" d="M1102.9,288.5H884c-1.5,0-2.8,1.2-2.8,2.8v0.1h224.4v-0.1C1105.6,289.7,1104.4,288.5,1102.9,288.5z"/>
</g>
<g>
	<path fill="#F6FAFF" d="M279.3,73.8c-0.7-1.2-2-1.9-3.4-1.9s-2.7,0.7-3.4,1.9l-20.2,35c-0.7,1.2-0.7,2.7,0,3.9c0,0,0,0.1,0.1,0.1
		l19-32.9c2-3.5,7.1-3.5,9.1,0l19,32.9c0,0,0-0.1,0.1-0.1c0.7-1.2,0.7-2.7,0-3.9L279.3,73.8z"/>
</g>
<g>
	<path fill="#FFFFFF" d="M782,277c1.8,1.3,5.3,2.2,9.2,2.2s7.4-0.9,9.2-2.2"/>
	<path fill="#2E9AFE" d="M791.2,280.2c-4,0-7.7-0.9-9.8-2.4c-0.5-0.3-0.6-0.9-0.2-1.4c0.3-0.5,0.9-0.6,1.4-0.2c1.7,1.2,5.1,2,8.7,2
		s6.9-0.8,8.7-2c0.5-0.3,1.1-0.2,1.4,0.2c0.3,0.5,0.2,1.1-0.2,1.4C798.9,279.3,795.2,280.2,791.2,280.2z"/>
</g>
</svg>
