<?xml version="1.0" encoding="utf-8"?>
<!-- Generator: Adobe Illustrator 21.0.0, SVG Export Plug-In . SVG Version: 6.00 Build 0)  -->
<svg version="1.1" id="Layer_1" xmlns="http://www.w3.org/2000/svg" xmlns:xlink="http://www.w3.org/1999/xlink" x="0px" y="0px"
	 viewBox="0 0 1140 269" style="enable-background:new 0 0 1140 269;" xml:space="preserve">
<style type="text/css">
	.st0{fill:none;stroke:#E0F0FF;stroke-width:2;stroke-linecap:round;stroke-linejoin:round;stroke-miterlimit:10;}
	.st1{fill:#82C2FE;}
	.st2{fill:#2E9AFE;}
	.st3{fill:#E0F0FF;}
	.st4{fill:none;stroke:#2E9AFE;stroke-width:2;stroke-linecap:round;stroke-linejoin:round;stroke-miterlimit:10;}
	.st5{fill:#FFFFFF;stroke:#67939E;stroke-width:2;stroke-linecap:round;stroke-linejoin:round;stroke-miterlimit:10;}
	.st6{fill:#82C2FE;stroke:#2E9AFE;stroke-width:2;stroke-linecap:round;stroke-linejoin:round;stroke-miterlimit:10;}
	.st7{fill:#FFFFFF;stroke:#2E9AFE;stroke-width:2;stroke-linecap:round;stroke-linejoin:round;stroke-miterlimit:10;}
	.st8{fill:none;stroke:#82C2FE;stroke-width:2;stroke-linecap:round;stroke-linejoin:round;stroke-miterlimit:10;}
	.st9{fill:#E0F0FF;stroke:#2E9AFE;stroke-width:2;stroke-linecap:round;stroke-linejoin:round;stroke-miterlimit:10;}
	.st10{fill:#F6FAFF;}
	.st11{fill:#9ED0FE;}
</style>
<line class="st0" x1="-2.2" y1="188.8" x2="194.2" y2="188.8"/>
<line class="st0" x1="961.6" y1="229.9" x2="1142" y2="229.9"/>
<line class="st0" x1="971.4" y1="164.3" x2="1072" y2="164.3"/>
<line class="st0" x1="244.8" y1="72.7" x2="244.8" y2="164.3"/>
<line class="st0" x1="105.7" y1="30" x2="197.2" y2="30"/>
<line class="st0" x1="902.7" y1="30" x2="1130" y2="30"/>
<line class="st0" x1="73.3" y1="109.4" x2="206.6" y2="109.4"/>
<line class="st0" x1="902.7" y1="102.1" x2="1040" y2="102.1"/>
<line class="st0" x1="591.7" y1="38.3" x2="713" y2="38.3"/>
<line class="st0" x1="770.4" y1="200.1" x2="902.7" y2="200.1"/>
<path class="st1" d="M360.8,220.5c-13.8-9.2-39.1-9.8-39.1-24.5c0-9.8,9.8-14.7,9.8-34.3v-4.9c0-19.6-14.7-24.5-24.5-24.5
	s-24.5,4.9-24.5,24.5v4.9c0,19.6,9.8,24.5,9.8,34.3c0,14.7-25.3,15.3-39.1,24.5c-3.1,2.1-4.9,4.9-4.9,9.8v14.8h117.5v-14.8
	C365.6,225.4,363.8,222.6,360.8,220.5z"/>
<path class="st2" d="M365.6,246.1H248.1c-0.6,0-1-0.4-1-1v-14.8c0-4.8,1.7-8.1,5.4-10.6c5-3.3,11.4-5.5,17.6-7.7
	c10.8-3.7,21.1-7.2,21.1-16c0-3.8-1.6-6.8-3.5-10.6c-2.8-5.3-6.3-12-6.3-23.7v-4.9c0-18.8,13.2-25.5,25.5-25.5s25.5,6.7,25.5,25.5
	v4.9c0,11.7-3.5,18.4-6.3,23.7c-2,3.8-3.5,6.8-3.5,10.6c0,8.8,10.2,12.3,21.1,16c6.2,2.1,12.6,4.3,17.6,7.7
	c3.7,2.5,5.3,5.8,5.3,10.6v14.8C366.6,245.7,366.2,246.1,365.6,246.1z M249.1,244.1h115.5v-13.8c0-4.2-1.3-6.9-4.4-9
	c-4.8-3.2-11.1-5.3-17.2-7.4c-11.5-4-22.4-7.7-22.4-17.9c0-4.3,1.7-7.6,3.8-11.5c2.8-5.4,6-11.5,6-22.8v-4.9
	c0-22.4-19.6-23.5-23.5-23.5s-23.5,1.1-23.5,23.5v4.9c0,11.2,3.2,17.4,6.1,22.8c2,3.9,3.8,7.2,3.8,11.5c0,10.2-10.9,13.9-22.4,17.9
	c-6.1,2.1-12.4,4.2-17.2,7.4c-3.1,2.1-4.5,4.8-4.5,9L249.1,244.1L249.1,244.1z"/>
<g>
	<path class="st3" d="M409.9,269.8v-175c0-2.1,2.1-3.9,4.8-3.9h233.5c2.7,0,4.8,1.7,4.8,3.9v44V183v86.8H409.9z"/>
	<path class="st4" d="M409.9,269.8v-175c0-2.1,2.1-3.9,4.8-3.9h233.5c2.7,0,4.8,1.7,4.8,3.9v44V183v86.8H409.9z"/>
</g>
<path class="st5" d="M653,125.1"/>
<path class="st5" d="M467.1,205.7"/>
<polygon class="st6" points="480.5,198.5 480.5,203.5 421.1,203.5 421.1,168.4 480.5,168.4 480.5,173.3 "/>
<polygon class="st6" points="559.5,198.5 559.5,203.5 500.1,203.5 500.1,168.4 559.5,168.4 559.5,173.3 "/>
<polygon class="st6" points="638.6,198.5 638.6,203.5 579.2,203.5 579.2,168.4 638.6,168.4 638.6,173.3 "/>
<polygon class="st7" points="638.6,151.3 638.6,154.5 421.1,154.5 421.1,132.4 638.6,132.4 638.6,135.5 "/>
<g>
	<g>
		<line class="st8" x1="423.1" y1="217.4" x2="480.5" y2="217.4"/>
	</g>
	<g>
		<line class="st8" x1="423.1" y1="229.9" x2="466.3" y2="229.9"/>
	</g>
	<g>
		<line class="st8" x1="423.1" y1="242.5" x2="473.6" y2="242.5"/>
	</g>
	<g>
		<line class="st8" x1="423.1" y1="255" x2="450.8" y2="255"/>
	</g>
</g>
<g>
	<g>
		<line class="st8" x1="500.1" y1="217.4" x2="557.5" y2="217.4"/>
	</g>
	<g>
		<line class="st8" x1="500.1" y1="229.9" x2="543.3" y2="229.9"/>
	</g>
	<g>
		<line class="st8" x1="500.1" y1="242.5" x2="550.6" y2="242.5"/>
	</g>
	<g>
		<line class="st8" x1="500.1" y1="255" x2="527.8" y2="255"/>
	</g>
</g>
<g>
	<g>
		<line class="st8" x1="577.2" y1="217.4" x2="634.5" y2="217.4"/>
	</g>
	<g>
		<line class="st8" x1="577.2" y1="229.9" x2="620.4" y2="229.9"/>
	</g>
	<g>
		<line class="st8" x1="577.2" y1="242.5" x2="627.7" y2="242.5"/>
	</g>
	<g>
		<line class="st8" x1="577.2" y1="255" x2="604.8" y2="255"/>
	</g>
</g>
<path class="st6" d="M648.2,91H414.7c-2.7,0-4.8,1.7-4.8,3.9v18.5H653V94.9C653,92.7,650.9,91,648.2,91z"/>
<circle class="st2" cx="420.5" cy="102.7" r="3.5"/>
<circle class="st2" cx="432.5" cy="102.7" r="3.5"/>
<circle class="st2" cx="444.4" cy="102.7" r="3.5"/>
<polygon class="st6" points="638.6,151.3 638.6,154.5 610.6,154.5 610.6,132.4 638.6,132.4 638.6,135.5 "/>
<g>
	<line class="st8" x1="427.2" y1="143.4" x2="486.9" y2="143.4"/>
</g>
<path class="st9" d="M828.7,43.2h-65.2V157h89.8V67.7C843.6,58.1,838.2,52.8,828.7,43.2z"/>
<line class="st4" x1="780.1" y1="60" x2="811.4" y2="60"/>
<line class="st4" x1="780.1" y1="140.4" x2="836.6" y2="140.4"/>
<polyline class="st10" points="827.5,43.8 827.5,68.1 852.3,68.1 "/>
<polyline class="st4" points="827.5,43.2 827.5,68.1 853,68.1 "/>
<path class="st7" d="M802.9,107.1l4.9-18.3c-1.6-0.4-3.2-0.6-4.9-0.6c-10.5,0-19,8.5-19,19s8.5,19,19,19s19-8.5,19-19
	c0-1.7-0.2-3.3-0.6-4.9L802.9,107.1z"/>
<path class="st6" d="M810.9,99l21.9-5.9c-2.1-7.8-8.2-13.9-16-16L810.9,99z"/>
<path class="st9" d="M517.1,63.9h9.4c0,1.9-2.5,3.1-4.7,3.1C519.6,67.1,517.1,65.8,517.1,63.9z"/>
<g>
	<path class="st9" d="M521.7,17.8c-9.7,0-17.5,7.8-17.5,17.5c0,3.2,0.9,6.1,2.3,8.7c4.3,7.8,5.4,6.2,6.1,10.4
		c0.6,3.5,1.4,4.4,4.1,4.4c1.1,0,3,0,5,0s3.8,0,5,0c2.7,0,3.5-0.8,4.1-4.4c0.7-4.2,1.8-2.6,6.1-10.4c1.4-2.6,2.3-5.6,2.3-8.7
		C539.3,25.6,531.4,17.8,521.7,17.8z"/>
</g>
<line class="st4" x1="521.7" y1="5.9" x2="521.7" y2="-0.1"/>
<line class="st4" x1="507.9" y1="9.6" x2="504.9" y2="4.4"/>
<line class="st4" x1="497.7" y1="19.8" x2="492.5" y2="16.8"/>
<line class="st4" x1="494" y1="33.7" x2="488" y2="33.7"/>
<line class="st4" x1="497.7" y1="47.6" x2="492.5" y2="50.6"/>
<line class="st4" x1="545.8" y1="47.6" x2="551" y2="50.6"/>
<line class="st4" x1="549.5" y1="33.7" x2="555.5" y2="33.7"/>
<line class="st4" x1="545.8" y1="19.8" x2="551" y2="16.8"/>
<line class="st4" x1="535.6" y1="9.6" x2="538.6" y2="4.5"/>
<path class="st6" d="M268.3,35.7L268.3,35.7c-1.2-0.5-2-1.8-1.9-3.1c0.2-1.6,0.2-3.2,0-4.8c-0.1-1.3,0.7-2.6,1.9-3.1l0,0
	c1.6-0.6,2.3-2.4,1.7-4l-0.6-1.6c-0.6-1.6-2.4-2.3-4-1.7l0,0c-1.2,0.5-2.7,0.2-3.5-0.9c-1-1.3-2.1-2.4-3.4-3.4
	c-1-0.8-1.4-2.3-0.9-3.5l0,0c0.7-1.6-0.1-3.4-1.6-4l-1.6-0.7c-1.6-0.7-3.4,0.1-4,1.6l0,0c-0.5,1.2-1.8,2-3.1,1.8
	c-1.6-0.2-3.2-0.2-4.8,0c-1.3,0.1-2.6-0.7-3.1-1.9l0,0c-0.6-1.6-2.4-2.3-4-1.7l-1.6,0.6c-1.6,0.6-2.3,2.4-1.7,4l0,0
	c0.5,1.2,0.2,2.7-0.9,3.5c-0.3,0.2-0.5,0.4-0.8,0.7l0,0c-1,0.8-1.9,1.8-2.7,2.7c-0.1,0.1-0.2,0.2-0.3,0.4c-0.9,0.7-2.1,0.9-3.2,0.5
	l0,0c-1.1-0.5-2.3-0.2-3.1,0.4c-0.4,0.3-0.7,0.7-0.9,1.2l-0.7,1.6c-0.7,1.6,0.1,3.4,1.6,4l0,0c1.2,0.5,2,1.8,1.8,3.1
	c-0.2,1.6-0.2,3.2,0,4.8c0.1,1.3-0.7,2.6-1.9,3.1l0,0c-1.6,0.6-2.3,2.4-1.7,4l0.6,1.6c0.6,1.6,2.4,2.3,4,1.7l0,0
	c1.2-0.5,2.7-0.2,3.5,0.9c1,1.3,2.1,2.4,3.4,3.4c1,0.8,1.4,2.3,0.9,3.5l0,0c-0.7,1.6,0.1,3.4,1.6,4l1.6,0.7c1.6,0.7,3.4-0.1,4-1.6
	l0,0c0.5-1.2,1.8-2,3.1-1.8c1.6,0.2,3.2,0.2,4.8,0c1.3-0.1,2.6,0.7,3.1,1.9l0,0c0.6,1.6,2.4,2.3,4,1.7l1.6-0.6
	c1.6-0.6,2.3-2.4,1.7-4l0,0c-0.5-1.2-0.2-2.7,0.9-3.5c0.3-0.2,0.5-0.4,0.8-0.7l0,0c1-0.8,1.9-1.8,2.7-2.7c0.1-0.1,0.2-0.2,0.3-0.4
	c0.9-0.7,2.1-0.9,3.2-0.5l0,0c1.1,0.5,2.3,0.2,3.1-0.4c0.4-0.3,0.7-0.7,0.9-1.2l0.7-1.6C270.6,38.2,269.9,36.4,268.3,35.7z
	 M248.5,39.1c-4.9,2-10.5-0.4-12.5-5.3s0.4-10.5,5.3-12.5c4.9-2,10.5,0.4,12.5,5.3C255.7,31.6,253.4,37.2,248.5,39.1z"/>
<path class="st0" d="M306.9,113.3V58.4c0-3.8,3.1-6.8,6.8-6.8h146.4"/>
<rect x="764.4" y="44.2" class="st10" width="62.1" height="2.7"/>
<g>
	<g>
		<path class="st11" d="M254.9,8.9l1.6,0.7c0,0,0.1,0,0.1,0.1c0-0.2,0.1-0.3,0.2-0.5c0.4-1,0-2.3-1.1-2.7l-1.6-0.7
			c-0.5-0.2-1.1-0.2-1.6,0s-0.9,0.6-1.1,1.1c-0.7,1.7-2.4,2.7-4.2,2.5c-1.5-0.2-3.1-0.2-4.6,0c-1.8,0.2-3.5-0.9-4.1-2.5
			c-0.2-0.5-0.6-0.9-1.1-1.1s-1.1-0.2-1.6,0l-1.6,0.6c-0.5,0.2-0.9,0.6-1.1,1.1c-0.2,0.5-0.2,1.1,0,1.6c0.1,0.2,0.1,0.4,0.2,0.5
			c0.1,0,0.1-0.1,0.2-0.1l1.6-0.6c1-0.4,2.1-0.4,3.1,0s1.8,1.2,2.2,2.2c0.3,0.8,1.2,1.4,2.1,1.3c0.8-0.1,1.6-0.1,2.3-0.1
			c0.9,0,1.8,0.1,2.7,0.2s1.7-0.4,2.1-1.2c0.4-1,1.2-1.8,2.2-2.2C252.8,8.5,253.9,8.5,254.9,8.9z"/>
		<path class="st11" d="M266.6,21.2c1,0,1.9,0.4,2.7,1c0.1-0.4,0-0.8-0.1-1.1l-0.6-1.6c-0.2-0.5-0.6-0.9-1.1-1.1s-1.1-0.2-1.6,0
			c-1.7,0.7-3.6,0.2-4.7-1.2c-0.7-0.9-1.5-1.8-2.4-2.6c0,0.1-0.1,0.2-0.1,0.4c-0.4,0.8-0.1,1.8,0.6,2.4c1.3,1.1,2.5,2.3,3.5,3.6
			c0.5,0.7,1.5,0.9,2.4,0.6C265.6,21.3,266.1,21.2,266.6,21.2z"/>
		<path class="st11" d="M227,20.6c0.8-1,1.8-2,2.8-2.9c0,0,0,0,0.1,0c0.3-0.2,0.5-0.4,0.8-0.6c0.7-0.5,0.9-1.5,0.6-2.4
			c-0.1-0.1-0.1-0.3-0.1-0.4l0,0c-0.9,0.8-1.7,1.6-2.5,2.6c-0.1,0.2-0.3,0.3-0.5,0.5c-1.2,1-2.8,1.2-4.2,0.6
			c-0.3-0.1-0.5-0.2-0.8-0.2c-0.5,0-0.9,0.2-1.3,0.5c-0.3,0.2-0.5,0.5-0.6,0.8l-0.7,1.6c-0.2,0.4-0.2,0.8-0.1,1.2
			c0.1,0,0.1-0.1,0.2-0.1c1.2-0.9,2.8-1.2,4.1-0.6c0.7,0.3,1.6,0.2,2.1-0.3C226.9,20.8,227,20.7,227,20.6z"/>
	</g>
</g>
<path class="st3" d="M253.6,221.4c-2.4,1.6-3.8,3.6-4.2,6.3c0.8-1.1,1.9-2.1,3.1-3l0,0c5-3.3,11.4-5.5,17.6-7.7
	c10-3.4,19.5-6.7,20.9-14.1c-3.7,5.3-11.8,8.1-20.2,11C264.7,216,258.4,218.2,253.6,221.4z"/>
<path class="st11" d="M306.9,133.4c-3.3,0-17.8,0.8-22.2,14.5c4.7-8.3,13.7-11.5,22.2-11.5c8.6,0,17.5,3.2,22.2,11.5
	C324.7,134.2,310.2,133.4,306.9,133.4z"/>
<path class="st11" d="M360.2,221.4c-4.8-3.2-11.1-5.3-17.2-7.4c-8.4-2.9-16.5-5.7-20.2-11c1.4,7.4,10.9,10.6,20.9,14.1
	c6.2,2.1,12.6,4.3,17.6,7.7c1.3,0.9,2.3,1.8,3.1,2.9C363.9,224.9,362.6,223,360.2,221.4z"/>
<g>
	<path class="st9" d="M223.5,191.4c-2.2,5.3-3.3,11-3.3,16.8c0,18.1,11.2,34.5,28,41.1c16.8-6.6,27.9-22.9,27.9-41.1
		c0-5.8-1.1-11.5-3.3-16.8c-8.1,2.8-17.3,1.8-24.6-2.7C240.8,193.2,231.6,194.2,223.5,191.4z"/>
</g>
<g>
	<polyline class="st9" points="234.4,217.3 243.2,226.1 261.8,207.5 	"/>
</g>
<path class="st10" d="M248.1,189.9c-7.2,4.2-16.1,5.2-24,2.8c-0.4,0.9-0.7,1.9-1,2.8c0.2-0.1,0.5-0.1,0.7,0
	c7.8,2.7,16.7,1.7,23.8-2.6c0.2-0.1,0.3-0.1,0.5-0.1s0.4,0,0.5,0.1c7.1,4.3,16,5.2,23.8,2.6c0.3-0.1,0.5-0.1,0.7,0
	c-0.3-1-0.6-1.9-1-2.9C264.2,195.1,255.3,194.1,248.1,189.9z"/>
<path class="st11" d="M648.2,95c1.5,0,2.8,0.5,3.8,1.2v-1.3c0-1.6-1.7-2.9-3.8-2.9H414.7c-2.1,0-3.8,1.3-3.8,2.9v1.3
	c1-0.7,2.3-1.2,3.8-1.2H648.2z"/>
<ellipse transform="matrix(0.7071 -0.7071 0.7071 0.7071 94.7761 507.4213)" class="st6" cx="659.9" cy="139.3" rx="60.9" ry="60.9"/>
<line class="st4" x1="702.9" y1="182.3" x2="745.5" y2="224.9"/>
<ellipse transform="matrix(0.7071 -0.7071 0.7071 0.7071 94.7761 507.4213)" class="st7" cx="659.9" cy="139.3" rx="46.1" ry="46.1"/>
<polyline class="st4" points="637.4,141.3 651,154.9 682.3,123.6 "/>
<path class="st11" d="M659.9,79.4c-16,0-31,6.2-42.3,17.5c-5.8,5.8-10.3,12.7-13.2,20.1c3-6.1,6.9-11.7,11.8-16.5
	c11.7-11.7,27.2-18.1,43.7-18.1s32.1,6.4,43.7,18.1c4.9,4.9,8.9,10.5,11.8,16.5c-3-7.5-7.5-14.3-13.2-20.1
	C690.9,85.7,675.9,79.4,659.9,79.4z"/>
<path class="st10" d="M521.7,18.8c-7.6,0-14,5.1-15.9,12.1c3.3-5.5,9.2-9.1,15.9-9.1s12.7,3.6,15.9,9.1c-0.7-2.7-2.2-5.2-4.3-7.3
	C530.3,20.5,526.2,18.8,521.7,18.8z"/>
</svg>
